<?xml version="1.0" encoding="UTF-8" standalone="no"?>
<!-- Created with Inkscape (http://www.inkscape.org/) -->

<svg
   width="901.99994"
   height="901.99994"
   viewBox="0 0 300.66665 300.66665"
   version="1.1"
   id="svg1"
   xmlns="http://www.w3.org/2000/svg"
   xmlns:svg="http://www.w3.org/2000/svg">
  <defs
     id="defs1">
    <rect
       x="145.25226"
       y="180.92826"
       width="628.15233"
       height="583.55734"
       id="rect1" />
    <clipPath
       clipPathUnits="userSpaceOnUse"
       id="clipPath20">
      <rect
         style="fill:#ff0000;stroke:none;stroke-width:3;stroke-linecap:square;stroke-linejoin:miter;paint-order:stroke markers fill;stop-color:#000000"
         id="rect20"
         width="78"
         height="45.033199"
         x="763.61322"
         y="452.82422" />
    </clipPath>
    <clipPath
       clipPathUnits="userSpaceOnUse"
       id="clipPath54">
      <path
         id="path54"
         style="stroke-width:0.0999999;stroke-linecap:square;paint-order:markers fill stroke;stop-color:#000000"
         d="m 1691.1994,-792.32001 h 1634.8919 v 92.82806 H 1691.1994 Z" />
    </clipPath>
    <clipPath
       clipPathUnits="userSpaceOnUse"
       id="clipPath55">
      <path
         id="path55"
         style="stroke-width:0.1;stroke-linecap:square;paint-order:markers fill stroke;stop-color:#000000"
         d="m 1736.6147,-745.57287 h 1589.4765 v 72.46715 H 1736.6147 Z" />
    </clipPath>
    <clipPath
       clipPathUnits="userSpaceOnUse"
       id="clipPath25">
      <rect
         style="fill:#ff0000;stroke:none;stroke-width:3;stroke-linecap:square;stroke-linejoin:miter;paint-order:stroke markers fill;stop-color:#000000"
         id="rect25-8"
         width="78"
         height="45.033199"
         x="763.61322"
         y="452.82422" />
    </clipPath>
  </defs>
  <g
     id="layer1"
     transform="translate(-189.94096,-31.673233)">
    <path
       id="path36"
       style="display:inline;fill:#7321de;stroke:none;stroke-width:1.94467;stroke-linecap:round;stroke-linejoin:round"
       d="M 348.37 306.38027 L 345.45919 306.45253 A 124.66667 124.66667 0 0 1 340.2743 306.64264 A 124.66667 124.66667 0 0 1 335.38562 306.45904 L 335.38562 306.4623 L 332.46831 306.38938 A 12.083333 12.083333 0 0 0 321.02429 318.42324 A 12.083333 12.083333 0 0 0 330.06206 330.09511 L 330.05555 330.16022 A 148.66667 148.66667 0 0 0 330.49044 330.18821 A 12.083333 12.083333 0 0 0 333.10763 330.50657 A 12.083333 12.083333 0 0 0 334.20919 330.42779 A 148.66667 148.66667 0 0 0 340.2743 330.64264 A 148.66667 148.66667 0 0 0 346.35633 330.4291 A 12.083333 12.083333 0 0 0 347.44096 330.50657 A 12.083333 12.083333 0 0 0 350.04122 330.19212 A 148.66667 148.66667 0 0 0 350.5243 330.16087 L 350.51648 330.0886 A 12.083333 12.083333 0 0 0 359.5243 318.42324 A 12.083333 12.083333 0 0 0 348.37 306.38027 z " />
  </g>
</svg>
