<?xml version="1.0" encoding="UTF-8" standalone="no"?>
<!-- Created with Inkscape (http://www.inkscape.org/) -->

<svg
   width="901.99994"
   height="901.99994"
   viewBox="0 0 300.66665 300.66665"
   version="1.1"
   id="svg1"
   xmlns="http://www.w3.org/2000/svg"
   xmlns:svg="http://www.w3.org/2000/svg">
  <defs
     id="defs1">
    <clipPath
       clipPathUnits="userSpaceOnUse"
       id="clipPath20">
      <rect
         style="fill:#ff0000;stroke:none;stroke-width:3;stroke-linecap:square;stroke-linejoin:miter;paint-order:stroke markers fill;stop-color:#000000"
         id="rect20"
         width="78"
         height="45.033199"
         x="763.61322"
         y="452.82422" />
    </clipPath>
    <clipPath
       clipPathUnits="userSpaceOnUse"
       id="clipPath54">
      <path
         id="path54"
         style="stroke-width:0.0999999;stroke-linecap:square;paint-order:markers fill stroke;stop-color:#000000"
         d="m 1691.1994,-792.32001 h 1634.8919 v 92.82806 H 1691.1994 Z" />
    </clipPath>
    <clipPath
       clipPathUnits="userSpaceOnUse"
       id="clipPath55">
      <path
         id="path55"
         style="stroke-width:0.1;stroke-linecap:square;paint-order:markers fill stroke;stop-color:#000000"
         d="m 1736.6147,-745.57287 h 1589.4765 v 72.46715 H 1736.6147 Z" />
    </clipPath>
    <clipPath
       clipPathUnits="userSpaceOnUse"
       id="clipPath25">
      <rect
         style="fill:#ff0000;stroke:none;stroke-width:3;stroke-linecap:square;stroke-linejoin:miter;paint-order:stroke markers fill;stop-color:#000000"
         id="rect25-8"
         width="78"
         height="45.033199"
         x="763.61322"
         y="452.82422" />
    </clipPath>
  </defs>
  <g
     id="layer1"
     transform="translate(-189.94096,-31.673233)">
    <path
       id="path1"
       style="fill:#05000b;fill-opacity:1;stroke:#000000;stroke-width:1.66665;stroke-linejoin:round;stroke-dasharray:none;stroke-opacity:1"
       d="M 340.27462,32.839888 A 149.16669,149.16668 0 0 0 191.10762,182.00689 149.16669,149.16668 0 0 0 340.27462,331.17325 149.16669,149.16668 0 0 0 489.44099,182.00689 149.16669,149.16668 0 0 0 340.27462,32.839888 Z m 0,25.11272 A 124.05401,124.05401 0 0 1 464.32827,182.00689 124.05401,124.05401 0 0 1 340.27462,306.06053 124.05401,124.05401 0 0 1 216.22035,182.00689 124.05401,124.05401 0 0 1 340.27462,57.952608 Z" />
  </g>
</svg>
