<?xml version="1.0" encoding="UTF-8" standalone="no"?>
<!-- Created with Inkscape (http://www.inkscape.org/) -->

<svg
   width="901.99994"
   height="901.99994"
   viewBox="0 0 300.66665 300.66665"
   version="1.1"
   id="svg1"
   inkscape:version="1.3.1 (91b66b0783, 2023-11-16)"
   sodipodi:docname="_numbers_NO_FONT.svg"
   xmlns:inkscape="http://www.inkscape.org/namespaces/inkscape"
   xmlns:sodipodi="http://sodipodi.sourceforge.net/DTD/sodipodi-0.dtd"
   xmlns="http://www.w3.org/2000/svg"
   xmlns:svg="http://www.w3.org/2000/svg">
  <sodipodi:namedview
     id="namedview1"
     pagecolor="#1a0040"
     bordercolor="#eeeeee"
     borderopacity="1"
     inkscape:showpageshadow="0"
     inkscape:pageopacity="0"
     inkscape:pagecheckerboard="0"
     inkscape:deskcolor="#000000"
     inkscape:document-units="px"
     inkscape:zoom="0.55496673"
     inkscape:cx="-27.028647"
     inkscape:cy="301.81989"
     inkscape:window-width="1858"
     inkscape:window-height="1057"
     inkscape:window-x="-8"
     inkscape:window-y="1072"
     inkscape:window-maximized="1"
     inkscape:current-layer="layer1" />
  <defs
     id="defs1" />
  <g
     inkscape:label="Layer 1"
     inkscape:groupmode="layer"
     id="layer1"
     transform="translate(-189.94096,-31.673233)">
    <path
       d="m 505.74874,257.08161 v 33.19469 q 0,20.91957 -13.83112,34.5778 -13.83112,13.65823 -35.26936,13.65823 -1.72889,0 -2.59333,0 -1.03733,0 -2.42045,-0.17289 -1.38311,-0.17289 -3.45778,-0.34578 -2.07466,-0.17289 -5.35956,-1.03733 -3.112,-0.69156 -6.74267,-2.07467 -10.71912,-4.32222 -16.42445,-9.85467 -5.70534,-5.70534 -5.70534,-11.23779 0,-1.556 0,-2.24756 0,-6.56978 3.80356,-11.06489 3.80356,-4.49512 10.02756,-5.35956 0.69156,-0.17289 2.42045,-0.17289 3.80355,0 8.12578,2.42045 l 5.70534,4.32222 q 3.63067,2.59334 6.91556,3.80356 3.28489,1.03733 6.91556,1.03733 l 3.112,-0.51866 q 5.01378,-1.38312 7.08845,-3.45778 2.07467,-2.07467 2.59333,-6.56979 l 0.17289,-1.556 v -3.97644 l -1.03733,0.69155 -1.38311,0.86445 q -6.74267,4.14933 -16.25157,4.14933 -6.74267,0 -13.13956,-2.07467 -6.3969,-2.24755 -12.44801,-6.74267 -7.78001,-5.87822 -11.92934,-14.69556 -4.14934,-8.81734 -4.14934,-18.49913 0,-7.78 2.42045,-14.86845 2.59333,-7.26134 7.95289,-13.83112 13.83112,-17.2889 37.34403,-17.2889 19.01779,0 31.81157,11.75645 12.96668,11.75645 15.38713,30.77424 z m -50.13781,6.74267 q 1.72889,0.34578 2.76622,0.34578 1.03734,0 2.76623,-0.34578 4.49511,-0.86445 7.08845,-3.97645 2.76622,-3.28489 2.76622,-7.78 0,-1.38312 -0.69155,-4.14934 -1.38312,-4.49511 -5.70534,-6.91556 -2.93911,-1.72889 -6.39689,-1.72889 -3.97645,0 -7.43423,2.76622 -3.28489,2.59334 -3.97645,5.87823 -0.69155,3.112 -0.51867,4.49511 0,9.16312 9.33601,11.41068 z"
       id="text28"
       style="font-size:172.889px;font-family:MelodBold;-inkscape-font-specification:'MelodBold, Normal';text-align:center;white-space:pre;fill:#34a5ff;stroke:#000000;stroke-width:1.47349;stroke-linecap:round;stroke-linejoin:round"
       inkscape:label="9x"
       transform="matrix(1.1311043,0,0,1.1311043,-235.87197,-127.16176)"
       aria-label="9" />
    <path
       d="m 424.92318,266.07184 -0.86445,-0.86445 -0.51866,-0.86444 q -5.01378,-6.3969 -5.01378,-16.25157 0,-7.43423 2.93911,-15.04134 8.29867,-20.91957 30.94713,-24.72313 3.63067,-0.51867 6.91556,-0.51867 3.28489,0 6.74267,0.51867 22.82135,3.80356 31.12002,24.72313 2.93912,7.60711 2.93912,15.21423 0,9.68178 -5.01378,16.07868 l -0.69156,0.86444 -0.86444,0.86445 1.21022,0.86444 1.21022,0.86445 q 3.97645,3.28489 6.74267,7.95289 5.01378,7.78001 5.01378,17.98046 0,13.13956 -8.12578,24.55024 -8.64445,12.10223 -23.16713,17.11601 l -8.12578,2.07467 q -3.97645,0.69155 -8.99023,0.69155 -9.50889,0 -17.2889,-2.76622 -14.34979,-5.01378 -22.82135,-16.77024 -8.29867,-11.75645 -8.29867,-25.0689 0,-10.02756 5.01378,-17.80757 2.76623,-4.668 6.74267,-7.95289 l 1.03734,-0.86445 z m 26.27913,-18.15335 q 1.03733,4.84089 5.53245,6.224 2.07467,0.86445 3.97644,0.34578 5.35956,-0.86444 6.74268,-6.56978 0.34577,-1.72889 0.34577,-2.42045 0,-2.93911 -2.07466,-5.53244 -2.59334,-3.11201 -6.3969,-3.11201 -3.45778,0 -6.39689,3.11201 -2.07467,2.59333 -2.07467,5.87822 z m -3.80356,48.92759 q 1.72889,9.68178 11.92934,9.68178 5.35956,0 8.64445,-3.45778 3.28489,-3.45778 3.28489,-8.47156 0,-1.556 -0.34577,-3.28489 -0.34578,-1.72889 -1.55601,-3.63067 -3.80355,-5.35956 -10.02756,-5.35956 -4.49511,0 -7.78,2.76623 -3.11201,2.59333 -3.97645,7.26133 l -0.34578,2.24756 z"
       id="text27"
       style="font-size:172.889px;font-family:MelodBold;-inkscape-font-specification:'MelodBold, Normal';text-align:center;white-space:pre;fill:#34a5ff;stroke:#000000;stroke-width:1.47349;stroke-linecap:round;stroke-linejoin:round"
       inkscape:label="8x"
       transform="matrix(1.1311043,0,0,1.1311043,-235.2128,-126.9662)"
       aria-label="8" />
    <path
       d="m 409.96823,243.25049 v -16.25157 q 0,-7.60712 4.32223,-11.92934 4.32222,-4.32223 12.10223,-4.32223 h 54.9787 l 6.05112,0.17289 q 10.02756,0.86445 16.42445,7.9529 6.3969,7.08845 6.3969,17.11601 0,4.49511 -1.556,9.16312 l -2.42045,5.53244 -0.69156,1.03734 -1.72889,3.112 -42.18491,72.95916 q -6.74268,11.58356 -16.94313,11.58356 -4.49511,0 -8.99022,-2.42044 -4.49512,-2.42045 -6.91557,-6.22401 -2.24755,-3.80355 -2.24755,-8.64445 0,-5.18667 2.76622,-9.68178 l 35.78803,-61.20271 0.69155,-1.556 0.86445,-1.38311 q 0.51866,-1.03734 0.51866,-1.90178 0,-0.69156 -0.51866,-1.556 -1.03734,-1.72889 -3.28489,-1.72889 h -2.24756 -18.49912 v 1.21022 q 0,6.74267 -4.8409,11.41068 -4.668,4.49511 -11.41067,4.49511 -2.93911,0 -6.56978,-1.38311 -9.85468,-4.14934 -9.85468,-15.56001 z"
       id="text48"
       style="font-size:172.889px;font-family:MelodBold;-inkscape-font-specification:'MelodBold, Normal';text-align:center;white-space:pre;fill:#34a5ff;stroke:#000000;stroke-width:1.47349;stroke-linecap:round;stroke-linejoin:round"
       inkscape:label="7x"
       transform="matrix(1.0972258,0,0,1.1312987,-219.8133,-127.01968)"
       aria-label="7" />
    <path
       d="m 412.90735,289.23896 v -33.0218 q 0,-20.91957 13.83112,-34.5778 13.83112,-13.65823 35.44224,-13.65823 1.72889,0 3.28489,0 1.55601,0 6.22401,0.69156 4.84089,0.51866 11.0649,2.93911 10.892,4.32222 16.42445,10.54623 5.53245,6.224 5.53245,12.96667 0,3.28489 -1.21022,6.22401 -3.97645,10.20045 -14.34979,10.20045 -2.76623,0 -5.70534,-1.03733 l -2.93911,-1.38312 -0.51867,-0.34577 -5.18667,-4.14934 -3.112,-2.24756 q -2.76623,-1.556 -5.18667,-2.07467 -2.42045,-0.51866 -5.70534,-0.51866 l -3.112,0.69155 q -8.64445,2.24756 -9.68179,9.85468 v 1.72889 4.14933 l 1.03734,-0.69155 1.21022,-0.86445 q 6.74267,-4.14933 16.25157,-4.14933 6.74267,0 13.13956,2.24755 6.56979,2.07467 12.79379,6.74267 7.43423,5.53245 11.58356,14.34979 4.14934,8.64445 4.14934,18.8449 0,3.63067 -0.69156,7.9529 -0.69155,4.32222 -2.07466,7.95289 -5.18668,13.48534 -17.28891,21.61113 -11.92934,7.95289 -27.31646,7.95289 -6.224,0 -12.96667,-1.556 -15.90579,-3.80356 -25.41469,-16.59734 -9.50889,-12.79379 -9.50889,-30.77425 z m 44.43247,17.63468 q 1.03733,0.34578 3.112,0.34578 5.18667,0 8.64445,-3.63067 3.45778,-3.63067 3.45778,-9.33601 0,-3.97644 -2.59333,-7.08845 -2.59334,-3.112 -6.91556,-4.14933 -1.03734,-0.34578 -3.28489,-0.34578 -2.24756,0 -4.66801,1.03733 -7.26133,2.93912 -7.26133,11.58357 0,4.14933 2.59333,7.43423 2.76622,3.112 6.91556,4.14933 z"
       id="text50"
       style="font-size:172.889px;font-family:MelodBold;-inkscape-font-specification:'MelodBold, Normal';text-align:center;white-space:pre;fill:#34a5ff;stroke:#000000;stroke-width:1.47349;stroke-linecap:round;stroke-linejoin:round"
       inkscape:label="6x"
       transform="matrix(1.1311043,0,0,1.1311043,-237.16046,-126.9662)"
       aria-label="6" />
    <path
       d="m 458.98231,286.47274 h -25.76046 -2.07467 q -6.74267,-0.86445 -10.892,-5.18667 -3.97645,-4.49512 -3.97645,-10.89201 v -43.22225 q 0,-7.78001 4.32222,-12.10223 4.32223,-4.32223 12.27512,-4.32223 h 52.90404 l 2.07467,0.17289 q 7.26134,0 11.23778,3.80356 3.97645,3.80356 3.97645,10.37334 v 1.90178 11.41067 q 0,11.23779 -8.99023,15.21424 -3.63067,1.556 -7.60711,1.556 -6.22401,0 -11.0649,-3.45778 -4.84089,-3.45778 -4.84089,-7.78001 v -3.28489 h -19.36357 v 13.48534 h 10.89201 q 3.63067,0 5.35956,0.34578 17.98045,2.07467 28.35379,13.13957 10.54623,10.892 10.54623,27.14357 0,3.63067 -0.51866,7.26134 -2.42045,15.7329 -14.86846,25.93335 -12.27512,10.20045 -30.42846,10.20045 -17.11602,0 -30.60136,-7.78 -13.31245,-7.78001 -17.63468,-18.84491 -1.21022,-3.112 -1.21022,-6.74267 0,-6.224 3.80356,-10.54623 3.97644,-4.49511 10.37334,-5.35956 4.49511,-0.34577 7.95289,1.38312 3.45778,1.556 7.26134,6.224 3.80356,4.668 6.39689,6.56978 2.59334,1.72889 6.3969,2.59334 l 3.28489,0.51867 q 12.79378,0 12.79378,-9.68179 0,-0.69155 -0.51866,-3.28489 -0.51867,-2.59334 -3.112,-4.668 -2.59334,-2.07467 -6.74268,-2.07467 z"
       id="text51"
       style="font-size:172.889px;font-family:MelodBold;-inkscape-font-specification:'MelodBold, Normal';text-align:center;white-space:pre;fill:#34a5ff;stroke:#000000;stroke-width:1.47349;stroke-linecap:round;stroke-linejoin:round"
       inkscape:label="5x"
       transform="matrix(1.1311043,0,0,1.1311043,-233.76275,-126.9662)"
       aria-label="5" />
    <path
       d="m 411.52433,251.89494 16.77023,-33.88625 q 5.70534,-11.23778 16.25157,-11.23778 7.43423,0 12.10223,4.84089 4.668,4.84089 4.668,11.75645 0,3.28489 -1.556,6.74267 l -15.21423,31.81158 -0.34578,0.69156 -0.34578,1.21022 q 0,3.45778 3.11201,3.45778 h 0.86444 10.37334 v -13.65823 q 0,-6.22401 2.59334,-10.71912 2.59333,-4.668 6.74267,-6.56978 4.14933,-2.07467 8.47156,-2.07467 5.53245,0 10.02756,3.112 4.49512,3.112 5.87823,7.26134 1.38311,3.97645 1.38311,7.95289 v 14.69557 q 1.90178,-0.51867 3.45778,-0.51867 5.53245,0 9.68178,4.32223 4.14934,4.32222 4.14934,11.06489 0,14.69557 -17.11601,14.69557 l -0.17289,5.87823 h 1.21022 q 6.56978,0 10.89201,4.49511 4.32223,4.49511 4.32223,11.58356 0,7.43423 -4.66801,11.92934 -4.668,4.49512 -12.10223,4.49512 h -34.5778 q -7.26134,0 -11.92934,-4.49512 -4.668,-4.49511 -4.668,-11.75645 0,-6.74267 4.32222,-11.41067 4.49511,-4.84089 11.0649,-4.84089 l 1.21022,-0.17289 v -5.70534 h -17.63468 l -5.53245,-0.34578 q -12.62089,-1.72889 -20.05512,-9.85467 -7.43423,-8.12579 -7.43423,-19.36357 0,-7.78001 3.80356,-15.38712 z"
       id="text52"
       style="font-size:172.889px;font-family:MelodBold;-inkscape-font-specification:'MelodBold, Normal';text-align:center;white-space:pre;fill:#34a5ff;stroke:#000000;stroke-width:1.47349;stroke-linecap:round;stroke-linejoin:round"
       inkscape:label="4x"
       transform="matrix(1.1019343,0,0,1.1312717,-227.04975,-127.01158)"
       aria-label="4" />
    <path
       d="m 411.9565,243.42338 v -15.90579 q 0,-10.02757 8.29868,-14.86846 3.28489,-1.90178 8.29867,-1.90178 h 35.61513 l 7.26134,0.51867 q 23.34002,4.14934 29.04536,26.7978 1.21022,4.84089 1.21022,10.02756 0,12.44801 -8.12578,22.47557 l -1.90178,2.07467 2.24755,1.21022 q 13.31246,7.60712 13.31246,24.03157 0,5.18667 -1.556,10.02757 -1.38312,4.84089 -4.66801,10.20045 -5.87822,9.16311 -17.11601,14.69556 -11.0649,5.35956 -25.41468,5.35956 -3.80356,0 -7.9529,-0.51867 -8.47156,-1.03733 -15.21423,-3.63066 -6.56978,-2.76623 -11.23779,-6.91556 -2.24755,-1.90178 -4.49511,-4.66801 -2.24756,-2.76622 -3.28489,-4.49511 -2.93911,-4.84089 -2.93911,-10.37334 0,-6.05112 3.63067,-10.37334 3.80355,-4.49512 10.20045,-5.35956 0.86444,-0.17289 2.42044,-0.17289 5.01378,0 8.81734,2.76622 2.07467,1.556 3.45778,3.11201 0.51867,0.51866 2.93912,3.63066 3.97644,5.01379 12.27511,5.01379 2.07467,0 3.2849,-0.17289 10.20045,-1.21023 10.20045,-8.12579 0,-1.90178 -0.34578,-2.93911 -1.556,-4.32223 -6.74267,-5.35956 h -1.21022 -21.26535 q -2.76623,0 -4.84089,-0.69156 -6.3969,-1.90177 -9.33601,-7.43422 -1.72889,-3.28489 -1.72889,-6.56978 0,-4.49512 2.59333,-7.9529 2.59334,-3.45778 6.91556,-4.668 4.49512,-1.21023 9.5089,-1.21023 h 11.23778 q 7.43423,0 10.37335,-1.72889 3.112,-1.72889 3.97644,-5.87822 0.17289,-0.69156 0.17289,-2.07467 0,-8.12578 -10.54623,-8.12578 l -15.04134,-0.17289 v 1.38311 q 0,6.56978 -4.84089,10.89201 -4.8409,4.32222 -11.92935,4.32222 -6.56978,0 -11.06489,-4.668 -4.49512,-4.668 -4.49512,-11.58356 z"
       id="text54"
       style="font-size:172.889px;font-family:MelodBold;-inkscape-font-specification:'MelodBold, Normal';text-align:center;white-space:pre;fill:#34a5ff;stroke:#000000;stroke-width:1.47349;stroke-linecap:round;stroke-linejoin:round"
       inkscape:label="3x"
       transform="matrix(1.1311043,0,0,1.1311043,-233.83562,-126.9662)"
       aria-label="3" />
    <path
       d="m 415.06851,309.29409 45.98847,-52.55826 q 2.93912,-2.93911 2.93912,-6.91556 0,-4.32223 -2.59334,-7.08845 -2.42045,-2.93911 -6.74267,-2.93911 -0.69156,0 -2.42045,0.34577 -7.26134,1.55601 -7.26134,9.68179 0,2.93911 1.38312,8.47156 0.34577,0.86445 0.34577,2.76622 0,1.72889 -0.17288,2.76623 -1.21023,10.02756 -12.27512,12.44801 -2.07467,0.34578 -3.11201,0.34578 -7.95289,0 -13.65823,-7.26134 -6.224,-7.9529 -6.224,-20.74668 0,-2.76623 0.17289,-4.32223 1.21022,-13.31245 9.336,-22.47557 8.29868,-9.33601 22.1298,-12.6209 6.74267,-1.556 13.31245,-1.556 15.38712,0 27.14357,8.12578 11.75646,7.9529 15.21424,20.22802 1.556,5.53245 1.556,10.37334 0,11.0649 -8.99023,23.16713 l -1.72889,2.24755 -26.62491,32.33025 h 12.6209 l -0.17289,-2.93912 q 0,-5.18667 4.668,-9.16311 4.8409,-4.14934 11.41068,-4.14934 3.112,0 6.91556,1.38311 3.97645,1.21023 6.56978,5.01378 2.76623,3.63067 2.76623,8.29868 v 15.7329 l -0.17289,2.76622 q -2.07467,14.1769 -15.56001,14.1769 h -63.79605 l -4.84089,-0.51867 q -12.44801,-3.112 -12.44801,-14.1769 0,-3.45778 1.90178,-7.60711 0.69156,-1.90178 2.42045,-3.63067 z"
       id="text55"
       style="font-size:172.889px;font-family:MelodBold;-inkscape-font-specification:'MelodBold, Normal';text-align:center;white-space:pre;fill:#34a5ff;stroke:#000000;stroke-width:1.47349;stroke-linecap:round;stroke-linejoin:round"
       inkscape:label="2x"
       transform="matrix(1.1311043,0,0,1.1311043,-232.91332,-126.9662)"
       aria-label="2" />
    <path
       d="m 442.64426,210.74735 h 19.70934 q 8.99023,0 12.79379,3.11201 3.80356,3.112 4.668,10.892 v 2.42045 75.5525 h 1.21022 q 6.74268,0 11.0649,4.49511 4.32223,4.49511 4.32223,11.0649 0,3.45778 -1.21023,6.56978 -3.80355,10.37334 -15.21423,10.37334 h -34.75069 q -6.91556,0 -11.58356,-4.668 -4.66801,-4.66801 -4.66801,-11.75646 0,-6.224 4.14934,-10.54623 4.14934,-4.49511 10.71912,-5.35956 l 1.38311,-0.17288 v -59.99249 h -1.90178 q -8.47156,0 -13.31245,-4.32223 -4.84089,-4.32222 -4.84089,-11.58356 0,-7.08845 4.84089,-11.58356 4.84089,-4.49512 12.6209,-4.49512 z"
       id="text56"
       style="font-size:172.889px;font-family:MelodBold;-inkscape-font-specification:'MelodBold, Normal';text-align:center;white-space:pre;fill:#34a5ff;stroke:#000000;stroke-width:1.47349;stroke-linecap:round;stroke-linejoin:round"
       inkscape:label="1x"
       transform="matrix(1.1311043,0,0,1.1311043,-230.01319,-126.9662)"
       aria-label="1" />
    <path
       d="m 505.74874,257.08161 v 33.19469 q 0,20.91957 -13.83112,34.5778 -13.83112,13.65823 -35.26936,13.65823 -1.72889,0 -2.59333,0 -1.03733,0 -2.42045,-0.17289 -1.38311,-0.17289 -3.45778,-0.34578 -2.07466,-0.17289 -5.35956,-1.03733 -3.112,-0.69156 -6.74267,-2.07467 -10.71912,-4.32222 -16.42445,-9.85467 -5.70534,-5.70534 -5.70534,-11.23779 0,-1.556 0,-2.24756 0,-6.56978 3.80356,-11.06489 3.80356,-4.49512 10.02756,-5.35956 0.69156,-0.17289 2.42045,-0.17289 3.80355,0 8.12578,2.42045 l 5.70534,4.32222 q 3.63067,2.59334 6.91556,3.80356 3.28489,1.03733 6.91556,1.03733 l 3.112,-0.51866 q 5.01378,-1.38312 7.08845,-3.45778 2.07467,-2.07467 2.59333,-6.56979 l 0.17289,-1.556 v -3.97644 l -1.03733,0.69155 -1.38311,0.86445 q -6.74267,4.14933 -16.25157,4.14933 -6.74267,0 -13.13956,-2.07467 -6.3969,-2.24755 -12.44801,-6.74267 -7.78001,-5.87822 -11.92934,-14.69556 -4.14934,-8.81734 -4.14934,-18.49913 0,-7.78 2.42045,-14.86845 2.59333,-7.26134 7.95289,-13.83112 13.83112,-17.2889 37.34403,-17.2889 19.01779,0 31.81157,11.75645 12.96668,11.75645 15.38713,30.77424 z m -50.13781,6.74267 q 1.72889,0.34578 2.76622,0.34578 1.03734,0 2.76623,-0.34578 4.49511,-0.86445 7.08845,-3.97645 2.76622,-3.28489 2.76622,-7.78 0,-1.38312 -0.69155,-4.14934 -1.38312,-4.49511 -5.70534,-6.91556 -2.93911,-1.72889 -6.39689,-1.72889 -3.97645,0 -7.43423,2.76622 -3.28489,2.59334 -3.97645,5.87823 -0.69155,3.112 -0.51867,4.49511 0,9.16312 9.33601,11.41068 z"
       id="text57"
       style="font-size:172.889px;font-family:MelodBold;-inkscape-font-specification:'MelodBold, Normal';text-align:center;white-space:pre;fill:#34a5ff;stroke:#000000;stroke-width:1.47349;stroke-linecap:round;stroke-linejoin:round"
       inkscape:label="x9"
       transform="matrix(1.1311043,0,0,1.1311043,-117.88863,-126.9662)"
       aria-label="9" />
    <path
       d="m 424.92318,266.07184 -0.86445,-0.86445 -0.51866,-0.86444 q -5.01378,-6.3969 -5.01378,-16.25157 0,-7.43423 2.93911,-15.04134 8.29867,-20.91957 30.94713,-24.72313 3.63067,-0.51867 6.91556,-0.51867 3.28489,0 6.74267,0.51867 22.82135,3.80356 31.12002,24.72313 2.93912,7.60711 2.93912,15.21423 0,9.68178 -5.01378,16.07868 l -0.69156,0.86444 -0.86444,0.86445 1.21022,0.86444 1.21022,0.86445 q 3.97645,3.28489 6.74267,7.95289 5.01378,7.78001 5.01378,17.98046 0,13.13956 -8.12578,24.55024 -8.64445,12.10223 -23.16713,17.11601 l -8.12578,2.07467 q -3.97645,0.69155 -8.99023,0.69155 -9.50889,0 -17.2889,-2.76622 -14.34979,-5.01378 -22.82135,-16.77024 -8.29867,-11.75645 -8.29867,-25.0689 0,-10.02756 5.01378,-17.80757 2.76623,-4.668 6.74267,-7.95289 l 1.03734,-0.86445 z m 26.27913,-18.15335 q 1.03733,4.84089 5.53245,6.224 2.07467,0.86445 3.97644,0.34578 5.35956,-0.86444 6.74268,-6.56978 0.34577,-1.72889 0.34577,-2.42045 0,-2.93911 -2.07466,-5.53244 -2.59334,-3.11201 -6.3969,-3.11201 -3.45778,0 -6.39689,3.11201 -2.07467,2.59333 -2.07467,5.87822 z m -3.80356,48.92759 q 1.72889,9.68178 11.92934,9.68178 5.35956,0 8.64445,-3.45778 3.28489,-3.45778 3.28489,-8.47156 0,-1.556 -0.34577,-3.28489 -0.34578,-1.72889 -1.55601,-3.63067 -3.80355,-5.35956 -10.02756,-5.35956 -4.49511,0 -7.78,2.76623 -3.11201,2.59333 -3.97645,7.26133 l -0.34578,2.24756 z"
       id="text58"
       style="font-size:172.889px;font-family:MelodBold;-inkscape-font-specification:'MelodBold, Normal';text-align:center;white-space:pre;fill:#34a5ff;stroke:#000000;stroke-width:1.47349;stroke-linecap:round;stroke-linejoin:round"
       inkscape:label="x8"
       transform="matrix(1.1311043,0,0,1.1311043,-119.37513,-126.9662)"
       aria-label="8" />
    <path
       d="m 409.96823,243.25049 v -16.25157 q 0,-7.60712 4.32223,-11.92934 4.32222,-4.32223 12.10223,-4.32223 h 54.9787 l 6.05112,0.17289 q 10.02756,0.86445 16.42445,7.9529 6.3969,7.08845 6.3969,17.11601 0,4.49511 -1.556,9.16312 l -2.42045,5.53244 -0.69156,1.03734 -1.72889,3.112 -42.18491,72.95916 q -6.74268,11.58356 -16.94313,11.58356 -4.49511,0 -8.99022,-2.42044 -4.49512,-2.42045 -6.91557,-6.22401 -2.24755,-3.80355 -2.24755,-8.64445 0,-5.18667 2.76622,-9.68178 l 35.78803,-61.20271 0.69155,-1.556 0.86445,-1.38311 q 0.51866,-1.03734 0.51866,-1.90178 0,-0.69156 -0.51866,-1.556 -1.03734,-1.72889 -3.28489,-1.72889 h -2.24756 -18.49912 v 1.21022 q 0,6.74267 -4.8409,11.41068 -4.668,4.49511 -11.41067,4.49511 -2.93911,0 -6.56978,-1.38311 -9.85468,-4.14934 -9.85468,-15.56001 z"
       id="text59"
       style="font-size:172.889px;font-family:MelodBold;-inkscape-font-specification:'MelodBold, Normal';text-align:center;white-space:pre;fill:#34a5ff;stroke:#000000;stroke-width:1.47349;stroke-linecap:round;stroke-linejoin:round"
       inkscape:label="x7"
       transform="matrix(1.0972258,0,0,1.1312987,-107.30045,-127.01968)"
       aria-label="7" />
    <path
       d="m 412.90735,289.23896 v -33.0218 q 0,-20.91957 13.83112,-34.5778 13.83112,-13.65823 35.44224,-13.65823 1.72889,0 3.28489,0 1.55601,0 6.22401,0.69156 4.84089,0.51866 11.0649,2.93911 10.892,4.32222 16.42445,10.54623 5.53245,6.224 5.53245,12.96667 0,3.28489 -1.21022,6.22401 -3.97645,10.20045 -14.34979,10.20045 -2.76623,0 -5.70534,-1.03733 l -2.93911,-1.38312 -0.51867,-0.34577 -5.18667,-4.14934 -3.112,-2.24756 q -2.76623,-1.556 -5.18667,-2.07467 -2.42045,-0.51866 -5.70534,-0.51866 l -3.112,0.69155 q -8.64445,2.24756 -9.68179,9.85468 v 1.72889 4.14933 l 1.03734,-0.69155 1.21022,-0.86445 q 6.74267,-4.14933 16.25157,-4.14933 6.74267,0 13.13956,2.24755 6.56979,2.07467 12.79379,6.74267 7.43423,5.53245 11.58356,14.34979 4.14934,8.64445 4.14934,18.8449 0,3.63067 -0.69156,7.9529 -0.69155,4.32222 -2.07466,7.95289 -5.18668,13.48534 -17.28891,21.61113 -11.92934,7.95289 -27.31646,7.95289 -6.224,0 -12.96667,-1.556 -15.90579,-3.80356 -25.41469,-16.59734 -9.50889,-12.79379 -9.50889,-30.77425 z m 44.43247,17.63468 q 1.03733,0.34578 3.112,0.34578 5.18667,0 8.64445,-3.63067 3.45778,-3.63067 3.45778,-9.33601 0,-3.97644 -2.59333,-7.08845 -2.59334,-3.112 -6.91556,-4.14933 -1.03734,-0.34578 -3.28489,-0.34578 -2.24756,0 -4.66801,1.03733 -7.26133,2.93912 -7.26133,11.58357 0,4.14933 2.59333,7.43423 2.76622,3.112 6.91556,4.14933 z"
       id="text60"
       style="font-size:172.889px;font-family:MelodBold;-inkscape-font-specification:'MelodBold, Normal';text-align:center;white-space:pre;fill:#34a5ff;stroke:#000000;stroke-width:1.47349;stroke-linecap:round;stroke-linejoin:round"
       inkscape:label="x6"
       transform="matrix(1.1311043,0,0,1.1311043,-120.5764,-126.9662)"
       aria-label="6" />
    <path
       d="m 458.98231,286.47274 h -25.76046 -2.07467 q -6.74267,-0.86445 -10.892,-5.18667 -3.97645,-4.49512 -3.97645,-10.89201 v -43.22225 q 0,-7.78001 4.32222,-12.10223 4.32223,-4.32223 12.27512,-4.32223 h 52.90404 l 2.07467,0.17289 q 7.26134,0 11.23778,3.80356 3.97645,3.80356 3.97645,10.37334 v 1.90178 11.41067 q 0,11.23779 -8.99023,15.21424 -3.63067,1.556 -7.60711,1.556 -6.22401,0 -11.0649,-3.45778 -4.84089,-3.45778 -4.84089,-7.78001 v -3.28489 h -19.36357 v 13.48534 h 10.89201 q 3.63067,0 5.35956,0.34578 17.98045,2.07467 28.35379,13.13957 10.54623,10.892 10.54623,27.14357 0,3.63067 -0.51866,7.26134 -2.42045,15.7329 -14.86846,25.93335 -12.27512,10.20045 -30.42846,10.20045 -17.11602,0 -30.60136,-7.78 -13.31245,-7.78001 -17.63468,-18.84491 -1.21022,-3.112 -1.21022,-6.74267 0,-6.224 3.80356,-10.54623 3.97644,-4.49511 10.37334,-5.35956 4.49511,-0.34577 7.95289,1.38312 3.45778,1.556 7.26134,6.224 3.80356,4.668 6.39689,6.56978 2.59334,1.72889 6.3969,2.59334 l 3.28489,0.51867 q 12.79378,0 12.79378,-9.68179 0,-0.69155 -0.51866,-3.28489 -0.51867,-2.59334 -3.112,-4.668 -2.59334,-2.07467 -6.74268,-2.07467 z"
       id="text61"
       style="font-size:172.889px;font-family:MelodBold;-inkscape-font-specification:'MelodBold, Normal';text-align:center;white-space:pre;fill:#34a5ff;stroke:#000000;stroke-width:1.47349;stroke-linecap:round;stroke-linejoin:round"
       inkscape:label="x5"
       transform="matrix(1.1311043,0,0,1.1311043,-120.5764,-126.9662)"
       aria-label="5" />
    <path
       d="m 411.52433,251.89494 16.77023,-33.88625 q 5.70534,-11.23778 16.25157,-11.23778 7.43423,0 12.10223,4.84089 4.668,4.84089 4.668,11.75645 0,3.28489 -1.556,6.74267 l -15.21423,31.81158 -0.34578,0.69156 -0.34578,1.21022 q 0,3.45778 3.11201,3.45778 h 0.86444 10.37334 v -13.65823 q 0,-6.22401 2.59334,-10.71912 2.59333,-4.668 6.74267,-6.56978 4.14933,-2.07467 8.47156,-2.07467 5.53245,0 10.02756,3.112 4.49512,3.112 5.87823,7.26134 1.38311,3.97645 1.38311,7.95289 v 14.69557 q 1.90178,-0.51867 3.45778,-0.51867 5.53245,0 9.68178,4.32223 4.14934,4.32222 4.14934,11.06489 0,14.69557 -17.11601,14.69557 l -0.17289,5.87823 h 1.21022 q 6.56978,0 10.89201,4.49511 4.32223,4.49511 4.32223,11.58356 0,7.43423 -4.66801,11.92934 -4.668,4.49512 -12.10223,4.49512 h -34.5778 q -7.26134,0 -11.92934,-4.49512 -4.668,-4.49511 -4.668,-11.75645 0,-6.74267 4.32222,-11.41067 4.49511,-4.84089 11.0649,-4.84089 l 1.21022,-0.17289 v -5.70534 h -17.63468 l -5.53245,-0.34578 q -12.62089,-1.72889 -20.05512,-9.85467 -7.43423,-8.12579 -7.43423,-19.36357 0,-7.78001 3.80356,-15.38712 z"
       id="text62"
       style="font-size:172.889px;font-family:MelodBold;-inkscape-font-specification:'MelodBold, Normal';text-align:center;white-space:pre;fill:#34a5ff;stroke:#000000;stroke-width:1.47349;stroke-linecap:round;stroke-linejoin:round"
       inkscape:label="x4"
       transform="matrix(1.1021499,0,0,1.1312705,-111.18431,-127.01124)"
       aria-label="4" />
    <path
       d="m 411.9565,243.42338 v -15.90579 q 0,-10.02757 8.29868,-14.86846 3.28489,-1.90178 8.29867,-1.90178 h 35.61513 l 7.26134,0.51867 q 23.34002,4.14934 29.04536,26.7978 1.21022,4.84089 1.21022,10.02756 0,12.44801 -8.12578,22.47557 l -1.90178,2.07467 2.24755,1.21022 q 13.31246,7.60712 13.31246,24.03157 0,5.18667 -1.556,10.02757 -1.38312,4.84089 -4.66801,10.20045 -5.87822,9.16311 -17.11601,14.69556 -11.0649,5.35956 -25.41468,5.35956 -3.80356,0 -7.9529,-0.51867 -8.47156,-1.03733 -15.21423,-3.63066 -6.56978,-2.76623 -11.23779,-6.91556 -2.24755,-1.90178 -4.49511,-4.66801 -2.24756,-2.76622 -3.28489,-4.49511 -2.93911,-4.84089 -2.93911,-10.37334 0,-6.05112 3.63067,-10.37334 3.80355,-4.49512 10.20045,-5.35956 0.86444,-0.17289 2.42044,-0.17289 5.01378,0 8.81734,2.76622 2.07467,1.556 3.45778,3.11201 0.51867,0.51866 2.93912,3.63066 3.97644,5.01379 12.27511,5.01379 2.07467,0 3.2849,-0.17289 10.20045,-1.21023 10.20045,-8.12579 0,-1.90178 -0.34578,-2.93911 -1.556,-4.32223 -6.74267,-5.35956 h -1.21022 -21.26535 q -2.76623,0 -4.84089,-0.69156 -6.3969,-1.90177 -9.33601,-7.43422 -1.72889,-3.28489 -1.72889,-6.56978 0,-4.49512 2.59333,-7.9529 2.59334,-3.45778 6.91556,-4.668 4.49512,-1.21023 9.5089,-1.21023 h 11.23778 q 7.43423,0 10.37335,-1.72889 3.112,-1.72889 3.97644,-5.87822 0.17289,-0.69156 0.17289,-2.07467 0,-8.12578 -10.54623,-8.12578 l -15.04134,-0.17289 v 1.38311 q 0,6.56978 -4.84089,10.89201 -4.8409,4.32222 -11.92935,4.32222 -6.56978,0 -11.06489,-4.668 -4.49512,-4.668 -4.49512,-11.58356 z"
       id="text63"
       style="font-size:172.889px;font-family:MelodBold;-inkscape-font-specification:'MelodBold, Normal';text-align:center;white-space:pre;fill:#34a5ff;stroke:#000000;stroke-width:1.47349;stroke-linecap:round;stroke-linejoin:round"
       inkscape:label="x3"
       transform="matrix(1.1021499,0,0,1.1312705,-108.18113,-127.01124)"
       aria-label="3" />
    <path
       d="m 415.06851,309.29409 45.98847,-52.55826 q 2.93912,-2.93911 2.93912,-6.91556 0,-4.32223 -2.59334,-7.08845 -2.42045,-2.93911 -6.74267,-2.93911 -0.69156,0 -2.42045,0.34577 -7.26134,1.55601 -7.26134,9.68179 0,2.93911 1.38312,8.47156 0.34577,0.86445 0.34577,2.76622 0,1.72889 -0.17288,2.76623 -1.21023,10.02756 -12.27512,12.44801 -2.07467,0.34578 -3.11201,0.34578 -7.95289,0 -13.65823,-7.26134 -6.224,-7.9529 -6.224,-20.74668 0,-2.76623 0.17289,-4.32223 1.21022,-13.31245 9.336,-22.47557 8.29868,-9.33601 22.1298,-12.6209 6.74267,-1.556 13.31245,-1.556 15.38712,0 27.14357,8.12578 11.75646,7.9529 15.21424,20.22802 1.556,5.53245 1.556,10.37334 0,11.0649 -8.99023,23.16713 l -1.72889,2.24755 -26.62491,32.33025 h 12.6209 l -0.17289,-2.93912 q 0,-5.18667 4.668,-9.16311 4.8409,-4.14934 11.41068,-4.14934 3.112,0 6.91556,1.38311 3.97645,1.21023 6.56978,5.01378 2.76623,3.63067 2.76623,8.29868 v 15.7329 l -0.17289,2.76622 q -2.07467,14.1769 -15.56001,14.1769 h -63.79605 l -4.84089,-0.51867 q -12.44801,-3.112 -12.44801,-14.1769 0,-3.45778 1.90178,-7.60711 0.69156,-1.90178 2.42045,-3.63067 z"
       id="text64"
       style="font-size:172.889px;font-family:MelodBold;-inkscape-font-specification:'MelodBold, Normal';text-align:center;white-space:pre;fill:#34a5ff;stroke:#000000;stroke-width:1.47349;stroke-linecap:round;stroke-linejoin:round"
       inkscape:label="x2"
       transform="matrix(1.1311043,0,0,1.1311043,-121.77768,-126.9662)"
       aria-label="2" />
    <path
       d="m 442.64426,210.74735 h 19.70934 q 8.99023,0 12.79379,3.11201 3.80356,3.112 4.668,10.892 v 2.42045 75.5525 h 1.21022 q 6.74268,0 11.0649,4.49511 4.32223,4.49511 4.32223,11.0649 0,3.45778 -1.21023,6.56978 -3.80355,10.37334 -15.21423,10.37334 h -34.75069 q -6.91556,0 -11.58356,-4.668 -4.66801,-4.66801 -4.66801,-11.75646 0,-6.224 4.14934,-10.54623 4.14934,-4.49511 10.71912,-5.35956 l 1.38311,-0.17288 v -59.99249 h -1.90178 q -8.47156,0 -13.31245,-4.32223 -4.84089,-4.32222 -4.84089,-11.58356 0,-7.08845 4.84089,-11.58356 4.84089,-4.49512 12.6209,-4.49512 z"
       id="text65"
       style="font-size:172.889px;font-family:MelodBold;-inkscape-font-specification:'MelodBold, Normal';text-align:center;white-space:pre;fill:#34a5ff;stroke:#000000;stroke-width:1.47349;stroke-linecap:round;stroke-linejoin:round"
       inkscape:label="x1"
       transform="matrix(1.1311043,0,0,1.1311043,-123.57959,-126.9662)"
       aria-label="1" />
    <path
       d="m 411.69712,292.35096 0.34578,-38.90002 q 0,-19.53646 13.31245,-32.67602 13.31246,-13.13957 34.23203,-13.13957 20.74668,0 34.05913,13.13957 13.31246,13.13956 13.31246,32.67602 v 38.90002 q 0,17.63468 -10.89201,30.25558 -10.89201,12.44801 -29.21824,15.21423 -3.63067,0.51867 -7.26134,0.51867 -3.45778,0 -7.08845,-0.51867 -10.37334,-1.38311 -18.49913,-6.05111 -7.95289,-4.84089 -13.48534,-12.6209 -8.81734,-12.27512 -8.81734,-26.7978 z m 49.61915,14.34979 q 5.35956,-0.86444 8.12578,-4.84089 2.93911,-4.14934 2.93911,-11.58356 v -34.75069 q 0,-14.34979 -11.06489,-16.25157 h -3.45778 q -5.70534,0.86444 -8.47156,4.668 -2.76623,3.80356 -2.76623,11.58357 v 34.75069 q 0,7.95289 3.28489,12.27512 3.45778,4.32222 9.16312,4.32222 1.556,0 2.24756,-0.17289 z"
       id="text66"
       style="font-size:172.889px;font-family:MelodBold;-inkscape-font-specification:'MelodBold, Normal';text-align:center;white-space:pre;fill:#34a5ff;stroke:#000000;stroke-width:1.47349;stroke-linecap:round;stroke-linejoin:round"
       inkscape:label="x0"
       transform="matrix(1.1311043,0,0,1.1311043,-119.37513,-126.9662)"
       aria-label="0" />
    <path
       d="m 512.07889,267.46632 v 37.72128 q 0,23.77226 -15.7172,39.293 -15.7172,15.52073 -40.07886,15.52073 -1.96465,0 -2.94698,0 -1.17879,0 -2.75051,-0.19646 -1.57172,-0.19647 -3.9293,-0.39293 -2.35758,-0.19647 -6.09041,-1.17879 -3.53637,-0.78586 -7.66214,-2.35758 -12.18083,-4.91163 -18.66417,-11.19851 -6.48335,-6.48334 -6.48335,-12.77022 0,-1.76819 0,-2.55405 0,-7.46566 4.32223,-12.57375 4.32223,-5.10809 11.39497,-6.09042 0.78586,-0.19646 2.75051,-0.19646 4.32223,0 9.23386,2.75051 l 6.48334,4.91162 q 4.12577,2.94698 7.8586,4.32223 3.73284,1.17879 7.8586,1.17879 l 3.53637,-0.58939 q 5.69749,-1.57172 8.05507,-3.9293 2.35758,-2.35758 2.94697,-7.46567 l 0.19647,-1.76819 v -4.51869 l -1.17879,0.78586 -1.57172,0.98232 q -7.66214,4.71516 -18.46771,4.71516 -7.66214,0 -14.93134,-2.35758 -7.26921,-2.55404 -14.14548,-7.66213 -8.84093,-6.67981 -13.55609,-16.69953 -4.71516,-10.01971 -4.71516,-21.02175 0,-8.84093 2.75051,-16.89599 2.94698,-8.25153 9.03739,-15.7172 15.7172,-19.6465 42.43644,-19.6465 21.61115,0 36.14956,13.35962 14.73488,13.35962 17.48539,34.97077 z m -56.97485,7.66214 q 1.96465,0.39293 3.14344,0.39293 1.17879,0 3.14344,-0.39293 5.10809,-0.98233 8.05506,-4.5187 3.14344,-3.73283 3.14344,-8.84092 0,-1.57172 -0.78586,-4.71516 -1.57172,-5.10809 -6.48334,-7.8586 -3.33991,-1.96465 -7.26921,-1.96465 -4.51869,0 -8.44799,3.14344 -3.73284,2.94697 -4.5187,6.67981 -0.78586,3.53637 -0.58939,5.10809 0,10.41264 10.60911,12.96669 z"
       id="text67"
       style="font-size:196.465px;font-family:MelodBold;-inkscape-font-specification:'MelodBold, Normal';text-align:center;white-space:pre;fill:#34a5ff;stroke:#000000;stroke-width:1.76818;stroke-linecap:round;stroke-linejoin:round"
       inkscape:label="d9"
       transform="matrix(1.1311043,0,0,1.1311043,-177.71805,-141.41464)"
       aria-label="9" />
    <path
       d="m 420.23155,277.6825 -0.98232,-0.98232 -0.5894,-0.98233 q -5.69748,-7.2692 -5.69748,-18.46771 0,-8.44799 3.3399,-17.09245 9.43032,-23.77227 35.16724,-28.0945 4.12576,-0.58939 7.8586,-0.58939 3.73283,0 7.66213,0.58939 25.93338,4.32223 35.3637,28.0945 3.33991,8.64446 3.33991,17.28892 0,11.00204 -5.69749,18.27124 l -0.78586,0.98233 -0.98232,0.98232 1.37525,0.98233 1.37526,0.98232 q 4.51869,3.73284 7.66213,9.03739 5.69749,8.84093 5.69749,20.43236 0,14.93134 -9.23386,27.89803 -9.82325,13.75255 -26.32631,19.45003 l -9.23385,2.35758 q -4.5187,0.78586 -10.21618,0.78586 -10.80558,0 -19.6465,-3.14344 -16.3066,-5.69748 -25.93338,-19.0571 -9.43032,-13.35962 -9.43032,-28.48742 0,-11.39497 5.69748,-20.2359 3.14344,-5.30455 7.66214,-9.03739 l 1.17879,-0.98232 z m 29.86268,-20.62882 q 1.17879,5.50102 6.28688,7.07274 2.35758,0.98232 4.5187,0.39293 6.09041,-0.98233 7.66213,-7.46567 0.39293,-1.96465 0.39293,-2.75051 0,-3.33991 -2.35758,-6.28688 -2.94697,-3.53637 -7.2692,-3.53637 -3.9293,0 -7.26921,3.53637 -2.35758,2.94697 -2.35758,6.67981 z m -4.32223,55.59959 q 1.96465,11.00204 13.55609,11.00204 6.09041,0 9.82325,-3.9293 3.73283,-3.9293 3.73283,-9.62678 0,-1.76819 -0.39293,-3.73284 -0.39293,-1.96465 -1.76818,-4.12576 -4.32223,-6.09042 -11.39497,-6.09042 -5.10809,0 -8.84093,3.14344 -3.53637,2.94698 -4.51869,8.25153 l -0.39293,2.55405 z"
       id="text68"
       style="font-size:196.465px;font-family:MelodBold;-inkscape-font-specification:'MelodBold, Normal';text-align:center;white-space:pre;fill:#34a5ff;stroke:#000000;stroke-width:1.76818;stroke-linecap:round;stroke-linejoin:round"
       inkscape:label="d8"
       transform="matrix(1.1311043,0,0,1.1311043,-177.71805,-141.41464)"
       aria-label="8" />
    <path
       d="m 403.23728,251.74912 v -18.46771 q 0,-8.64446 4.91162,-13.55608 4.91163,-4.91163 13.75255,-4.91163 h 62.47587 l 6.87628,0.19647 q 11.39497,0.98232 18.66417,9.03739 7.2692,8.05506 7.2692,19.45003 0,5.10809 -1.76818,10.41265 l -2.75051,6.28688 -0.78586,1.17879 -1.96465,3.53637 -47.93746,82.90822 q -7.66213,13.16316 -19.25357,13.16316 -5.10809,0 -10.21618,-2.75051 -5.10809,-2.75051 -7.8586,-7.07274 -2.55404,-4.32223 -2.55404,-9.82325 0,-5.89395 3.14344,-11.00204 l 40.66825,-69.54861 0.78586,-1.76818 0.98233,-1.57172 q 0.58939,-1.17879 0.58939,-2.16112 0,-0.78586 -0.58939,-1.76818 -1.17879,-1.96465 -3.73284,-1.96465 h -2.55404 -21.02176 v 1.37525 q 0,7.66214 -5.50102,12.96669 -5.30455,5.10809 -12.96669,5.10809 -3.3399,0 -7.46567,-1.57172 -11.1985,-4.71516 -11.1985,-17.68185 z"
       id="text69"
       style="font-size:196.465px;font-family:MelodBold;-inkscape-font-specification:'MelodBold, Normal';text-align:center;white-space:pre;fill:#34a5ff;stroke:#000000;stroke-width:1.76818;stroke-linecap:round;stroke-linejoin:round"
       inkscape:label="d7"
       transform="matrix(1.1311043,0,0,1.1311043,-177.71805,-141.41464)"
       aria-label="7" />
    <path
       d="M 406.57718,304.00881 V 266.484 q 0,-23.77227 15.7172,-39.293 15.7172,-15.52074 40.27533,-15.52074 1.96465,0 3.73283,0 1.76819,0 7.07274,0.78586 5.50102,0.5894 12.57376,3.33991 12.3773,4.91162 18.66418,11.98436 6.28688,7.07274 6.28688,14.73488 0,3.73283 -1.37526,7.07274 -4.51869,11.59143 -16.30659,11.59143 -3.14344,0 -6.48335,-1.17879 l -3.3399,-1.57172 -0.5894,-0.39293 -5.89395,-4.71516 -3.53637,-2.55404 q -3.14344,-1.76819 -5.89395,-2.35758 -2.75051,-0.5894 -6.48334,-0.5894 l -3.53637,0.78586 q -9.82325,2.55405 -11.00204,11.19851 v 1.96465 4.71516 l 1.17879,-0.78586 1.37525,-0.98233 q 7.66214,-4.71516 18.46771,-4.71516 7.66214,0 14.93134,2.55405 7.46567,2.35758 14.53841,7.66213 8.448,6.28688 13.16316,16.3066 4.71516,9.82325 4.71516,21.41468 0,4.12577 -0.78586,9.03739 -0.78586,4.91163 -2.35758,9.03739 -5.89395,15.32427 -19.6465,24.55812 -13.55609,9.03739 -31.04147,9.03739 -7.07274,0 -14.73488,-1.76818 -18.07478,-4.32223 -28.88035,-18.86064 -10.80558,-14.53841 -10.80558,-34.97077 z m 50.49151,20.03943 q 1.17879,0.39293 3.53637,0.39293 5.89395,0 9.82325,-4.12576 3.9293,-4.12577 3.9293,-10.60911 0,-4.5187 -2.94698,-8.05507 -2.94697,-3.53637 -7.8586,-4.71516 -1.17879,-0.39293 -3.73283,-0.39293 -2.55405,0 -5.30456,1.17879 -8.25153,3.33991 -8.25153,13.16316 0,4.71516 2.94698,8.44799 3.14344,3.53637 7.8586,4.71516 z"
       id="text70"
       style="font-size:196.465px;font-family:MelodBold;-inkscape-font-specification:'MelodBold, Normal';text-align:center;white-space:pre;fill:#34a5ff;stroke:#000000;stroke-width:1.76818;stroke-linecap:round;stroke-linejoin:round"
       inkscape:label="d6"
       transform="matrix(1.1311043,0,0,1.1311043,-177.71805,-141.41464)"
       aria-label="6" />
    <path
       d="m 458.92337,304.46353 h -30.15149 -2.42831 q -7.892,-1.0118 -12.74862,-6.07077 -4.65425,-5.26134 -4.65425,-12.74862 v -50.58975 q 0,-9.10615 5.05897,-14.16513 5.05898,-5.05897 14.36749,-5.05897 h 61.92185 l 2.42831,0.20236 q 8.49908,0 13.15333,4.4519 4.65426,4.45189 4.65426,12.14154 v 2.22594 13.3557 q 0,13.15333 -10.52267,17.80759 -4.24953,1.82123 -8.90379,1.82123 -7.28493,0 -12.95098,-4.04718 -5.66605,-4.04718 -5.66605,-9.10615 v -3.84482 h -22.66421 v 15.784 h 12.74862 q 4.24954,0 6.27313,0.40471 21.04533,2.42831 33.18687,15.37929 12.3439,12.74861 12.3439,31.77036 0,4.24954 -0.60707,8.49908 -2.83303,18.41467 -17.40288,30.35385 -14.36749,11.93918 -35.61518,11.93918 -20.03354,0 -35.81754,-9.10616 -15.58164,-9.10615 -20.64062,-22.05713 -1.41651,-3.64246 -1.41651,-7.892 0,-7.28492 4.4519,-12.3439 4.65425,-5.26133 12.14153,-6.27313 5.26134,-0.40471 9.30852,1.61888 4.04718,1.82123 8.49908,7.28492 4.45189,5.46369 7.48728,7.68964 3.03538,2.02359 7.48728,3.03539 l 3.84482,0.60707 q 14.97457,0 14.97457,-11.3321 0,-0.80944 -0.60708,-3.84482 -0.60708,-3.03539 -3.64246,-5.46369 -3.03539,-2.42831 -7.892,-2.42831 z"
       id="text71"
       style="font-size:202.359px;font-family:MelodBold;-inkscape-font-specification:'MelodBold, Normal';text-align:center;white-space:pre;fill:#34a5ff;stroke:#000000;stroke-width:1.91553;stroke-linecap:round;stroke-linejoin:round"
       inkscape:label="d5"
       transform="matrix(1.1311043,0,0,1.1311043,-178.47256,-146.46564)"
       aria-label="5" />
    <path
       d="m 401.74619,266.41109 20.20054,-40.81758 q 6.87235,-13.53645 19.57578,-13.53645 8.95488,0 14.57771,5.83108 5.62283,5.83109 5.62283,14.16121 0,3.95681 -1.87428,8.12187 l -18.32626,38.31855 -0.41651,0.83301 -0.4165,1.45777 q 0,4.16506 3.74855,4.16506 h 1.04127 12.49518 v -16.45199 q 0,-7.4971 3.12379,-12.91168 3.1238,-5.62283 8.12187,-7.91362 4.99807,-2.49903 10.2044,-2.49903 6.66409,0 12.07867,3.74855 5.41458,3.74856 7.0806,8.74663 1.66603,4.78982 1.66603,9.57964 v 17.7015 q 2.29078,-0.62476 4.16506,-0.62476 6.66409,0 11.66217,5.20633 4.99807,5.20632 4.99807,13.32819 0,17.70151 -20.61705,17.70151 l -0.20825,7.0806 h 1.45777 q 7.91361,0 13.11994,5.41458 5.20632,5.41457 5.20632,13.95295 0,8.95488 -5.62283,14.36946 -5.62283,5.41457 -14.57771,5.41457 h -41.6506 q -8.74663,0 -14.36946,-5.41457 -5.62283,-5.41458 -5.62283,-14.16121 0,-8.12187 5.20633,-13.7447 5.41458,-5.83108 13.32819,-5.83108 l 1.45777,-0.20825 v -6.87235 h -21.24181 l -6.66409,-0.41651 q -15.20247,-2.08253 -24.15735,-11.87042 -8.95488,-9.78789 -8.95488,-23.32434 0,-9.37138 4.58157,-18.53452 z"
       id="text72"
       style="font-size:208.253px;font-family:MelodBold;-inkscape-font-specification:'MelodBold, Normal';text-align:center;white-space:pre;fill:#34a5ff;stroke:#000000;stroke-width:1.91553;stroke-linecap:round;stroke-linejoin:round"
       inkscape:label="d4"
       transform="matrix(1.1311043,0,0,1.1311043,-182.04136,-148.36427)"
       aria-label="4" />
    <path
       d="m 400.65181,258.33725 v -19.70152 q 0,-12.42053 10.27905,-18.41665 4.06879,-2.35561 10.27906,-2.35561 h 44.11428 l 8.99417,0.64244 q 28.90985,5.13953 35.9767,33.19278 1.49903,5.99612 1.49903,12.42053 0,15.41858 -10.06491,27.83911 l -2.35562,2.56976 2.78391,1.49903 q 16.48932,9.42247 16.48932,29.76644 0,6.42441 -1.92732,12.42052 -1.71318,5.99612 -5.78197,12.63468 -7.281,11.34979 -21.20055,18.20249 -13.70541,6.63856 -31.47961,6.63856 -4.71123,0 -9.85076,-0.64244 -10.49321,-1.28489 -18.84494,-4.49709 -8.13759,-3.42635 -13.91955,-8.56588 -2.78392,-2.35562 -5.56783,-5.78197 -2.78391,-3.42635 -4.06879,-5.56782 -3.6405,-5.99612 -3.6405,-12.84882 0,-7.49515 4.49709,-12.84882 4.71123,-5.56782 12.63467,-6.63856 1.07074,-0.21415 2.99806,-0.21415 6.21026,0 10.9215,3.42636 2.56976,1.92732 4.28294,3.85464 0.64244,0.64244 3.6405,4.49709 4.92538,6.21026 15.20443,6.21026 2.56977,0 4.0688,-0.21414 12.63467,-1.49903 12.63467,-10.06491 0,-2.35562 -0.42829,-3.6405 -1.92733,-5.35368 -8.35174,-6.63856 h -1.49903 -26.34008 q -3.42635,0 -5.99611,-0.85659 -7.92344,-2.35562 -11.56394,-9.20832 -2.14147,-4.06879 -2.14147,-8.13759 0,-5.56782 3.2122,-9.85076 3.21221,-4.28294 8.56588,-5.78197 5.56782,-1.49903 11.77809,-1.49903 h 13.91955 q 9.20832,0 12.84882,-2.14147 3.85465,-2.14147 4.92538,-7.28099 0.21415,-0.85659 0.21415,-2.56977 0,-10.06491 -13.06297,-10.06491 l -18.63079,-0.21414 v 1.71317 q 0,8.13759 -5.99611,13.49126 -5.99612,5.35368 -14.77614,5.35368 -8.13759,0 -13.70541,-5.78197 -5.56782,-5.78197 -5.56782,-14.34785 z"
       id="text73"
       style="font-size:214.147px;font-family:MelodBold;-inkscape-font-specification:'MelodBold, Normal';text-align:center;white-space:pre;fill:#34a5ff;stroke:#000000;stroke-width:2.06288;stroke-linecap:round;stroke-linejoin:round"
       inkscape:label="d3"
       transform="matrix(1.1311043,0,0,1.1311043,-177.83509,-153.67876)"
       aria-label="3" />
    <path
       d="m 402.99759,344.30342 58.5309,-66.89246 q 3.7407,-3.7407 3.7407,-8.80164 0,-5.50103 -3.30061,-9.02168 -3.08058,-3.7407 -8.5816,-3.7407 -0.88017,0 -3.08058,0.44008 -9.24172,1.98037 -9.24172,12.3223 0,3.7407 1.76033,10.78201 0.44008,1.1002 0.44008,3.52065 0,2.20041 -0.22004,3.52066 -1.54029,12.76238 -15.62291,15.84295 -2.64049,0.44008 -3.96074,0.44008 -10.12189,0 -17.38324,-9.24172 -7.92148,-10.12188 -7.92148,-26.40492 0,-3.52065 0.22005,-5.50102 1.54028,-16.94316 11.88221,-28.60533 10.56197,-11.88222 28.16525,-16.063 8.5816,-1.98036 16.94316,-1.98036 19.58364,0 34.54643,10.34192 14.96279,10.12189 19.36361,25.7448 1.98037,7.04131 1.98037,13.20246 0,14.08262 -11.44213,29.48549 l -2.20041,2.86054 -33.88632,41.14766 h 16.063 l -0.22004,-3.74069 q 0,-6.60123 5.9411,-11.66218 6.16115,-5.28098 14.52271,-5.28098 3.96074,0 8.80164,1.76033 5.06094,1.54028 8.36156,6.38119 3.52065,4.62086 3.52065,10.56196 v 20.02374 l -0.22004,3.52065 q -2.64049,18.04336 -19.80369,18.04336 h -81.19513 l -6.16115,-0.66012 q -15.84295,-3.96074 -15.84295,-18.04336 0,-4.40082 2.42045,-9.68181 0.88017,-2.42045 3.08058,-4.62086 z"
       id="text74"
       style="font-size:220.041px;font-family:MelodBold;-inkscape-font-specification:'MelodBold, Normal';text-align:center;white-space:pre;fill:#34a5ff;stroke:#000000;stroke-width:2.15129;stroke-linecap:round;stroke-linejoin:round"
       inkscape:label="d2"
       transform="matrix(1.1311043,0,0,1.1311043,-179.02478,-158.33548)"
       aria-label="2" />
    <path
       d="m 436.57737,221.5909 h 26.87641 q 12.25942,0 17.44609,4.24364 5.18668,4.24364 6.36547,14.85275 v 3.30062 103.02624 h 1.6503 q 9.19457,0 15.08852,6.12971 5.89395,6.12971 5.89395,15.08851 0,4.71516 -1.65031,8.9588 -5.18668,14.14548 -20.7467,14.14548 h -47.38736 q -9.43032,0 -15.79579,-6.36546 -6.36546,-6.36547 -6.36546,-16.03155 0,-8.48728 5.65819,-14.38123 5.65819,-6.12971 14.61699,-7.3085 l 1.88607,-0.23576 v -81.80803 h -2.59334 q -11.55214,0 -18.15336,-5.89395 -6.60123,-5.89394 -6.60123,-15.79578 0,-9.66608 6.60123,-15.79579 6.60122,-6.1297 17.21033,-6.1297 z"
       id="text75"
       style="font-size:235.758px;font-family:MelodBold;-inkscape-font-specification:'MelodBold, Normal';text-align:center;white-space:pre;display:inline;fill:#34a5ff;stroke:#000000;stroke-width:2.35758;stroke-linecap:round;stroke-linejoin:round"
       inkscape:label="d1"
       transform="matrix(1.1311043,0,0,1.1311043,-179.04328,-165.32664)"
       aria-label="1" />
    <path
       d="m 392.75289,336.66722 0.4833,-54.37169 q 0,-27.30668 18.60721,-45.67223 18.6072,-18.36555 47.84709,-18.36555 28.99824,0 47.60544,18.36555 18.60721,18.36555 18.60721,45.67223 v 54.37169 q 0,24.64851 -15.22408,42.2891 -15.22407,17.39895 -40.83919,21.26538 -5.07469,0.72495 -10.14938,0.72495 -4.83304,0 -9.90773,-0.72495 -14.49912,-1.93322 -25.85676,-8.45782 -11.116,-6.76626 -18.84886,-17.6406 -12.32425,-17.15729 -12.32425,-37.45606 z m 69.35412,20.05712 q 7.49121,-1.20826 11.35764,-6.76626 4.10809,-5.79964 4.10809,-16.19068 v -48.57205 q 0,-20.05712 -15.46573,-22.71529 h -4.83304 q -7.97452,1.20826 -11.84095,6.52461 -3.86643,5.31634 -3.86643,16.19068 v 48.57205 q 0,11.11599 4.59139,17.15729 4.83304,6.0413 12.80755,6.0413 2.17487,0 3.14148,-0.24165 z"
       id="text76"
       style="font-size:241.652px;font-family:MelodBold;-inkscape-font-specification:'MelodBold, Normal';text-align:center;white-space:pre;fill:#34a5ff;stroke:#000000;stroke-width:2.65228;stroke-linecap:round;stroke-linejoin:round"
       inkscape:label="d0"
       transform="matrix(1.1311043,0,0,1.1311043,-179.27358,-168.18581)"
       aria-label="0" />
  </g>
</svg>
