<?xml version="1.0" encoding="UTF-8" standalone="no"?>
<!-- Created with Inkscape (http://www.inkscape.org/) -->

<svg
   width="901.99994"
   height="901.99994"
   viewBox="0 0 300.66665 300.66665"
   version="1.1"
   id="svg1"
   inkscape:version="1.3.2 (091e20e, 2023-11-25, custom)"
   sodipodi:docname="numbers_NO_FONT.svg"
   xmlns:inkscape="http://www.inkscape.org/namespaces/inkscape"
   xmlns:sodipodi="http://sodipodi.sourceforge.net/DTD/sodipodi-0.dtd"
   xmlns="http://www.w3.org/2000/svg"
   xmlns:svg="http://www.w3.org/2000/svg">
  <sodipodi:namedview
     id="namedview1"
     pagecolor="#1a0040"
     bordercolor="#eeeeee"
     borderopacity="1"
     inkscape:showpageshadow="0"
     inkscape:pageopacity="0"
     inkscape:pagecheckerboard="0"
     inkscape:deskcolor="#000000"
     inkscape:document-units="px"
     inkscape:zoom="0.55496673"
     inkscape:cx="-26.127692"
     inkscape:cy="301.81989"
     inkscape:window-width="1858"
     inkscape:window-height="1057"
     inkscape:window-x="-8"
     inkscape:window-y="-8"
     inkscape:window-maximized="1"
     inkscape:current-layer="svg1" />
  <defs
     id="defs1" />
  <path
     d="m 146.239,131.95 v 37.547 c 0,15.774 -5.214,28.811 -15.644,39.11 -10.43,10.3 -23.727,15.449 -39.8932,15.449 h -2.9333 c -0.7822,0 -1.6948,-0.065 -2.7377,-0.195 -1.043,-0.131 -2.3467,-0.261 -3.9111,-0.391 -1.5645,-0.131 -3.5852,-0.522 -6.0622,-1.174 -2.3467,-0.521 -4.8889,-1.303 -7.6267,-2.346 -8.0829,-3.26 -14.2755,-6.975 -18.5777,-11.147 -4.3022,-4.302 -6.4533,-8.539 -6.4533,-12.711 v -2.542 c 0,-4.954 1.4341,-9.126 4.3022,-12.516 2.8682,-3.389 6.6489,-5.41 11.3422,-6.062 0.5215,-0.13 1.4341,-0.196 2.7378,-0.196 2.8681,0 5.9318,0.913 9.191,2.738 l 6.4534,4.889 c 2.7377,1.956 5.3451,3.39 7.8221,4.302 2.4771,0.783 5.0845,1.174 7.8222,1.174 l 3.52,-0.587 c 3.7807,-1.043 6.4533,-2.347 8.0173,-3.911 1.565,-1.565 2.543,-4.042 2.934,-7.431 l 0.195,-1.76 v -4.498 l -1.173,0.782 -1.564,0.978 c -5.0848,3.129 -11.2122,4.693 -18.3826,4.693 -5.0844,0 -10.0384,-0.782 -14.8621,-2.346 -4.8237,-1.695 -9.517,-4.237 -14.08,-7.627 -5.8666,-4.432 -10.3644,-9.973 -13.4932,-16.622 -3.1289,-6.649 -4.6934,-13.624 -4.6934,-20.924 0,-5.867 0.9126,-11.473 2.7378,-16.818 1.9555,-5.476 4.9541,-10.69 8.9955,-15.6445 10.4296,-13.037 24.5095,-19.5555 42.2398,-19.5555 14.3412,0 26.3352,4.4326 35.9822,13.2977 9.778,8.8652 15.579,20.4683 17.404,34.8083 z m -56.7105,7.627 c 1.3037,0.26 2.3467,0.391 3.1289,0.391 0.7822,0 1.8252,-0.131 3.1289,-0.391 3.3896,-0.652 6.0617,-2.151 8.0177,-4.498 2.086,-2.477 3.129,-5.41 3.129,-8.8 0,-1.043 -0.261,-2.607 -0.782,-4.693 -1.043,-3.39 -3.194,-5.997 -6.4536,-7.823 -2.2163,-1.303 -4.6282,-1.955 -7.2356,-1.955 -2.9985,0 -5.8014,1.043 -8.4088,3.129 -2.477,1.955 -3.9763,4.172 -4.4978,6.649 -0.5214,2.346 -0.717,4.041 -0.5866,5.084 0,6.91 3.5199,11.212 10.5599,12.907 z"
     id="text28"
     style="font-size:172.889px;font-family:MelodBold;-inkscape-font-specification:'MelodBold, Normal';text-align:center;white-space:pre;display:none;fill:#34a5ff;stroke:#000000;stroke-width:1.66666;stroke-linecap:round;stroke-linejoin:round"
     aria-label="9"
     inkscape:label="90" />
  <path
     d="m 55.4766,142.315 -0.9778,-0.978 -0.5866,-0.978 c -3.7808,-4.823 -5.6711,-10.951 -5.6711,-18.382 0,-5.606 1.1081,-11.277 3.3244,-17.013 6.2578,-15.7749 17.9259,-25.0963 35.0043,-27.9644 2.7378,-0.3911 5.3452,-0.5867 7.8222,-0.5867 2.477,0 5.0192,0.1956 7.627,0.5867 17.208,2.8681 28.942,12.1895 35.199,27.9644 2.217,5.736 3.325,11.472 3.325,17.209 0,7.3 -1.89,13.363 -5.671,18.186 l -0.782,0.978 -0.978,0.978 1.369,0.978 1.369,0.977 c 2.998,2.477 5.54,5.476 7.626,8.996 3.781,5.867 5.671,12.646 5.671,20.338 0,9.908 -3.063,19.164 -9.191,27.768 -6.518,9.126 -15.253,15.58 -26.204,19.36 l -9.191,2.347 c -2.999,0.521 -6.3883,0.782 -10.169,0.782 -7.1703,0 -13.6888,-1.043 -19.5555,-3.129 -10.8207,-3.78 -19.4251,-10.103 -25.8132,-18.969 -6.2578,-8.865 -9.3866,-18.316 -9.3866,-28.355 0,-7.561 1.8903,-14.275 5.6711,-20.142 2.0859,-3.52 4.6281,-6.519 7.6266,-8.996 l 1.1733,-0.977 z m 29.7243,-20.533 c 0.7822,3.65 2.8682,5.997 6.2578,7.04 1.5644,0.651 3.0637,0.782 4.4977,0.391 4.0415,-0.652 6.5836,-3.129 7.6266,-7.431 0.261,-1.304 0.391,-2.217 0.391,-2.738 0,-2.216 -0.782,-4.302 -2.346,-6.258 -1.956,-2.347 -4.3679,-3.52 -7.236,-3.52 -2.6074,0 -5.0192,1.173 -7.2355,3.52 -1.5645,1.956 -2.3467,4.172 -2.3467,6.649 z m -4.3022,55.342 c 1.3037,7.3 5.8015,10.951 13.4933,10.951 4.0415,0 7.301,-1.304 9.778,-3.911 2.477,-2.608 3.715,-5.802 3.715,-9.583 0,-1.173 -0.13,-2.411 -0.391,-3.715 -0.261,-1.304 -0.847,-2.673 -1.76,-4.107 -2.868,-4.041 -6.6487,-6.062 -11.342,-6.062 -3.3896,0 -6.3229,1.043 -8.8,3.129 -2.3466,1.955 -3.8459,4.693 -4.4977,8.213 l -0.3911,2.542 z"
     id="text27"
     style="font-size:172.889px;font-family:MelodBold;-inkscape-font-specification:'MelodBold, Normal';text-align:center;white-space:pre;display:none;fill:#34a5ff;stroke:#000000;stroke-width:1.66666;stroke-linecap:round;stroke-linejoin:round"
     aria-label="8"
     inkscape:label="80" />
  <path
     d="M 40.0754,116.496 V 98.1109 c 0,-5.7373 1.5809,-10.2359 4.7425,-13.4957 3.1617,-3.2598 7.588,-4.8897 13.279,-4.8897 h 60.3241 l 6.64,0.1956 c 7.335,0.6519 13.342,3.651 18.021,8.9971 4.679,5.3461 7.019,11.8008 7.019,19.3638 0,3.39 -0.569,6.845 -1.707,10.366 l -2.656,6.259 -0.759,1.173 -1.897,3.521 -46.2865,82.538 c -4.9322,8.737 -11.1291,13.105 -18.5906,13.105 -3.2881,0 -6.5762,-0.913 -9.8643,-2.738 -3.2881,-1.826 -5.8174,-4.173 -7.588,-7.042 -1.644,-2.868 -2.466,-6.128 -2.466,-9.779 0,-3.912 1.0117,-7.563 3.0351,-10.953 l 39.2673,-69.239 0.759,-1.76 0.949,-1.565 c 0.379,-0.782 0.569,-1.499 0.569,-2.151 0,-0.522 -0.19,-1.108 -0.569,-1.76 -0.759,-1.304 -1.961,-1.956 -3.6046,-1.956 h -2.466 -20.2978 v 1.369 c 0,5.085 -1.7706,9.388 -5.3116,12.909 -3.4146,3.39 -7.588,5.085 -12.5201,5.085 -2.15,0 -4.5528,-0.522 -7.2086,-1.565 -7.2086,-3.129 -10.8129,-8.997 -10.8129,-17.603 z"
     id="text48"
     style="font-size:172.889px;font-family:MelodBold;-inkscape-font-specification:'MelodBold, Normal';text-align:center;white-space:pre;display:none;fill:#34a5ff;stroke:#000000;stroke-width:1.64167;stroke-linecap:round;stroke-linejoin:round"
     aria-label="7"
     inkscape:label="70" />
  <path
     d="m 39.9385,168.519 v -37.351 c 0,-15.775 5.2148,-28.812 15.6444,-39.1107 C 66.0125,81.7581 79.3754,76.6085 95.6716,76.6085 h 3.7155 c 1.1729,0 3.5199,0.2607 7.0399,0.7822 3.65,0.3911 7.822,1.4992 12.516,3.3244 8.213,3.2592 14.405,7.2355 18.577,11.9288 4.172,4.6934 6.258,9.5821 6.258,14.6671 0,2.477 -0.456,4.823 -1.369,7.04 -2.998,7.691 -8.409,11.537 -16.231,11.537 -2.086,0 -4.237,-0.391 -6.453,-1.173 l -3.325,-1.565 -0.586,-0.391 -5.867,-4.693 -3.52,-2.542 c -2.086,-1.173 -4.041,-1.956 -5.867,-2.347 -1.8247,-0.391 -3.9758,-0.586 -6.4528,-0.586 l -3.52,0.782 c -6.5185,1.695 -10.1689,5.41 -10.9511,11.146 v 1.956 4.693 l 1.1733,-0.782 1.3689,-0.978 c 5.0844,-3.129 11.2118,-4.693 18.3817,-4.693 5.085,0 10.039,0.847 14.863,2.542 4.954,1.565 9.777,4.107 14.471,7.627 5.606,4.172 9.973,9.582 13.102,16.231 3.129,6.518 4.693,13.623 4.693,21.315 0,2.738 -0.261,5.737 -0.782,8.996 -0.522,3.259 -1.304,6.258 -2.347,8.995 -3.911,10.169 -10.429,18.317 -19.555,24.445 -8.996,5.997 -19.295,8.995 -30.8978,8.995 -4.6933,0 -9.5822,-0.586 -14.6666,-1.76 -11.9941,-2.868 -21.5762,-9.126 -28.7466,-18.773 -7.1703,-9.647 -10.7555,-21.25 -10.7555,-34.809 z m 50.2576,19.947 c 0.7822,0.261 1.9555,0.391 3.52,0.391 3.911,0 7.1699,-1.369 9.7779,-4.107 2.607,-2.738 3.911,-6.258 3.911,-10.56 0,-2.998 -0.978,-5.671 -2.933,-8.017 -1.956,-2.347 -4.5634,-3.912 -7.8226,-4.694 -0.7822,-0.261 -2.0208,-0.391 -3.7156,-0.391 -1.6948,0 -3.4548,0.391 -5.2799,1.173 -5.4756,2.217 -8.2133,6.584 -8.2133,13.103 0,3.128 0.9777,5.931 2.9333,8.408 2.0859,2.347 4.6933,3.912 7.8222,4.694 z"
     id="text50"
     style="font-size:172.889px;font-family:MelodBold;-inkscape-font-specification:'MelodBold, Normal';text-align:center;white-space:pre;display:none;fill:#34a5ff;stroke:#000000;stroke-width:1.66666;stroke-linecap:round;stroke-linejoin:round"
     aria-label="6"
     inkscape:label="60" />
  <path
     d="M 95.4509,165.39 H 66.3132 63.9666 c -5.0844,-0.652 -9.1911,-2.607 -12.32,-5.866 -2.9985,-3.39 -4.4977,-7.497 -4.4977,-12.32 V 98.315 c 0,-5.8666 1.6296,-10.4296 4.8888,-13.6888 3.2593,-3.2592 7.8874,-4.8889 13.8844,-4.8889 h 59.8399 l 2.347,0.1956 c 5.475,0 9.712,1.4341 12.711,4.3022 2.998,2.8681 4.497,6.7792 4.497,11.7333 v 2.1511 12.9065 c 0,8.474 -3.389,14.21 -10.168,17.209 -2.738,1.173 -5.606,1.76 -8.605,1.76 -4.693,0 -8.865,-1.304 -12.515,-3.911 -3.651,-2.608 -5.476,-5.541 -5.476,-8.8 v -3.716 H 86.6509 v 15.254 h 12.32 c 2.7381,0 4.7581,0.13 6.0621,0.391 13.559,1.564 24.249,6.518 32.071,14.862 7.953,8.213 11.929,18.447 11.929,30.702 0,2.738 -0.196,5.475 -0.587,8.213 -1.825,11.864 -7.431,21.642 -16.817,29.333 -9.257,7.692 -20.729,11.538 -34.4181,11.538 -12.9066,0 -24.4444,-2.933 -34.6132,-8.8 -10.0385,-5.866 -16.6873,-12.972 -19.9466,-21.315 -0.9126,-2.347 -1.3689,-4.889 -1.3689,-7.627 0,-4.693 1.4341,-8.669 4.3022,-11.929 2.9985,-3.389 6.9096,-5.41 11.7333,-6.062 3.3896,-0.261 6.3881,0.261 8.9955,1.565 2.6074,1.173 5.3452,3.52 8.2133,7.039 2.8682,3.52 5.28,5.997 7.2356,7.432 1.9555,1.303 4.3674,2.281 7.2355,2.933 l 3.7155,0.587 c 9.6469,0 14.4709,-3.651 14.4709,-10.952 0,-0.521 -0.195,-1.759 -0.586,-3.715 -0.392,-1.956 -1.565,-3.716 -3.52,-5.28 -1.956,-1.564 -4.4982,-2.347 -7.6271,-2.347 z"
     id="text51"
     style="font-size:172.889px;font-family:MelodBold;-inkscape-font-specification:'MelodBold, Normal';text-align:center;white-space:pre;display:none;fill:#34a5ff;stroke:#000000;stroke-width:1.66666;stroke-linecap:round;stroke-linejoin:round"
     aria-label="5"
     inkscape:label="50" />
  <path
     d="M 36.48,126.276 54.9596,87.9417 c 4.1913,-8.4753 10.1606,-12.713 17.9081,-12.713 5.4614,0 9.9066,1.8255 13.3358,5.4764 3.4292,3.6509 5.1438,8.0841 5.1438,13.2997 0,2.4774 -0.5715,5.02 -1.7146,7.6282 l -16.765,35.987 -0.381,0.782 -0.381,1.369 c 0,2.608 1.143,3.912 3.4292,3.912 h 0.9525 11.4307 v -15.451 c 0,-4.694 0.9526,-8.736 2.8577,-12.126 1.9051,-3.521 4.3818,-5.998 7.43,-7.432 3.0482,-1.565 6.1602,-2.347 9.3352,-2.347 4.064,0 7.747,1.173 11.049,3.52 3.303,2.347 5.462,5.085 6.478,8.215 1.016,2.999 1.524,5.998 1.524,8.997 v 16.624 c 1.397,-0.391 2.667,-0.587 3.81,-0.587 4.064,0 7.621,1.63 10.669,4.89 3.048,3.26 4.572,7.432 4.572,12.517 0,11.084 -6.287,16.625 -18.861,16.625 l -0.19,6.65 h 1.334 c 4.826,0 8.827,1.695 12.002,5.085 3.175,3.39 4.763,7.758 4.763,13.104 0,5.607 -1.715,10.105 -5.144,13.496 -3.429,3.39 -7.875,5.085 -13.336,5.085 H 88.1086 c -5.3343,0 -9.716,-1.695 -13.1453,-5.085 -3.4292,-3.391 -5.1438,-7.824 -5.1438,-13.3 0,-5.085 1.5876,-9.388 4.7628,-12.909 3.3022,-3.651 7.3665,-5.476 12.1928,-5.476 l 1.3335,-0.196 v -6.454 H 68.6765 l -6.0964,-0.391 c -9.2716,-1.304 -16.638,-5.02 -22.0994,-11.148 -5.4613,-6.129 -8.192,-13.431 -8.192,-21.906 0,-5.867 1.3971,-11.67 4.1913,-17.407 z"
     id="text52"
     style="font-size:172.889px;font-family:MelodBold;-inkscape-font-specification:'MelodBold, Normal';text-align:center;white-space:pre;display:none;fill:#34a5ff;stroke:#000000;stroke-width:1.64516;stroke-linecap:round;stroke-linejoin:round"
     aria-label="4"
     inkscape:label="40" />
  <path
     d="M 42.187,116.697 V 98.7061 c 0,-7.5614 3.1289,-13.1673 9.3866,-16.8177 2.4771,-1.434 5.6059,-2.1511 9.3867,-2.1511 h 40.2847 l 8.213,0.5867 c 17.6,3.1289 28.551,13.2325 32.853,30.311 0.913,3.65 1.369,7.431 1.369,11.342 0,9.387 -3.064,17.861 -9.191,25.422 l -2.151,2.347 2.542,1.369 c 10.038,5.736 15.058,14.797 15.058,27.182 0,3.911 -0.587,7.692 -1.76,11.342 -1.043,3.65 -2.803,7.496 -5.28,11.538 -4.433,6.909 -10.886,12.45 -19.36,16.622 -8.344,4.041 -17.926,6.062 -28.7468,6.062 -2.8681,0 -5.8666,-0.195 -8.9955,-0.586 -6.3881,-0.783 -12.1244,-2.152 -17.2088,-4.107 -4.9541,-2.086 -9.1911,-4.693 -12.7111,-7.822 -1.6948,-1.434 -3.3896,-3.194 -5.0844,-5.28 -1.6948,-2.086 -2.9333,-3.781 -3.7155,-5.085 -2.2163,-3.65 -3.3245,-7.561 -3.3245,-11.733 0,-4.563 1.3689,-8.474 4.1067,-11.733 2.8681,-3.39 6.714,-5.411 11.5377,-6.062 0.6519,-0.131 1.5645,-0.196 2.7378,-0.196 3.7807,0 7.1051,1.043 9.9733,3.129 1.5644,1.173 2.8681,2.346 3.9111,3.52 0.3911,0.391 1.4992,1.76 3.3244,4.106 2.9985,3.781 7.6266,5.672 13.8844,5.672 1.5644,0 2.8029,-0.066 3.7155,-0.196 7.6917,-0.913 11.5377,-3.976 11.5377,-9.191 0,-1.434 -0.13,-2.542 -0.391,-3.325 -1.173,-3.259 -3.716,-5.279 -7.627,-6.062 H 99.0934 75.0402 c -2.0859,0 -3.9111,-0.26 -5.4755,-0.782 -4.8237,-1.434 -8.3437,-4.237 -10.56,-8.409 -1.3037,-2.477 -1.9555,-4.954 -1.9555,-7.431 0,-3.389 0.9777,-6.388 2.9333,-8.995 1.9555,-2.608 4.5629,-4.368 7.8222,-5.28 3.3896,-0.913 6.9748,-1.369 10.7555,-1.369 h 12.711 c 5.6059,0 9.5168,-0.652 11.7338,-1.956 2.346,-1.303 3.845,-3.52 4.497,-6.649 0.131,-0.521 0.196,-1.303 0.196,-2.346 0,-6.128 -3.976,-9.191 -11.929,-9.191 l -17.0133,-0.196 v 1.565 c 0,4.954 -1.8251,9.06 -5.4755,12.319 -3.6503,3.26 -8.1481,4.889 -13.4933,4.889 -4.954,0 -9.1259,-1.76 -12.5155,-5.28 -3.3896,-3.52 -5.0844,-7.887 -5.0844,-13.102 z"
     id="text54"
     style="font-size:172.889px;font-family:MelodBold;-inkscape-font-specification:'MelodBold, Normal';text-align:center;white-space:pre;display:none;fill:#34a5ff;stroke:#000000;stroke-width:1.66666;stroke-linecap:round;stroke-linejoin:round"
     aria-label="3"
     inkscape:label="30" />
  <path
     d="m 46.63,191.204 52.0176,-59.449 c 2.2164,-2.216 3.3244,-4.824 3.3244,-7.822 0,-3.26 -0.978,-5.932 -2.9333,-8.018 -1.8252,-2.216 -4.3674,-3.324 -7.6267,-3.324 -0.5215,0 -1.434,0.13 -2.7377,0.391 -5.4756,1.173 -8.2133,4.823 -8.2133,10.951 0,2.216 0.5214,5.41 1.5644,9.582 0.2607,0.652 0.3911,1.695 0.3911,3.129 0,1.303 -0.0652,2.346 -0.1955,3.129 -0.9126,7.561 -5.5408,12.254 -13.8844,14.08 -1.5645,0.26 -2.7378,0.391 -3.52,0.391 -5.997,0 -11.1466,-2.738 -15.4488,-8.214 -4.6934,-5.997 -7.04,-13.819 -7.04,-23.466 0,-2.086 0.0652,-3.716 0.1955,-4.889 0.9126,-10.039 4.4326,-18.5126 10.56,-25.4222 6.2577,-7.0399 14.6014,-11.7984 25.031,-14.2755 5.0844,-1.1733 10.1037,-1.76 15.0577,-1.76 11.603,0 21.837,3.0637 30.702,9.1911 8.865,5.997 14.602,13.6237 17.209,22.8796 1.173,4.172 1.76,8.083 1.76,11.734 0,8.343 -3.39,17.078 -10.169,26.204 l -1.955,2.542 -30.116,36.569 h 14.276 l -0.196,-3.325 c 0,-3.911 1.76,-7.365 5.28,-10.364 3.65,-3.129 7.953,-4.693 12.907,-4.693 2.346,0 4.954,0.521 7.822,1.564 2.998,0.913 5.475,2.803 7.431,5.671 2.086,2.738 3.129,5.867 3.129,9.387 v 17.795 l -0.196,3.129 c -1.564,10.691 -7.431,16.036 -17.6,16.036 H 61.2966 l -5.4755,-0.587 c -9.3867,-2.347 -14.08,-7.692 -14.08,-16.035 0,-2.608 0.7171,-5.476 2.1511,-8.605 0.5215,-1.434 1.4341,-2.803 2.7378,-4.106 z"
     id="text55"
     style="font-size:172.889px;font-family:MelodBold;-inkscape-font-specification:'MelodBold, Normal';text-align:center;white-space:pre;display:none;fill:#34a5ff;stroke:#000000;stroke-width:1.66666;stroke-linecap:round;stroke-linejoin:round"
     aria-label="2"
     inkscape:label="20" />
  <path
     d="m 80.7209,79.7373 h 22.2931 c 6.779,0 11.603,1.1734 14.471,3.52 2.868,2.3467 4.628,6.4533 5.28,12.32 v 2.7377 85.457 h 1.369 c 5.084,0 9.256,1.695 12.516,5.085 3.259,3.389 4.888,7.561 4.888,12.515 0,2.608 -0.456,5.085 -1.368,7.431 -2.869,7.823 -8.605,11.734 -17.209,11.734 H 83.6542 c -5.2148,0 -9.5821,-1.76 -13.1021,-5.28 -3.52,-3.52 -5.28,-7.953 -5.28,-13.298 0,-4.693 1.5644,-8.67 4.6933,-11.929 3.1289,-3.389 7.1704,-5.41 12.1244,-6.062 l 1.5644,-0.196 v -67.857 h -2.1511 c -6.3881,0 -11.4073,-1.63 -15.0577,-4.889 -3.6503,-3.259 -5.4755,-7.627 -5.4755,-13.1021 0,-5.3451 1.8252,-9.7125 5.4755,-13.1021 3.6504,-3.3897 8.4089,-5.0845 14.2755,-5.0845 z"
     id="text56"
     style="font-size:172.889px;font-family:MelodBold;-inkscape-font-specification:'MelodBold, Normal';text-align:center;white-space:pre;display:none;fill:#34a5ff;stroke:#000000;stroke-width:1.66666;stroke-linecap:round;stroke-linejoin:round"
     aria-label="1"
     inkscape:label="10" />
  <path
     d="m 264.222,132.146 v 37.547 c 0,15.774 -5.214,28.811 -15.644,39.11 -10.43,10.3 -23.727,15.449 -39.893,15.449 h -2.933 c -0.783,0 -1.695,-0.065 -2.738,-0.195 -1.043,-0.131 -2.347,-0.261 -3.911,-0.391 -1.565,-0.131 -3.585,-0.522 -6.063,-1.174 -2.346,-0.521 -4.888,-1.303 -7.626,-2.346 -8.083,-3.26 -14.276,-6.975 -18.578,-11.147 -4.302,-4.302 -6.453,-8.539 -6.453,-12.711 v -2.542 c 0,-4.954 1.434,-9.126 4.302,-12.516 2.868,-3.389 6.649,-5.41 11.342,-6.062 0.522,-0.13 1.434,-0.196 2.738,-0.196 2.868,0 5.932,0.913 9.191,2.738 l 6.453,4.889 c 2.738,1.956 5.346,3.39 7.823,4.302 2.477,0.783 5.084,1.174 7.822,1.174 l 3.52,-0.587 c 3.78,-1.043 6.453,-2.347 8.017,-3.911 1.565,-1.565 2.543,-4.042 2.934,-7.431 l 0.195,-1.76 v -4.498 l -1.173,0.782 -1.564,0.978 c -5.085,3.129 -11.212,4.693 -18.383,4.693 -5.084,0 -10.038,-0.782 -14.862,-2.346 -4.823,-1.695 -9.517,-4.237 -14.08,-7.627 -5.866,-4.432 -10.364,-9.973 -13.493,-16.622 -3.129,-6.649 -4.693,-13.624 -4.693,-20.924 0,-5.867 0.912,-11.473 2.738,-16.818 1.955,-5.476 4.954,-10.69 8.995,-15.6445 10.43,-13.037 24.51,-19.5555 42.24,-19.5555 14.341,0 26.335,4.4326 35.982,13.2977 9.778,8.8652 15.579,20.4683 17.404,34.8083 z m -56.71,7.627 c 1.303,0.26 2.346,0.391 3.128,0.391 0.783,0 1.826,-0.131 3.129,-0.391 3.39,-0.652 6.062,-2.151 8.018,-4.498 2.086,-2.477 3.129,-5.41 3.129,-8.8 0,-1.043 -0.261,-2.607 -0.782,-4.693 -1.043,-3.39 -3.194,-5.997 -6.454,-7.823 -2.216,-1.303 -4.628,-1.955 -7.235,-1.955 -2.999,0 -5.802,1.043 -8.409,3.129 -2.477,1.955 -3.976,4.172 -4.498,6.649 -0.521,2.346 -0.717,4.041 -0.586,5.084 0,6.91 3.52,11.212 10.56,12.907 z"
     id="text57"
     style="font-size:172.889px;font-family:MelodBold;-inkscape-font-specification:'MelodBold, Normal';text-align:center;white-space:pre;display:inline;fill:#34a5ff;stroke:#000000;stroke-width:1.66666;stroke-linecap:round;stroke-linejoin:round"
     aria-label="9"
     inkscape:label="x9" />
  <path
     d="m 171.315,142.315 -0.978,-0.978 -0.587,-0.978 c -3.781,-4.823 -5.671,-10.951 -5.671,-18.382 0,-5.606 1.108,-11.277 3.325,-17.013 6.257,-15.7749 17.925,-25.0963 35.004,-27.9644 2.738,-0.3911 5.345,-0.5867 7.822,-0.5867 2.477,0 5.019,0.1956 7.627,0.5867 17.208,2.8681 28.942,12.1895 35.199,27.9644 2.217,5.736 3.325,11.472 3.325,17.209 0,7.3 -1.89,13.363 -5.671,18.186 l -0.782,0.978 -0.978,0.978 1.369,0.978 1.369,0.977 c 2.998,2.477 5.54,5.476 7.626,8.996 3.781,5.867 5.671,12.646 5.671,20.338 0,9.908 -3.063,19.164 -9.191,27.768 -6.518,9.126 -15.253,15.58 -26.204,19.36 l -9.191,2.347 c -2.999,0.521 -6.388,0.782 -10.169,0.782 -7.17,0 -13.689,-1.043 -19.555,-3.129 -10.821,-3.78 -19.426,-10.103 -25.814,-18.969 -6.257,-8.865 -9.386,-18.316 -9.386,-28.355 0,-7.561 1.89,-14.275 5.671,-20.142 2.086,-3.52 4.628,-6.519 7.626,-8.996 l 1.174,-0.977 z m 29.724,-20.533 c 0.782,3.65 2.868,5.997 6.258,7.04 1.564,0.651 3.063,0.782 4.497,0.391 4.042,-0.652 6.584,-3.129 7.627,-7.431 0.261,-1.304 0.391,-2.217 0.391,-2.738 0,-2.216 -0.782,-4.302 -2.346,-6.258 -1.956,-2.347 -4.368,-3.52 -7.236,-3.52 -2.607,0 -5.019,1.173 -7.236,3.52 -1.564,1.956 -2.346,4.172 -2.346,6.649 z m -4.302,55.342 c 1.303,7.3 5.801,10.951 13.493,10.951 4.041,0 7.301,-1.304 9.778,-3.911 2.477,-2.608 3.715,-5.802 3.715,-9.583 0,-1.173 -0.13,-2.411 -0.391,-3.715 -0.261,-1.304 -0.847,-2.673 -1.76,-4.107 -2.868,-4.041 -6.649,-6.062 -11.342,-6.062 -3.39,0 -6.323,1.043 -8.8,3.129 -2.347,1.955 -3.846,4.693 -4.498,8.213 l -0.391,2.542 z"
     id="text58"
     style="font-size:172.889px;font-family:MelodBold;-inkscape-font-specification:'MelodBold, Normal';text-align:center;white-space:pre;display:inline;fill:#34a5ff;stroke:#000000;stroke-width:1.66666;stroke-linecap:round;stroke-linejoin:round"
     aria-label="8"
     inkscape:label="x8" />
  <path
     d="M 152.588,116.496 V 98.1109 c 0,-5.7373 1.581,-10.2359 4.743,-13.4957 3.162,-3.2598 7.588,-4.8897 13.279,-4.8897 h 60.324 l 6.64,0.1956 c 7.335,0.6519 13.342,3.651 18.021,8.9971 4.679,5.3461 7.019,11.8008 7.019,19.3638 0,3.39 -0.569,6.845 -1.707,10.366 l -2.656,6.259 -0.759,1.173 -1.897,3.521 -46.287,82.538 c -4.932,8.737 -11.129,13.105 -18.59,13.105 -3.288,0 -6.576,-0.913 -9.864,-2.738 -3.289,-1.826 -5.818,-4.173 -7.588,-7.042 -1.644,-2.868 -2.466,-6.128 -2.466,-9.779 0,-3.912 1.011,-7.563 3.035,-10.953 l 39.267,-69.239 0.759,-1.76 0.949,-1.565 c 0.379,-0.782 0.569,-1.499 0.569,-2.151 0,-0.522 -0.19,-1.108 -0.569,-1.76 -0.759,-1.304 -1.961,-1.956 -3.605,-1.956 h -2.466 -20.297 v 1.369 c 0,5.085 -1.771,9.388 -5.312,12.909 -3.415,3.39 -7.588,5.085 -12.52,5.085 -2.15,0 -4.553,-0.522 -7.209,-1.565 -7.208,-3.129 -10.813,-8.997 -10.813,-17.603 z"
     id="text59"
     style="font-size:172.889px;font-family:MelodBold;-inkscape-font-specification:'MelodBold, Normal';text-align:center;white-space:pre;display:inline;fill:#34a5ff;stroke:#000000;stroke-width:1.64167;stroke-linecap:round;stroke-linejoin:round"
     aria-label="7"
     inkscape:label="x7" />
  <path
     d="m 156.523,168.519 v -37.351 c 0,-15.775 5.214,-28.812 15.644,-39.1107 10.429,-10.2992 23.792,-15.4488 40.089,-15.4488 h 3.715 c 1.173,0 3.52,0.2607 7.04,0.7822 3.65,0.3911 7.822,1.4992 12.516,3.3244 8.213,3.2592 14.405,7.2355 18.577,11.9288 4.172,4.6934 6.258,9.5821 6.258,14.6671 0,2.477 -0.456,4.823 -1.369,7.04 -2.998,7.691 -8.409,11.537 -16.231,11.537 -2.086,0 -4.237,-0.391 -6.453,-1.173 l -3.325,-1.565 -0.586,-0.391 -5.867,-4.693 -3.52,-2.542 c -2.086,-1.173 -4.041,-1.956 -5.867,-2.347 -1.825,-0.391 -3.976,-0.586 -6.453,-0.586 l -3.52,0.782 c -6.518,1.695 -10.169,5.41 -10.951,11.146 v 1.956 4.693 l 1.173,-0.782 1.369,-0.978 c 5.085,-3.129 11.212,-4.693 18.382,-4.693 5.085,0 10.039,0.847 14.863,2.542 4.954,1.565 9.777,4.107 14.471,7.627 5.606,4.172 9.973,9.582 13.102,16.231 3.129,6.518 4.693,13.623 4.693,21.315 0,2.738 -0.261,5.737 -0.782,8.996 -0.522,3.259 -1.304,6.258 -2.347,8.995 -3.911,10.169 -10.429,18.317 -19.555,24.445 -8.996,5.997 -19.295,8.995 -30.898,8.995 -4.693,0 -9.582,-0.586 -14.666,-1.76 -11.994,-2.868 -21.577,-9.126 -28.747,-18.773 -7.17,-9.647 -10.755,-21.25 -10.755,-34.809 z m 50.257,19.947 c 0.782,0.261 1.956,0.391 3.52,0.391 3.911,0 7.17,-1.369 9.778,-4.107 2.607,-2.738 3.911,-6.258 3.911,-10.56 0,-2.998 -0.978,-5.671 -2.933,-8.017 -1.956,-2.347 -4.563,-3.912 -7.823,-4.694 -0.782,-0.261 -2.02,-0.391 -3.715,-0.391 -1.695,0 -3.455,0.391 -5.28,1.173 -5.476,2.217 -8.213,6.584 -8.213,13.103 0,3.128 0.977,5.931 2.933,8.408 2.086,2.347 4.693,3.912 7.822,4.694 z"
     id="text60"
     style="font-size:172.889px;font-family:MelodBold;-inkscape-font-specification:'MelodBold, Normal';text-align:center;white-space:pre;display:inline;fill:#34a5ff;stroke:#000000;stroke-width:1.66666;stroke-linecap:round;stroke-linejoin:round"
     aria-label="6"
     inkscape:label="x6" />
  <path
     d="M 208.638,165.39 H 179.5 177.154 c -5.085,-0.652 -9.191,-2.607 -12.32,-5.866 -2.999,-3.39 -4.498,-7.497 -4.498,-12.32 V 98.315 c 0,-5.8666 1.629,-10.4296 4.889,-13.6888 3.259,-3.2592 7.887,-4.8889 13.884,-4.8889 h 59.84 l 2.347,0.1956 c 5.475,0 9.712,1.4341 12.711,4.3022 2.998,2.8681 4.497,6.7792 4.497,11.7333 v 2.1511 12.9065 c 0,8.474 -3.389,14.21 -10.168,17.209 -2.738,1.173 -5.606,1.76 -8.605,1.76 -4.693,0 -8.865,-1.304 -12.515,-3.911 -3.651,-2.608 -5.476,-5.541 -5.476,-8.8 v -3.716 h -21.902 v 15.254 h 12.32 c 2.738,0 4.758,0.13 6.062,0.391 13.559,1.564 24.249,6.518 32.071,14.862 7.953,8.213 11.929,18.447 11.929,30.702 0,2.738 -0.196,5.475 -0.587,8.213 -1.825,11.864 -7.431,21.642 -16.817,29.333 -9.257,7.692 -20.729,11.538 -34.418,11.538 -12.907,0 -24.444,-2.933 -34.613,-8.8 -10.039,-5.866 -16.688,-12.972 -19.947,-21.315 -0.912,-2.347 -1.369,-4.889 -1.369,-7.627 0,-4.693 1.434,-8.669 4.302,-11.929 2.999,-3.389 6.91,-5.41 11.734,-6.062 3.389,-0.261 6.388,0.261 8.995,1.565 2.608,1.173 5.345,3.52 8.214,7.039 2.868,3.52 5.28,5.997 7.235,7.432 1.956,1.303 4.367,2.281 7.236,2.933 l 3.715,0.587 c 9.647,0 14.471,-3.651 14.471,-10.952 0,-0.521 -0.195,-1.759 -0.586,-3.715 -0.392,-1.956 -1.565,-3.716 -3.52,-5.28 -1.956,-1.564 -4.498,-2.347 -7.627,-2.347 z"
     id="text61"
     style="font-size:172.889px;font-family:MelodBold;-inkscape-font-specification:'MelodBold, Normal';text-align:center;white-space:pre;display:inline;fill:#34a5ff;stroke:#000000;stroke-width:1.66666;stroke-linecap:round;stroke-linejoin:round"
     aria-label="5"
     inkscape:label="x5" />
  <path
     d="M 152.437,126.277 170.92,87.9427 c 4.192,-8.4753 10.162,-12.713 17.912,-12.713 5.462,0 9.908,1.8255 13.338,5.4764 3.43,3.6509 5.145,8.0841 5.145,13.2997 0,2.4774 -0.572,5.02 -1.715,7.6282 l -16.768,35.987 -0.382,0.782 -0.381,1.369 c 0,2.608 1.144,3.912 3.43,3.912 h 0.953 11.433 v -15.451 c 0,-4.694 0.953,-8.736 2.858,-12.126 1.906,-3.521 4.383,-5.998 7.432,-7.432 3.048,-1.565 6.161,-2.347 9.337,-2.347 4.065,0 7.749,1.173 11.051,3.52 3.303,2.347 5.463,5.085 6.479,8.215 1.016,2.999 1.525,5.998 1.525,8.997 v 16.624 c 1.397,-0.391 2.667,-0.587 3.811,-0.587 4.065,0 7.621,1.63 10.67,4.89 3.049,3.26 4.573,7.432 4.573,12.517 0,11.084 -6.288,16.625 -18.864,16.625 l -0.19,6.65 h 1.333 c 4.828,0 8.829,1.695 12.005,5.085 3.176,3.39 4.764,7.758 4.764,13.104 0,5.607 -1.715,10.105 -5.145,13.496 -3.43,3.39 -7.876,5.085 -13.339,5.085 h -38.11 c -5.335,0 -9.718,-1.695 -13.147,-5.085 -3.43,-3.391 -5.145,-7.824 -5.145,-13.3 0,-5.085 1.588,-9.388 4.763,-12.909 3.303,-3.651 7.368,-5.476 12.196,-5.476 l 1.333,-0.196 v -6.454 h -19.436 l -6.097,-0.391 c -9.274,-1.304 -16.641,-5.02 -22.104,-11.148 -5.462,-6.129 -8.194,-13.431 -8.194,-21.906 0,-5.867 1.398,-11.67 4.193,-17.407 z"
     id="text62"
     style="font-size:172.889px;font-family:MelodBold;-inkscape-font-specification:'MelodBold, Normal';text-align:center;white-space:pre;display:inline;fill:#34a5ff;stroke:#000000;stroke-width:1.64532;stroke-linecap:round;stroke-linejoin:round"
     aria-label="4"
     inkscape:label="x4" />
  <path
     d="M 155.916,116.694 V 98.6998 c 0,-7.5626 3.049,-13.1693 9.146,-16.8202 2.414,-1.4343 5.463,-2.1514 9.147,-2.1514 h 39.253 l 8.003,0.5867 c 17.149,3.1294 27.82,13.2345 32.012,30.3151 0.89,3.651 1.334,7.433 1.334,11.344 0,9.388 -2.985,17.864 -8.956,25.426 l -2.096,2.347 2.477,1.369 c 9.782,5.738 14.673,14.8 14.673,27.187 0,3.911 -0.572,7.693 -1.715,11.343 -1.017,3.651 -2.731,7.498 -5.145,11.54 -4.319,6.911 -10.607,12.452 -18.864,16.625 -8.131,4.042 -17.468,6.063 -28.011,6.063 -2.795,0 -5.717,-0.196 -8.766,-0.587 -6.224,-0.782 -11.814,-2.152 -16.768,-4.107 -4.827,-2.087 -8.956,-4.694 -12.386,-7.824 -1.651,-1.434 -3.303,-3.194 -4.954,-5.28 -1.651,-2.087 -2.858,-3.782 -3.62,-5.086 -2.16,-3.651 -3.24,-7.562 -3.24,-11.735 0,-4.563 1.334,-8.475 4.002,-11.735 2.795,-3.39 6.542,-5.411 11.242,-6.063 0.635,-0.13 1.525,-0.195 2.668,-0.195 3.684,0 6.923,1.043 9.718,3.129 1.524,1.173 2.795,2.347 3.811,3.52 0.381,0.392 1.461,1.761 3.239,4.108 2.922,3.781 7.432,5.672 13.529,5.672 1.525,0 2.732,-0.066 3.621,-0.196 7.495,-0.913 11.242,-3.977 11.242,-9.192 0,-1.435 -0.127,-2.543 -0.381,-3.325 -1.143,-3.26 -3.62,-5.281 -7.431,-6.063 h -1.334 -23.438 c -2.032,0 -3.811,-0.261 -5.335,-0.783 -4.7,-1.434 -8.13,-4.237 -10.29,-8.41 -1.27,-2.477 -1.905,-4.955 -1.905,-7.432 0,-3.39 0.952,-6.389 2.858,-8.997 1.905,-2.608 4.446,-4.368 7.622,-5.281 3.303,-0.912 6.796,-1.369 10.48,-1.369 h 12.386 c 5.462,0 9.273,-0.652 11.433,-1.956 2.286,-1.304 3.747,-3.52 4.382,-6.65 0.127,-0.521 0.191,-1.303 0.191,-2.347 0,-6.128 -3.875,-9.192 -11.624,-9.192 l -16.577,-0.196 v 1.565 c 0,4.955 -1.779,9.062 -5.336,12.322 -3.557,3.26 -7.939,4.889 -13.148,4.889 -4.827,0 -8.892,-1.76 -12.195,-5.28 -3.303,-3.521 -4.954,-7.889 -4.954,-13.104 z"
     id="text63"
     style="font-size:172.889px;font-family:MelodBold;-inkscape-font-specification:'MelodBold, Normal';text-align:center;white-space:pre;display:inline;fill:#34a5ff;stroke:#000000;stroke-width:1.64532;stroke-linecap:round;stroke-linejoin:round"
     aria-label="3"
     inkscape:label="x3" />
  <path
     d="m 157.765,191.204 52.018,-59.449 c 2.216,-2.216 3.324,-4.824 3.324,-7.822 0,-3.26 -0.978,-5.932 -2.933,-8.018 -1.826,-2.216 -4.368,-3.324 -7.627,-3.324 -0.521,0 -1.434,0.13 -2.738,0.391 -5.475,1.173 -8.213,4.823 -8.213,10.951 0,2.216 0.521,5.41 1.564,9.582 0.261,0.652 0.392,1.695 0.392,3.129 0,1.303 -0.066,2.346 -0.196,3.129 -0.913,7.561 -5.541,12.254 -13.884,14.08 -1.565,0.26 -2.738,0.391 -3.52,0.391 -5.997,0 -11.147,-2.738 -15.449,-8.214 -4.694,-5.997 -7.04,-13.819 -7.04,-23.466 0,-2.086 0.065,-3.716 0.195,-4.889 0.913,-10.039 4.433,-18.5126 10.56,-25.4222 6.258,-7.0399 14.602,-11.7984 25.031,-14.2755 5.085,-1.1733 10.104,-1.76 15.058,-1.76 11.603,0 21.837,3.0637 30.702,9.1911 8.865,5.997 14.602,13.6237 17.209,22.8796 1.173,4.172 1.76,8.083 1.76,11.734 0,8.343 -3.39,17.078 -10.169,26.204 l -1.955,2.542 -30.116,36.569 h 14.276 l -0.196,-3.325 c 0,-3.911 1.76,-7.365 5.28,-10.364 3.65,-3.129 7.953,-4.693 12.907,-4.693 2.346,0 4.954,0.521 7.822,1.564 2.998,0.913 5.475,2.803 7.431,5.671 2.086,2.738 3.129,5.867 3.129,9.387 v 17.795 l -0.196,3.129 c -1.564,10.691 -7.431,16.036 -17.6,16.036 h -72.159 l -5.476,-0.587 c -9.387,-2.347 -14.08,-7.692 -14.08,-16.035 0,-2.608 0.717,-5.476 2.151,-8.605 0.522,-1.434 1.434,-2.803 2.738,-4.106 z"
     id="text64"
     style="font-size:172.889px;font-family:MelodBold;-inkscape-font-specification:'MelodBold, Normal';text-align:center;white-space:pre;display:inline;fill:#34a5ff;stroke:#000000;stroke-width:1.66666;stroke-linecap:round;stroke-linejoin:round"
     aria-label="2"
     inkscape:label="x2" />
  <path
     d="m 187.154,79.7373 h 22.293 c 6.779,0 11.603,1.1734 14.471,3.52 2.868,2.3467 4.628,6.4533 5.28,12.32 v 2.7377 85.457 h 1.369 c 5.084,0 9.256,1.695 12.516,5.085 3.259,3.389 4.888,7.561 4.888,12.515 0,2.608 -0.456,5.085 -1.368,7.431 -2.869,7.823 -8.605,11.734 -17.209,11.734 h -39.307 c -5.215,0 -9.582,-1.76 -13.102,-5.28 -3.52,-3.52 -5.28,-7.953 -5.28,-13.298 0,-4.693 1.565,-8.67 4.693,-11.929 3.129,-3.389 7.171,-5.41 12.125,-6.062 l 1.564,-0.196 v -67.857 h -2.151 c -6.388,0 -11.407,-1.63 -15.058,-4.889 -3.65,-3.259 -5.475,-7.627 -5.475,-13.1021 0,-5.3451 1.825,-9.7125 5.475,-13.1021 3.651,-3.3897 8.409,-5.0845 14.276,-5.0845 z"
     id="text65"
     style="font-size:172.889px;font-family:MelodBold;-inkscape-font-specification:'MelodBold, Normal';text-align:center;white-space:pre;display:inline;fill:#34a5ff;stroke:#000000;stroke-width:1.66666;stroke-linecap:round;stroke-linejoin:round"
     aria-label="1"
     inkscape:label="x1" />
  <path
     d="m 156.355,172.039 0.391,-44 c 0,-14.731 5.019,-27.051 15.057,-36.9595 10.039,-9.9081 22.946,-14.8622 38.72,-14.8622 15.645,0 28.486,4.9541 38.525,14.8622 10.038,9.9085 15.057,22.2285 15.057,36.9595 v 44 c 0,13.298 -4.106,24.705 -12.32,34.222 -8.213,9.387 -19.229,15.123 -33.048,17.209 -2.738,0.391 -5.476,0.587 -8.214,0.587 -2.607,0 -5.28,-0.196 -8.017,-0.587 -7.823,-1.043 -14.797,-3.324 -20.925,-6.844 -5.997,-3.651 -11.081,-8.409 -15.253,-14.276 -6.649,-9.256 -9.973,-19.36 -9.973,-30.311 z m 56.124,16.231 c 4.041,-0.652 7.105,-2.477 9.191,-5.475 2.216,-3.129 3.324,-7.497 3.324,-13.102 v -39.307 c 0,-10.821 -4.172,-16.948 -12.515,-18.382 h -3.911 c -4.302,0.652 -7.497,2.412 -9.582,5.28 -2.086,2.868 -3.129,7.235 -3.129,13.102 v 39.307 c 0,5.997 1.238,10.625 3.715,13.884 2.608,3.259 6.062,4.889 10.365,4.889 1.173,0 2.02,-0.065 2.542,-0.196 z"
     id="text66"
     style="font-size:172.889px;font-family:MelodBold;-inkscape-font-specification:'MelodBold, Normal';text-align:center;white-space:pre;display:inline;fill:#34a5ff;stroke:#000000;stroke-width:1.66666;stroke-linecap:round;stroke-linejoin:round"
     aria-label="0"
     inkscape:label="x0" />
  <path
     d="m 211.553,129.443 v 42.667 c 0,17.926 -5.925,32.74 -17.777,44.444 -11.852,11.704 -26.963,17.556 -45.333,17.556 h -3.334 c -0.889,0 -1.926,-0.075 -3.111,-0.223 -1.185,-0.148 -2.667,-0.296 -4.444,-0.444 -1.778,-0.148 -4.074,-0.593 -6.889,-1.333 -2.667,-0.593 -5.556,-1.482 -8.667,-2.667 -9.185,-3.704 -16.222,-7.926 -21.111,-12.667 -4.8888,-4.889 -7.3332,-9.703 -7.3332,-14.444 v -2.889 c 0,-5.63 1.6296,-10.37 4.8889,-14.222 3.2593,-3.852 7.5553,-6.148 12.8893,-6.889 0.592,-0.148 1.629,-0.222 3.111,-0.222 3.259,0 6.74,1.037 10.444,3.111 l 7.333,5.555 c 3.111,2.223 6.074,3.852 8.889,4.889 2.815,0.889 5.778,1.334 8.889,1.334 l 4,-0.667 c 4.296,-1.185 7.333,-2.667 9.111,-4.445 1.778,-1.777 2.889,-4.592 3.333,-8.444 l 0.223,-2 v -5.111 l -1.334,0.889 -1.777,1.111 c -5.778,3.555 -12.741,5.333 -20.889,5.333 -5.778,0 -11.408,-0.889 -16.889,-2.666 -5.482,-1.926 -10.815,-4.815 -16,-8.667 -6.667,-5.037 -11.7778,-11.333 -15.3333,-18.889 -3.5556,-7.555 -5.3334,-15.481 -5.3334,-23.778 0,-6.666 1.0371,-13.037 3.1111,-19.111 2.2223,-6.222 5.6297,-12.1478 10.2226,-17.7774 11.851,-14.8148 27.851,-22.2221 47.999,-22.2221 16.297,0 29.926,5.037 40.889,15.111 11.111,10.0741 17.704,23.2595 19.778,39.5555 z m -64.444,8.667 c 1.482,0.296 2.667,0.444 3.556,0.444 0.889,0 2.074,-0.148 3.555,-0.444 3.852,-0.741 6.889,-2.445 9.111,-5.111 2.371,-2.815 3.556,-6.148 3.556,-10 0,-1.185 -0.296,-2.963 -0.889,-5.334 -1.185,-3.851 -3.63,-6.814 -7.333,-8.888 -2.519,-1.482 -5.26,-2.223 -8.223,-2.223 -3.407,0 -6.592,1.186 -9.555,3.556 -2.815,2.222 -4.519,4.741 -5.111,7.555 -0.593,2.667 -0.815,4.593 -0.667,5.778 0,7.852 4,12.741 12,14.667 z"
     id="text67"
     style="font-size:196.465px;font-family:MelodBold;-inkscape-font-specification:'MelodBold, Normal';text-align:center;white-space:pre;display:none;fill:#34a5ff;stroke:#000000;stroke-width:1.99999;stroke-linecap:round;stroke-linejoin:round"
     aria-label="9"
     inkscape:label="9" />
  <path
     d="m 107.665,140.999 -1.111,-1.111 -0.667,-1.112 c -4.296,-5.481 -6.4443,-12.444 -6.4443,-20.888 0,-6.371 1.2593,-12.815 3.7773,-19.3336 7.112,-17.9259 20.371,-28.5185 39.778,-31.7777 3.111,-0.4445 6.074,-0.6667 8.889,-0.6667 2.815,0 5.704,0.2222 8.667,0.6667 19.555,3.2592 32.888,13.8518 40,31.7777 2.518,6.5186 3.777,13.0366 3.777,19.5556 0,8.296 -2.148,15.185 -6.444,20.666 l -0.889,1.112 -1.111,1.111 1.555,1.111 1.556,1.111 c 3.407,2.815 6.296,6.222 8.667,10.222 4.296,6.667 6.444,14.37 6.444,23.111 0,11.259 -3.481,21.778 -10.444,31.556 -7.408,10.37 -17.334,17.703 -29.778,22 l -10.444,2.666 c -3.408,0.593 -7.26,0.889 -11.556,0.889 -8.148,0 -15.556,-1.185 -22.222,-3.555 -12.296,-4.297 -22.074,-11.482 -29.333,-21.556 -7.1115,-10.074 -10.667,-20.815 -10.667,-32.222 0,-8.593 2.1481,-16.222 6.4444,-22.889 2.3703,-4 5.2596,-7.407 8.6666,-10.222 l 1.333,-1.111 z m 33.778,-23.334 c 0.888,4.149 3.259,6.815 7.111,8 1.777,0.741 3.481,0.889 5.111,0.445 4.592,-0.741 7.481,-3.556 8.666,-8.445 0.297,-1.481 0.445,-2.518 0.445,-3.111 0,-2.518 -0.889,-4.889 -2.667,-7.111 -2.222,-2.666 -4.963,-4 -8.222,-4 -2.963,0 -5.704,1.334 -8.222,4 -1.778,2.222 -2.667,4.741 -2.667,7.556 z m -4.889,62.889 c 1.481,8.296 6.592,12.445 15.333,12.445 4.593,0 8.296,-1.482 11.111,-4.445 2.815,-2.963 4.222,-6.592 4.222,-10.889 0,-1.333 -0.148,-2.74 -0.444,-4.222 -0.296,-1.481 -0.963,-3.037 -2,-4.667 -3.259,-4.592 -7.556,-6.888 -12.889,-6.888 -3.852,0 -7.185,1.185 -10,3.555 -2.667,2.222 -4.37,5.333 -5.111,9.333 l -0.445,2.889 z"
     id="text68"
     style="font-size:196.465px;font-family:MelodBold;-inkscape-font-specification:'MelodBold, Normal';text-align:center;white-space:pre;display:none;fill:#34a5ff;stroke:#000000;stroke-width:1.99999;stroke-linecap:round;stroke-linejoin:round"
     aria-label="8"
     inkscape:label="8" />
  <path
     d="M 88.4427,111.665 V 90.7766 c 0,-6.5185 1.8518,-11.6296 5.5555,-15.3333 3.7037,-3.7037 8.8888,-5.5555 15.5558,-5.5555 h 70.666 l 7.778,0.2222 c 8.593,0.7407 15.63,4.1481 21.111,10.2222 5.481,6.074 8.222,13.4074 8.222,21.9998 0,3.852 -0.666,7.778 -2,11.778 l -3.111,7.111 -0.889,1.333 -2.222,4 -54.222,93.778 c -5.778,9.926 -13.037,14.889 -21.778,14.889 -3.852,0 -7.703,-1.037 -11.555,-3.111 -3.852,-2.075 -6.815,-4.741 -8.889,-8 -1.926,-3.26 -2.889,-6.963 -2.889,-11.112 0,-4.444 1.185,-8.592 3.556,-12.444 l 45.999,-78.666 0.889,-2 1.111,-1.778 c 0.445,-0.889 0.667,-1.704 0.667,-2.445 0,-0.592 -0.222,-1.259 -0.667,-2 -0.889,-1.481 -2.296,-2.222 -4.222,-2.222 h -2.889 -23.777 v 1.556 c 0,5.778 -2.075,10.666 -6.223,14.666 -4,3.852 -8.889,5.778 -14.666,5.778 -2.519,0 -5.334,-0.592 -8.445,-1.778 -8.4441,-3.555 -12.6663,-10.222 -12.6663,-20 z"
     id="text69"
     style="font-size:196.465px;font-family:MelodBold;-inkscape-font-specification:'MelodBold, Normal';text-align:center;white-space:pre;display:none;fill:#34a5ff;stroke:#000000;stroke-width:1.99999;stroke-linecap:round;stroke-linejoin:round"
     aria-label="7"
     inkscape:label="7" />
  <path
     d="m 92.2204,170.776 v -42.444 c 0,-17.926 5.926,-32.7406 17.7776,-44.4443 11.852,-11.7036 27.037,-17.5555 45.556,-17.5555 h 4.222 c 1.333,0 4,0.2963 8,0.8889 4.148,0.4445 8.889,1.7037 14.222,3.7778 9.333,3.7037 16.37,8.2222 21.111,13.5555 4.741,5.3333 7.111,10.8889 7.111,16.6666 0,2.815 -0.518,5.481 -1.555,8 -3.408,8.741 -9.556,13.111 -18.445,13.111 -2.37,0 -4.815,-0.444 -7.333,-1.333 l -3.778,-1.778 -0.667,-0.444 -6.666,-5.334 -4,-2.889 c -2.371,-1.333 -4.593,-2.222 -6.667,-2.666 -2.074,-0.445 -4.518,-0.667 -7.333,-0.667 l -4,0.889 c -7.408,1.926 -11.556,6.148 -12.445,12.667 v 2.222 5.333 l 1.334,-0.889 1.555,-1.111 c 5.778,-3.555 12.741,-5.333 20.889,-5.333 5.778,0 11.408,0.963 16.889,2.889 5.63,1.777 11.111,4.666 16.444,8.666 6.371,4.741 11.334,10.889 14.889,18.445 3.556,7.407 5.334,15.481 5.334,24.222 0,3.111 -0.297,6.518 -0.889,10.222 -0.593,3.704 -1.482,7.111 -2.667,10.222 -4.444,11.556 -11.852,20.815 -22.222,27.778 -10.222,6.815 -21.926,10.222 -35.111,10.222 -5.333,0 -10.889,-0.667 -16.667,-2 -13.629,-3.259 -24.518,-10.37 -32.666,-21.333 -8.1485,-10.963 -12.2226,-24.148 -12.2226,-39.556 z m 57.1106,22.667 c 0.889,0.296 2.223,0.444 4,0.444 4.445,0 8.149,-1.555 11.111,-4.666 2.963,-3.111 4.445,-7.111 4.445,-12 0,-3.408 -1.111,-6.445 -3.333,-9.111 -2.223,-2.667 -5.186,-4.445 -8.889,-5.334 -0.889,-0.296 -2.297,-0.444 -4.223,-0.444 -1.925,0 -3.925,0.444 -5.999,1.333 -6.223,2.519 -9.334,7.482 -9.334,14.889 0,3.556 1.111,6.741 3.334,9.556 2.37,2.666 5.333,4.444 8.888,5.333 z"
     id="text70"
     style="font-size:196.465px;font-family:MelodBold;-inkscape-font-specification:'MelodBold, Normal';text-align:center;white-space:pre;display:none;fill:#34a5ff;stroke:#000000;stroke-width:1.99999;stroke-linecap:round;stroke-linejoin:round"
     aria-label="6"
     inkscape:label="6" />
  <path
     d="m 150.675,166.24 h -34.104 -2.747 c -5.951,-0.763 -10.758,-3.052 -14.4198,-6.867 -3.5096,-3.967 -5.2644,-8.774 -5.2644,-14.42 V 87.731 c 0,-6.8666 1.9074,-12.2073 5.7222,-16.0222 3.815,-3.8148 9.232,-5.7222 16.251,-5.7222 h 70.04 l 2.747,0.2289 c 6.408,0 11.368,1.6785 14.877,5.0356 3.51,3.357 5.265,7.9348 5.265,13.7333 v 2.5177 15.1069 c 0,9.918 -3.968,16.632 -11.902,20.142 -3.205,1.373 -6.562,2.06 -10.072,2.06 -5.493,0 -10.376,-1.526 -14.648,-4.578 -4.273,-3.052 -6.409,-6.485 -6.409,-10.3 v -4.349 h -25.636 v 17.854 h 14.42 c 3.205,0 5.57,0.152 7.096,0.457 15.869,1.831 28.382,7.63 37.537,17.396 9.309,9.613 13.963,21.592 13.963,35.935 0,3.205 -0.229,6.409 -0.687,9.614 -2.136,13.886 -8.698,25.33 -19.684,34.333 -10.834,9.003 -24.263,13.504 -40.285,13.504 -15.106,0 -28.611,-3.433 -40.513,-10.3 -11.75,-6.866 -19.5318,-15.183 -23.3466,-24.949 -1.0682,-2.746 -1.6022,-5.722 -1.6022,-8.926 0,-5.493 1.6785,-10.148 5.0355,-13.962 3.5096,-3.968 8.0873,-6.333 13.7333,-7.096 3.967,-0.305 7.477,0.305 10.529,1.831 3.052,1.374 6.256,4.12 9.613,8.24 3.357,4.12 6.18,7.019 8.469,8.698 2.289,1.526 5.112,2.67 8.469,3.433 l 4.349,0.687 c 11.292,0 16.938,-4.273 16.938,-12.818 0,-0.61 -0.229,-2.06 -0.687,-4.349 -0.458,-2.289 -1.831,-4.349 -4.12,-6.18 -2.289,-1.831 -5.265,-2.746 -8.927,-2.746 z"
     id="text71"
     style="font-size:202.359px;font-family:MelodBold;-inkscape-font-specification:'MelodBold, Normal';text-align:center;white-space:pre;display:none;fill:#34a5ff;stroke:#000000;stroke-width:2.16666;stroke-linecap:round;stroke-linejoin:round"
     aria-label="5"
     inkscape:label="5" />
  <path
     d="M 82.4331,121.301 105.282,75.1318 c 5.182,-10.2074 12.563,-15.3111 22.142,-15.3111 6.753,0 12.249,2.1986 16.489,6.5956 4.24,4.397 6.36,9.7363 6.36,16.0177 0,2.9837 -0.707,6.0459 -2.12,9.1867 l -20.729,43.3423 -0.471,0.942 -0.471,1.649 c 0,3.141 1.413,4.711 4.24,4.711 h 1.178 14.133 v -18.609 c 0,-5.653 1.178,-10.521 3.533,-14.604 2.356,-4.24 5.418,-7.224 9.187,-8.951 3.769,-1.8848 7.616,-2.827 11.542,-2.827 5.025,0 9.579,1.4133 13.662,4.24 4.083,2.827 6.753,6.124 8.009,9.893 1.256,3.612 1.885,7.224 1.885,10.836 v 20.022 c 1.727,-0.471 3.297,-0.707 4.711,-0.707 5.025,0 9.422,1.963 13.191,5.889 3.769,3.926 5.653,8.951 5.653,15.076 0,13.348 -7.773,20.022 -23.32,20.022 l -0.235,8.009 h 1.649 c 5.967,0 10.914,2.041 14.839,6.124 3.926,4.083 5.889,9.344 5.889,15.782 0,6.753 -2.12,12.171 -6.36,16.254 -4.24,4.083 -9.736,6.124 -16.488,6.124 h -47.111 c -6.596,0 -12.014,-2.041 -16.254,-6.124 -4.24,-4.083 -6.36,-9.423 -6.36,-16.018 0,-6.125 1.963,-11.307 5.889,-15.547 4.083,-4.397 9.108,-6.595 15.076,-6.595 l 1.649,-0.236 v -7.773 h -24.027 l -7.538,-0.471 c -11.464,-1.571 -20.5717,-6.046 -27.3242,-13.427 -6.7526,-7.381 -10.1289,-16.175 -10.1289,-26.382 0,-7.067 1.7274,-14.055 5.1822,-20.964 z"
     id="text72"
     style="font-size:208.253px;font-family:MelodBold;-inkscape-font-specification:'MelodBold, Normal';text-align:center;white-space:pre;display:none;fill:#34a5ff;stroke:#000000;stroke-width:2.16666;stroke-linecap:round;stroke-linejoin:round"
     aria-label="4"
     inkscape:label="4" />
  <path
     d="M 85.4013,106.853 V 84.5689 c 0,-9.3659 3.8755,-16.3096 11.6266,-20.8311 3.0681,-1.7763 6.9441,-2.6644 11.6271,-2.6644 h 49.897 L 168.726,61.8 c 21.799,3.8756 35.364,16.3904 40.693,37.5444 1.13,4.5216 1.695,9.2046 1.695,14.0486 0,11.627 -3.795,22.123 -11.384,31.489 l -2.665,2.907 3.149,1.695 c 12.434,7.105 18.651,18.328 18.651,33.669 0,4.845 -0.726,9.527 -2.18,14.049 -1.291,4.521 -3.471,9.285 -6.54,14.291 -5.49,8.559 -13.483,15.421 -23.98,20.589 -10.334,5.006 -22.203,7.509 -35.606,7.509 -3.553,0 -7.267,-0.242 -11.142,-0.727 -7.913,-0.969 -15.018,-2.664 -21.316,-5.087 -6.136,-2.583 -11.384,-5.813 -15.744,-9.688 -2.099,-1.777 -4.1987,-3.957 -6.298,-6.54 -2.0992,-2.584 -3.6333,-4.683 -4.6022,-6.298 -2.7452,-4.522 -4.1178,-9.366 -4.1178,-14.533 0,-5.652 1.6956,-10.497 5.0867,-14.534 3.5526,-4.198 8.3163,-6.701 14.2913,-7.509 0.807,-0.161 1.938,-0.242 3.391,-0.242 4.683,0 8.801,1.292 12.353,3.876 1.938,1.453 3.553,2.906 4.845,4.36 0.484,0.484 1.857,2.18 4.117,5.086 3.714,4.683 9.447,7.025 17.198,7.025 1.938,0 3.472,-0.081 4.602,-0.242 9.528,-1.131 14.291,-4.926 14.291,-11.385 0,-1.776 -0.161,-3.149 -0.484,-4.118 -1.453,-4.037 -4.602,-6.54 -9.447,-7.509 h -1.695 -29.794 c -2.583,0 -4.844,-0.323 -6.782,-0.968 -5.975,-1.777 -10.334,-5.249 -13.08,-10.416 -1.614,-3.068 -2.422,-6.136 -2.422,-9.204 0,-4.199 1.211,-7.913 3.633,-11.143 2.423,-3.229 5.652,-5.409 9.689,-6.54 4.199,-1.13 8.64,-1.695 13.322,-1.695 h 15.745 c 6.944,0 11.788,-0.808 14.533,-2.422 2.907,-1.615 4.764,-4.36 5.571,-8.236 0.162,-0.646 0.243,-1.615 0.243,-2.907 0,-7.589 -4.926,-11.384 -14.776,-11.384 l -21.073,-0.242 v 1.938 c 0,6.136 -2.261,11.223 -6.782,15.26 -4.522,4.037 -10.093,6.055 -16.714,6.055 -6.136,0 -11.3035,-2.18 -15.502,-6.54 -4.1985,-4.36 -6.2977,-9.769 -6.2977,-16.229 z"
     id="text73"
     style="font-size:214.147px;font-family:MelodBold;-inkscape-font-specification:'MelodBold, Normal';text-align:center;white-space:pre;display:none;fill:#34a5ff;stroke:#000000;stroke-width:2.33332;stroke-linecap:round;stroke-linejoin:round"
     aria-label="3"
     inkscape:label="3" />
  <path
     d="m 86.8646,199.433 66.2044,-75.662 c 2.821,-2.821 4.231,-6.14 4.231,-9.956 0,-4.148 -1.244,-7.55 -3.733,-10.204 -2.323,-2.821 -5.559,-4.2315 -9.707,-4.2315 -0.664,0 -1.825,0.1659 -3.484,0.4977 -6.969,1.4938 -10.454,6.1388 -10.454,13.9378 0,2.821 0.664,6.886 1.991,12.196 0.332,0.829 0.498,2.157 0.498,3.982 0,1.659 -0.083,2.986 -0.249,3.982 -1.161,9.624 -7.052,15.597 -17.671,17.92 -1.991,0.332 -3.484,0.498 -4.48,0.498 -7.632,0 -14.1865,-3.485 -19.662,-10.454 -5.9733,-7.632 -8.96,-17.588 -8.96,-29.866 0,-2.655 0.083,-4.729 0.2489,-6.222 1.1615,-12.7767 5.6415,-23.5619 13.44,-32.3559 7.9641,-8.96 18.5841,-15.0163 31.8581,-18.1689 6.471,-1.4933 12.859,-2.24 19.164,-2.24 14.767,0 27.793,3.8993 39.075,11.6978 11.283,7.6326 18.584,17.3392 21.903,29.1199 1.493,5.3096 2.24,10.2871 2.24,14.9331 0,10.619 -4.314,21.736 -12.943,33.351 l -2.488,3.236 -38.329,46.542 h 18.169 l -0.249,-4.231 c 0,-4.978 2.24,-9.375 6.72,-13.191 4.646,-3.982 10.121,-5.974 16.426,-5.974 2.987,0 6.306,0.664 9.956,1.992 3.816,1.161 6.969,3.567 9.458,7.217 2.654,3.485 3.982,7.467 3.982,11.947 v 22.649 l -0.249,3.982 c -1.991,13.606 -9.458,20.409 -22.4,20.409 h -91.84 l -6.9687,-0.747 C 86.6157,233.033 80.6424,226.23 80.6424,215.61 c 0,-3.318 0.9125,-6.969 2.7377,-10.951 0.6637,-1.825 1.8252,-3.567 3.4845,-5.226 z"
     id="text74"
     style="font-size:220.041px;font-family:MelodBold;-inkscape-font-specification:'MelodBold, Normal';text-align:center;white-space:pre;display:none;fill:#34a5ff;stroke:#000000;stroke-width:2.43332;stroke-linecap:round;stroke-linejoin:round"
     aria-label="2"
     inkscape:label="2" />
  <path
     d="m 124.829,53.6415 h 30.4 c 9.244,0 15.822,1.6 19.733,4.7999 3.911,3.2 6.311,8.8 7.2,16.8 v 3.7333 116.5333 h 1.866 c 6.934,0 12.623,2.311 17.067,6.933 4.445,4.622 6.667,10.311 6.667,17.067 0,3.555 -0.622,6.933 -1.867,10.133 -3.911,10.667 -11.733,16 -23.467,16 h -53.599 c -7.111,0 -13.067,-2.4 -17.867,-7.2 -4.8,-4.8 -7.2,-10.845 -7.2,-18.133 0,-6.4 2.133,-11.823 6.4,-16.267 4.267,-4.622 9.778,-7.378 16.533,-8.267 l 2.134,-0.266 v -92.533 h -2.934 c -8.711,0 -15.555,-2.223 -20.533,-6.667 -4.978,-4.4444 -7.4666,-10.4 -7.4666,-17.8666 0,-7.2889 2.4886,-13.2444 7.4666,-17.8666 4.978,-4.6222 11.467,-6.9333 19.467,-6.9333 z"
     id="text75"
     style="font-size:235.758px;font-family:MelodBold;-inkscape-font-specification:'MelodBold, Normal';text-align:center;white-space:pre;display:none;fill:#34a5ff;stroke:#000000;stroke-width:2.66666;stroke-linecap:round;stroke-linejoin:round"
     aria-label="1"
     inkscape:label="1" />
  <path
     d="m 75.0278,180.945 0.5467,-61.5 c 0,-20.5906 7.0155,-37.8105 21.0466,-51.6594 14.0309,-13.8488 32.0709,-20.7733 54.1199,-20.7733 21.867,0 39.815,6.9245 53.846,20.7733 14.032,13.8489 21.047,31.0688 21.047,51.6594 v 61.5 c 0,18.587 -5.74,34.531 -17.22,47.833 -11.48,13.12 -26.878,21.138 -46.193,24.054 -3.827,0.546 -7.653,0.82 -11.48,0.82 -3.645,0 -7.38,-0.274 -11.207,-0.82 -10.933,-1.458 -20.682,-4.647 -29.246,-9.567 -8.383,-5.102 -15.4892,-11.753 -21.3202,-19.953 -9.2934,-12.938 -13.94,-27.06 -13.94,-42.367 z m 78.4462,22.687 c 5.649,-0.911 9.931,-3.462 12.847,-7.653 3.098,-4.374 4.647,-10.478 4.647,-18.314 v -54.94 c 0,-15.124 -5.832,-23.6884 -17.494,-25.6928 h -5.466 c -6.014,0.9111 -10.478,3.3708 -13.394,7.3798 -2.915,4.009 -4.373,10.113 -4.373,18.313 v 54.94 c 0,8.383 1.731,14.851 5.193,19.407 3.645,4.555 8.474,6.833 14.487,6.833 1.64,0 2.824,-0.091 3.553,-0.273 z"
     id="text76"
     style="font-size:241.652px;font-family:MelodBold;-inkscape-font-specification:'MelodBold, Normal';text-align:center;white-space:pre;display:none;fill:#34a5ff;stroke:#000000;stroke-width:2.99999;stroke-linecap:round;stroke-linejoin:round"
     aria-label="0"
     inkscape:label="0" />
</svg>
