<?xml version="1.0" encoding="UTF-8" standalone="no"?>
<!-- Created with Inkscape (http://www.inkscape.org/) -->

<svg
   width="901.99994"
   height="901.99994"
   viewBox="0 0 300.66665 300.66665"
   version="1.1"
   id="svg1"
   sodipodi:docname="shapes.svg"
   inkscape:version="1.3.2 (091e20e, 2023-11-25, custom)"
   xmlns:inkscape="http://www.inkscape.org/namespaces/inkscape"
   xmlns:sodipodi="http://sodipodi.sourceforge.net/DTD/sodipodi-0.dtd"
   xmlns="http://www.w3.org/2000/svg"
   xmlns:svg="http://www.w3.org/2000/svg">
  <sodipodi:namedview
     id="namedview1"
     pagecolor="#505050"
     bordercolor="#eeeeee"
     borderopacity="1"
     inkscape:showpageshadow="0"
     inkscape:pageopacity="0"
     inkscape:pagecheckerboard="0"
     inkscape:deskcolor="#505050"
     inkscape:zoom="1.4142136"
     inkscape:cx="376.53436"
     inkscape:cy="384.31253"
     inkscape:window-width="1920"
     inkscape:window-height="1027"
     inkscape:window-x="-8"
     inkscape:window-y="1072"
     inkscape:window-maximized="1"
     inkscape:current-layer="svg1" />
  <defs
     id="defs1" />
  <path
     id="circle1"
     style="display:none;fill:#000000;fill-opacity:1;stroke:none;stroke-width:2"
     inkscape:label="circle_black_900px-744centerpx"
     d="M 150.33334,0.33333334 A 150,150 0 0 0 0.33333334,150.33334 a 150,150 0 0 0 150.00000666,150 150,150 0 0 0 150,-150 150,150 0 0 0 -150,-150.00000666 z m 0,26.00000066 a 124,124 0 0 1 124,124.000006 124,124 0 0 1 -124,124 124,124 0 0 1 -124.000006,-124 A 124,124 0 0 1 150.33334,26.333334 Z" />
  <path
     id="path1"
     style="display:none;fill:#171717;fill-opacity:1;stroke:none;stroke-width:2"
     inkscape:label="circle_gray_894px-750centerpx"
     d="M 150.33334,1.3333333 A 149,149 0 0 0 1.3333333,150.33334 a 149,149 0 0 0 149.0000067,149 149,149 0 0 0 149,-149 149,149 0 0 0 -149,-149.0000067 z m 0,24.0000007 a 125,125 0 0 1 125,125.000006 125,125 0 0 1 -125,125 125,125 0 0 1 -125.000006,-125 A 125,125 0 0 1 150.33334,25.333334 Z" />
  <path
     id="path2"
     style="display:inline;opacity:1;fill:#282828;stroke:#000000;stroke-width:1.00000001;stroke-dasharray:none;stroke-opacity:1;fill-opacity:1"
     inkscape:label="COMBO_RING"
     d="M 150.33334 0.83333334 A 149.5 149.5 0 0 0 0.83333334 150.33334 A 149.5 149.5 0 0 0 150.33334 299.83334 A 149.5 149.5 0 0 0 299.83334 150.33334 A 149.5 149.5 0 0 0 150.33334 0.83333334 z M 150.33334 25.833334 A 124.5 124.50001 0 0 1 274.83334 150.33334 A 124.5 124.50001 0 0 1 150.33334 274.83334 A 124.5 124.50001 0 0 1 25.833334 150.33334 A 124.5 124.50001 0 0 1 150.33334 25.833334 z " />
  <path
     d="m 411.69712,292.35096 0.34578,-38.90002 q 0,-19.53646 13.31245,-32.67602 13.31246,-13.13957 34.23203,-13.13957 20.74668,0 34.05913,13.13957 13.31246,13.13956 13.31246,32.67602 v 38.90002 q 0,17.63468 -10.89201,30.25558 -10.89201,12.44801 -29.21824,15.21423 -3.63067,0.51867 -7.26134,0.51867 -3.45778,0 -7.08845,-0.51867 -10.37334,-1.38311 -18.49913,-6.05111 -7.95289,-4.84089 -13.48534,-12.6209 -8.81734,-12.27512 -8.81734,-26.7978 z m 49.61915,14.34979 q 5.35956,-0.86444 8.12578,-4.84089 2.93911,-4.14934 2.93911,-11.58356 v -34.75069 q 0,-14.34979 -11.06489,-16.25157 h -3.45778 q -5.70534,0.86444 -8.47156,4.668 -2.76623,3.80356 -2.76623,11.58357 v 34.75069 q 0,7.95289 3.28489,12.27512 3.45778,4.32222 9.16312,4.32222 1.556,0 2.24756,-0.17289 z"
     id="text66"
     style="font-size:172.889px;font-family:MelodBold;-inkscape-font-specification:'MelodBold, Normal';text-align:center;white-space:pre;fill:#34a5ff;stroke:#000000;stroke-width:1.47349;stroke-linecap:round;stroke-linejoin:round"
     transform="matrix(1.1311043,0,0,1.1311043,-309.31609,-158.63943)"
     aria-label="0"
     inkscape:label="t0" />
  <path
     d="m 415.06851,309.29409 45.98847,-52.55826 q 2.93912,-2.93911 2.93912,-6.91556 0,-4.32223 -2.59334,-7.08845 -2.42045,-2.93911 -6.74267,-2.93911 -0.69156,0 -2.42045,0.34577 -7.26134,1.55601 -7.26134,9.68179 0,2.93911 1.38312,8.47156 0.34577,0.86445 0.34577,2.76622 0,1.72889 -0.17288,2.76623 -1.21023,10.02756 -12.27512,12.44801 -2.07467,0.34578 -3.11201,0.34578 -7.95289,0 -13.65823,-7.26134 -6.224,-7.9529 -6.224,-20.74668 0,-2.76623 0.17289,-4.32223 1.21022,-13.31245 9.336,-22.47557 8.29868,-9.33601 22.1298,-12.6209 6.74267,-1.556 13.31245,-1.556 15.38712,0 27.14357,8.12578 11.75646,7.9529 15.21424,20.22802 1.556,5.53245 1.556,10.37334 0,11.0649 -8.99023,23.16713 l -1.72889,2.24755 -26.62491,32.33025 h 12.6209 l -0.17289,-2.93912 q 0,-5.18667 4.668,-9.16311 4.8409,-4.14934 11.41068,-4.14934 3.112,0 6.91556,1.38311 3.97645,1.21023 6.56978,5.01378 2.76623,3.63067 2.76623,8.29868 v 15.7329 l -0.17289,2.76622 q -2.07467,14.1769 -15.56001,14.1769 h -63.79605 l -4.84089,-0.51867 q -12.44801,-3.112 -12.44801,-14.1769 0,-3.45778 1.90178,-7.60711 0.69156,-1.90178 2.42045,-3.63067 z"
     id="text55"
     style="font-size:172.889px;font-family:MelodBold;-inkscape-font-specification:'MelodBold, Normal';text-align:center;white-space:pre;fill:#34a5ff;stroke:#000000;stroke-width:1.47349;stroke-linecap:round;stroke-linejoin:round"
     transform="matrix(1.1311043,0,0,1.1311043,-422.85427,-158.63943)"
     aria-label="2"
     inkscape:label="t2" />
  <path
     id="path3"
     style="display:inline;fill:#7321de;fill-opacity:1;stroke:none;stroke-width:2"
     inkscape:label="bar_based_on_gray_size"
     d="M 135.43555,2.0339698 C 59.448482,9.6695363 1.5362899,73.963861 1.3333333,150.33334 c 0,6.42756 0.4532201,12.7459 1.2428386,18.95898 0.03748,0.30307 0.075892,0.60602 0.1152344,0.90885 2.6117933,19.58792 9.0226907,37.9622 18.4778647,54.37566 0.09193,0.16054 0.184163,0.32092 0.276693,0.48112 3.172116,5.45936 6.669002,10.70294 10.486328,15.69401 0.171261,0.21945 0.343137,0.43842 0.515625,0.6569 3.881994,5.01728 8.047752,9.80425 12.526693,14.2832 4.478938,4.47895 9.265904,8.64472 14.283203,12.52669 0.218485,0.17249 0.437453,0.34437 0.656901,0.51563 4.991047,3.81731 10.234632,7.3142 15.694011,10.48633 0.160201,0.0925 0.320575,0.18476 0.48112,0.27669 16.413435,9.45517 34.787735,15.86609 54.375655,18.47786 0.30283,0.0393 0.60578,0.0778 0.90885,0.11524 6.21308,0.78962 12.53139,1.24284 18.95899,1.24284 0.33471,0.002 0.66544,0.005 1,-0.005 l -0.003,-24.00196 c -0.33323,0.004 -0.6861,0.002 -0.9974,0.007 -5.89519,-0.004 -11.78271,-0.42491 -17.61849,-1.25977 -0.0914,-0.0129 -0.18404,-0.0221 -0.2754,-0.0352 -5.84751,-0.84377 -11.62784,-2.10104 -17.29752,-3.76237 -0.0148,-0.004 -0.0295,-0.009 -0.0443,-0.013 -5.67974,-1.67022 -11.23366,-3.74184 -16.619794,-6.19921 -0.04399,-0.0201 -0.0882,-0.0398 -0.132162,-0.0599 -5.299172,-2.42925 -10.421918,-5.22623 -15.330729,-8.37044 -0.16464,-0.10548 -0.329378,-0.21083 -0.49349,-0.31706 -4.783615,-3.09491 -9.350036,-6.51325 -13.667317,-10.23112 -0.237902,-0.20477 -0.475251,-0.41002 -0.711589,-0.61654 -4.246337,-3.70766 -8.237001,-7.69832 -11.944662,-11.94466 -0.206518,-0.23634 -0.41177,-0.47369 -0.616536,-0.71159 -3.717866,-4.31728 -7.13621,-8.8837 -10.23112,-13.66732 -0.106226,-0.16408 -0.211581,-0.32884 -0.317057,-0.49348 -3.144213,-4.90881 -5.941188,-10.03156 -8.370443,-15.33073 -0.02014,-0.044 -0.03981,-0.0882 -0.0599,-0.13217 -2.457371,-5.38614 -4.528992,-10.94005 -6.199219,-16.61979 -0.0043,-0.0147 -0.0087,-0.0295 -0.01302,-0.0443 -1.661327,-5.66968 -2.918602,-11.45001 -3.762369,-17.29752 -0.0131,-0.0914 -0.02225,-0.18398 -0.03516,-0.2754 -0.834453,-5.83558 -1.255426,-11.7231 -1.259365,-17.61829 C 25.486923,85.771715 74.741259,31.719569 139.04101,25.908854 142.06797,25.497158 149.86041,22.994742 149.8828,13.712189 149.88304,2.4458388 137.66043,1.8170939 135.43555,2.0339698 Z"
     sodipodi:nodetypes="ccccccccsccccccccccccscscscccccccscsccccccc" />
</svg>
