<?xml version="1.0" encoding="UTF-8" standalone="no"?>
<!-- Created with Inkscape (http://www.inkscape.org/) -->

<svg
   width="901.99994"
   height="901.99994"
   viewBox="0 0 300.66665 300.66665"
   version="1.1"
   id="svg1"
   inkscape:version="1.3.1 (91b66b0783, 2023-11-16)"
   sodipodi:docname="TEMP_doubles.svg"
   xmlns:inkscape="http://www.inkscape.org/namespaces/inkscape"
   xmlns:sodipodi="http://sodipodi.sourceforge.net/DTD/sodipodi-0.dtd"
   xmlns="http://www.w3.org/2000/svg"
   xmlns:svg="http://www.w3.org/2000/svg">
  <sodipodi:namedview
     id="namedview1"
     pagecolor="#1a0040"
     bordercolor="#eeeeee"
     borderopacity="1"
     inkscape:showpageshadow="0"
     inkscape:pageopacity="0"
     inkscape:pagecheckerboard="0"
     inkscape:deskcolor="#000000"
     inkscape:document-units="px"
     inkscape:zoom="0.55496673"
     inkscape:cx="-27.028647"
     inkscape:cy="301.81989"
     inkscape:window-width="1858"
     inkscape:window-height="1057"
     inkscape:window-x="-8"
     inkscape:window-y="1072"
     inkscape:window-maximized="1"
     inkscape:current-layer="svg1" />
  <defs
     id="defs1" />
  <path
     d="m 505.74874,257.08161 v 33.19469 q 0,20.91957 -13.83112,34.5778 -13.83112,13.65823 -35.26936,13.65823 -1.72889,0 -2.59333,0 -1.03733,0 -2.42045,-0.17289 -1.38311,-0.17289 -3.45778,-0.34578 -2.07466,-0.17289 -5.35956,-1.03733 -3.112,-0.69156 -6.74267,-2.07467 -10.71912,-4.32222 -16.42445,-9.85467 -5.70534,-5.70534 -5.70534,-11.23779 0,-1.556 0,-2.24756 0,-6.56978 3.80356,-11.06489 3.80356,-4.49512 10.02756,-5.35956 0.69156,-0.17289 2.42045,-0.17289 3.80355,0 8.12578,2.42045 l 5.70534,4.32222 q 3.63067,2.59334 6.91556,3.80356 3.28489,1.03733 6.91556,1.03733 l 3.112,-0.51866 q 5.01378,-1.38312 7.08845,-3.45778 2.07467,-2.07467 2.59333,-6.56979 l 0.17289,-1.556 v -3.97644 l -1.03733,0.69155 -1.38311,0.86445 q -6.74267,4.14933 -16.25157,4.14933 -6.74267,0 -13.13956,-2.07467 -6.3969,-2.24755 -12.44801,-6.74267 -7.78001,-5.87822 -11.92934,-14.69556 -4.14934,-8.81734 -4.14934,-18.49913 0,-7.78 2.42045,-14.86845 2.59333,-7.26134 7.95289,-13.83112 13.83112,-17.2889 37.34403,-17.2889 19.01779,0 31.81157,11.75645 12.96668,11.75645 15.38713,30.77424 z m -50.13781,6.74267 q 1.72889,0.34578 2.76622,0.34578 1.03734,0 2.76623,-0.34578 4.49511,-0.86445 7.08845,-3.97645 2.76622,-3.28489 2.76622,-7.78 0,-1.38312 -0.69155,-4.14934 -1.38312,-4.49511 -5.70534,-6.91556 -2.93911,-1.72889 -6.39689,-1.72889 -3.97645,0 -7.43423,2.76622 -3.28489,2.59334 -3.97645,5.87823 -0.69155,3.112 -0.51867,4.49511 0,9.16312 9.33601,11.41068 z"
     id="text28"
     style="font-size:172.889px;font-family:MelodBold;-inkscape-font-specification:'MelodBold, Normal';text-align:center;white-space:pre;fill:#34a5ff;stroke:#000000;stroke-width:1.47349;stroke-linecap:round;stroke-linejoin:round"
     inkscape:label="9x"
     transform="matrix(1.1311043,0,0,1.1311043,-425.81294,-158.83499)"
     aria-label="9" />
  <path
     d="m 424.92318,266.07184 -0.86445,-0.86445 -0.51866,-0.86444 q -5.01378,-6.3969 -5.01378,-16.25157 0,-7.43423 2.93911,-15.04134 8.29867,-20.91957 30.94713,-24.72313 3.63067,-0.51867 6.91556,-0.51867 3.28489,0 6.74267,0.51867 22.82135,3.80356 31.12002,24.72313 2.93912,7.60711 2.93912,15.21423 0,9.68178 -5.01378,16.07868 l -0.69156,0.86444 -0.86444,0.86445 1.21022,0.86444 1.21022,0.86445 q 3.97645,3.28489 6.74267,7.95289 5.01378,7.78001 5.01378,17.98046 0,13.13956 -8.12578,24.55024 -8.64445,12.10223 -23.16713,17.11601 l -8.12578,2.07467 q -3.97645,0.69155 -8.99023,0.69155 -9.50889,0 -17.2889,-2.76622 -14.34979,-5.01378 -22.82135,-16.77024 -8.29867,-11.75645 -8.29867,-25.0689 0,-10.02756 5.01378,-17.80757 2.76623,-4.668 6.74267,-7.95289 l 1.03734,-0.86445 z m 26.27913,-18.15335 q 1.03733,4.84089 5.53245,6.224 2.07467,0.86445 3.97644,0.34578 5.35956,-0.86444 6.74268,-6.56978 0.34577,-1.72889 0.34577,-2.42045 0,-2.93911 -2.07466,-5.53244 -2.59334,-3.11201 -6.3969,-3.11201 -3.45778,0 -6.39689,3.11201 -2.07467,2.59333 -2.07467,5.87822 z m -3.80356,48.92759 q 1.72889,9.68178 11.92934,9.68178 5.35956,0 8.64445,-3.45778 3.28489,-3.45778 3.28489,-8.47156 0,-1.556 -0.34577,-3.28489 -0.34578,-1.72889 -1.55601,-3.63067 -3.80355,-5.35956 -10.02756,-5.35956 -4.49511,0 -7.78,2.76623 -3.11201,2.59333 -3.97645,7.26133 l -0.34578,2.24756 z"
     id="text27"
     style="font-size:172.889px;font-family:MelodBold;-inkscape-font-specification:'MelodBold, Normal';text-align:center;white-space:pre;fill:#34a5ff;stroke:#000000;stroke-width:1.47349;stroke-linecap:round;stroke-linejoin:round"
     inkscape:label="8x"
     transform="matrix(1.1311043,0,0,1.1311043,-425.15377,-158.63943)"
     aria-label="8" />
  <path
     d="m 409.96823,243.25049 v -16.25157 q 0,-7.60712 4.32223,-11.92934 4.32222,-4.32223 12.10223,-4.32223 h 54.9787 l 6.05112,0.17289 q 10.02756,0.86445 16.42445,7.9529 6.3969,7.08845 6.3969,17.11601 0,4.49511 -1.556,9.16312 l -2.42045,5.53244 -0.69156,1.03734 -1.72889,3.112 -42.18491,72.95916 q -6.74268,11.58356 -16.94313,11.58356 -4.49511,0 -8.99022,-2.42044 -4.49512,-2.42045 -6.91557,-6.22401 -2.24755,-3.80355 -2.24755,-8.64445 0,-5.18667 2.76622,-9.68178 l 35.78803,-61.20271 0.69155,-1.556 0.86445,-1.38311 q 0.51866,-1.03734 0.51866,-1.90178 0,-0.69156 -0.51866,-1.556 -1.03734,-1.72889 -3.28489,-1.72889 h -2.24756 -18.49912 v 1.21022 q 0,6.74267 -4.8409,11.41068 -4.668,4.49511 -11.41067,4.49511 -2.93911,0 -6.56978,-1.38311 -9.85468,-4.14934 -9.85468,-15.56001 z"
     id="text48"
     style="font-size:172.889px;font-family:MelodBold;-inkscape-font-specification:'MelodBold, Normal';text-align:center;white-space:pre;fill:#34a5ff;stroke:#000000;stroke-width:1.47349;stroke-linecap:round;stroke-linejoin:round"
     inkscape:label="7x"
     transform="matrix(1.0972258,0,0,1.1312987,-409.75427,-158.69291)"
     aria-label="7" />
  <path
     d="m 412.90735,289.23896 v -33.0218 q 0,-20.91957 13.83112,-34.5778 13.83112,-13.65823 35.44224,-13.65823 1.72889,0 3.28489,0 1.55601,0 6.22401,0.69156 4.84089,0.51866 11.0649,2.93911 10.892,4.32222 16.42445,10.54623 5.53245,6.224 5.53245,12.96667 0,3.28489 -1.21022,6.22401 -3.97645,10.20045 -14.34979,10.20045 -2.76623,0 -5.70534,-1.03733 l -2.93911,-1.38312 -0.51867,-0.34577 -5.18667,-4.14934 -3.112,-2.24756 q -2.76623,-1.556 -5.18667,-2.07467 -2.42045,-0.51866 -5.70534,-0.51866 l -3.112,0.69155 q -8.64445,2.24756 -9.68179,9.85468 v 1.72889 4.14933 l 1.03734,-0.69155 1.21022,-0.86445 q 6.74267,-4.14933 16.25157,-4.14933 6.74267,0 13.13956,2.24755 6.56979,2.07467 12.79379,6.74267 7.43423,5.53245 11.58356,14.34979 4.14934,8.64445 4.14934,18.8449 0,3.63067 -0.69156,7.9529 -0.69155,4.32222 -2.07466,7.95289 -5.18668,13.48534 -17.28891,21.61113 -11.92934,7.95289 -27.31646,7.95289 -6.224,0 -12.96667,-1.556 -15.90579,-3.80356 -25.41469,-16.59734 -9.50889,-12.79379 -9.50889,-30.77425 z m 44.43247,17.63468 q 1.03733,0.34578 3.112,0.34578 5.18667,0 8.64445,-3.63067 3.45778,-3.63067 3.45778,-9.33601 0,-3.97644 -2.59333,-7.08845 -2.59334,-3.112 -6.91556,-4.14933 -1.03734,-0.34578 -3.28489,-0.34578 -2.24756,0 -4.66801,1.03733 -7.26133,2.93912 -7.26133,11.58357 0,4.14933 2.59333,7.43423 2.76622,3.112 6.91556,4.14933 z"
     id="text50"
     style="font-size:172.889px;font-family:MelodBold;-inkscape-font-specification:'MelodBold, Normal';text-align:center;white-space:pre;fill:#34a5ff;stroke:#000000;stroke-width:1.47349;stroke-linecap:round;stroke-linejoin:round"
     inkscape:label="6x"
     transform="matrix(1.1311043,0,0,1.1311043,-427.10141,-158.63943)"
     aria-label="6" />
  <path
     d="m 458.98231,286.47274 h -25.76046 -2.07467 q -6.74267,-0.86445 -10.892,-5.18667 -3.97645,-4.49512 -3.97645,-10.89201 v -43.22225 q 0,-7.78001 4.32222,-12.10223 4.32223,-4.32223 12.27512,-4.32223 h 52.90404 l 2.07467,0.17289 q 7.26134,0 11.23778,3.80356 3.97645,3.80356 3.97645,10.37334 v 1.90178 11.41067 q 0,11.23779 -8.99023,15.21424 -3.63067,1.556 -7.60711,1.556 -6.22401,0 -11.0649,-3.45778 -4.84089,-3.45778 -4.84089,-7.78001 v -3.28489 h -19.36357 v 13.48534 h 10.89201 q 3.63067,0 5.35956,0.34578 17.98045,2.07467 28.35379,13.13957 10.54623,10.892 10.54623,27.14357 0,3.63067 -0.51866,7.26134 -2.42045,15.7329 -14.86846,25.93335 -12.27512,10.20045 -30.42846,10.20045 -17.11602,0 -30.60136,-7.78 -13.31245,-7.78001 -17.63468,-18.84491 -1.21022,-3.112 -1.21022,-6.74267 0,-6.224 3.80356,-10.54623 3.97644,-4.49511 10.37334,-5.35956 4.49511,-0.34577 7.95289,1.38312 3.45778,1.556 7.26134,6.224 3.80356,4.668 6.39689,6.56978 2.59334,1.72889 6.3969,2.59334 l 3.28489,0.51867 q 12.79378,0 12.79378,-9.68179 0,-0.69155 -0.51866,-3.28489 -0.51867,-2.59334 -3.112,-4.668 -2.59334,-2.07467 -6.74268,-2.07467 z"
     id="text51"
     style="font-size:172.889px;font-family:MelodBold;-inkscape-font-specification:'MelodBold, Normal';text-align:center;white-space:pre;fill:#34a5ff;stroke:#000000;stroke-width:1.47349;stroke-linecap:round;stroke-linejoin:round"
     inkscape:label="5x"
     transform="matrix(1.1311043,0,0,1.1311043,-423.70371,-158.63943)"
     aria-label="5" />
  <path
     d="m 411.52433,251.89494 16.77023,-33.88625 q 5.70534,-11.23778 16.25157,-11.23778 7.43423,0 12.10223,4.84089 4.668,4.84089 4.668,11.75645 0,3.28489 -1.556,6.74267 l -15.21423,31.81158 -0.34578,0.69156 -0.34578,1.21022 q 0,3.45778 3.11201,3.45778 h 0.86444 10.37334 v -13.65823 q 0,-6.22401 2.59334,-10.71912 2.59333,-4.668 6.74267,-6.56978 4.14933,-2.07467 8.47156,-2.07467 5.53245,0 10.02756,3.112 4.49512,3.112 5.87823,7.26134 1.38311,3.97645 1.38311,7.95289 v 14.69557 q 1.90178,-0.51867 3.45778,-0.51867 5.53245,0 9.68178,4.32223 4.14934,4.32222 4.14934,11.06489 0,14.69557 -17.11601,14.69557 l -0.17289,5.87823 h 1.21022 q 6.56978,0 10.89201,4.49511 4.32223,4.49511 4.32223,11.58356 0,7.43423 -4.66801,11.92934 -4.668,4.49512 -12.10223,4.49512 h -34.5778 q -7.26134,0 -11.92934,-4.49512 -4.668,-4.49511 -4.668,-11.75645 0,-6.74267 4.32222,-11.41067 4.49511,-4.84089 11.0649,-4.84089 l 1.21022,-0.17289 v -5.70534 h -17.63468 l -5.53245,-0.34578 q -12.62089,-1.72889 -20.05512,-9.85467 -7.43423,-8.12579 -7.43423,-19.36357 0,-7.78001 3.80356,-15.38712 z"
     id="text52"
     style="font-size:172.889px;font-family:MelodBold;-inkscape-font-specification:'MelodBold, Normal';text-align:center;white-space:pre;fill:#34a5ff;stroke:#000000;stroke-width:1.47349;stroke-linecap:round;stroke-linejoin:round"
     inkscape:label="4x"
     transform="matrix(1.1019343,0,0,1.1312717,-416.99071,-158.68481)"
     aria-label="4" />
  <path
     d="m 411.9565,243.42338 v -15.90579 q 0,-10.02757 8.29868,-14.86846 3.28489,-1.90178 8.29867,-1.90178 h 35.61513 l 7.26134,0.51867 q 23.34002,4.14934 29.04536,26.7978 1.21022,4.84089 1.21022,10.02756 0,12.44801 -8.12578,22.47557 l -1.90178,2.07467 2.24755,1.21022 q 13.31246,7.60712 13.31246,24.03157 0,5.18667 -1.556,10.02757 -1.38312,4.84089 -4.66801,10.20045 -5.87822,9.16311 -17.11601,14.69556 -11.0649,5.35956 -25.41468,5.35956 -3.80356,0 -7.9529,-0.51867 -8.47156,-1.03733 -15.21423,-3.63066 -6.56978,-2.76623 -11.23779,-6.91556 -2.24755,-1.90178 -4.49511,-4.66801 -2.24756,-2.76622 -3.28489,-4.49511 -2.93911,-4.84089 -2.93911,-10.37334 0,-6.05112 3.63067,-10.37334 3.80355,-4.49512 10.20045,-5.35956 0.86444,-0.17289 2.42044,-0.17289 5.01378,0 8.81734,2.76622 2.07467,1.556 3.45778,3.11201 0.51867,0.51866 2.93912,3.63066 3.97644,5.01379 12.27511,5.01379 2.07467,0 3.2849,-0.17289 10.20045,-1.21023 10.20045,-8.12579 0,-1.90178 -0.34578,-2.93911 -1.556,-4.32223 -6.74267,-5.35956 h -1.21022 -21.26535 q -2.76623,0 -4.84089,-0.69156 -6.3969,-1.90177 -9.33601,-7.43422 -1.72889,-3.28489 -1.72889,-6.56978 0,-4.49512 2.59333,-7.9529 2.59334,-3.45778 6.91556,-4.668 4.49512,-1.21023 9.5089,-1.21023 h 11.23778 q 7.43423,0 10.37335,-1.72889 3.112,-1.72889 3.97644,-5.87822 0.17289,-0.69156 0.17289,-2.07467 0,-8.12578 -10.54623,-8.12578 l -15.04134,-0.17289 v 1.38311 q 0,6.56978 -4.84089,10.89201 -4.8409,4.32222 -11.92935,4.32222 -6.56978,0 -11.06489,-4.668 -4.49512,-4.668 -4.49512,-11.58356 z"
     id="text54"
     style="font-size:172.889px;font-family:MelodBold;-inkscape-font-specification:'MelodBold, Normal';text-align:center;white-space:pre;fill:#34a5ff;stroke:#000000;stroke-width:1.47349;stroke-linecap:round;stroke-linejoin:round"
     inkscape:label="3x"
     transform="matrix(1.1311043,0,0,1.1311043,-423.77657,-158.63943)"
     aria-label="3" />
  <path
     d="m 415.06851,309.29409 45.98847,-52.55826 q 2.93912,-2.93911 2.93912,-6.91556 0,-4.32223 -2.59334,-7.08845 -2.42045,-2.93911 -6.74267,-2.93911 -0.69156,0 -2.42045,0.34577 -7.26134,1.55601 -7.26134,9.68179 0,2.93911 1.38312,8.47156 0.34577,0.86445 0.34577,2.76622 0,1.72889 -0.17288,2.76623 -1.21023,10.02756 -12.27512,12.44801 -2.07467,0.34578 -3.11201,0.34578 -7.95289,0 -13.65823,-7.26134 -6.224,-7.9529 -6.224,-20.74668 0,-2.76623 0.17289,-4.32223 1.21022,-13.31245 9.336,-22.47557 8.29868,-9.33601 22.1298,-12.6209 6.74267,-1.556 13.31245,-1.556 15.38712,0 27.14357,8.12578 11.75646,7.9529 15.21424,20.22802 1.556,5.53245 1.556,10.37334 0,11.0649 -8.99023,23.16713 l -1.72889,2.24755 -26.62491,32.33025 h 12.6209 l -0.17289,-2.93912 q 0,-5.18667 4.668,-9.16311 4.8409,-4.14934 11.41068,-4.14934 3.112,0 6.91556,1.38311 3.97645,1.21023 6.56978,5.01378 2.76623,3.63067 2.76623,8.29868 v 15.7329 l -0.17289,2.76622 q -2.07467,14.1769 -15.56001,14.1769 h -63.79605 l -4.84089,-0.51867 q -12.44801,-3.112 -12.44801,-14.1769 0,-3.45778 1.90178,-7.60711 0.69156,-1.90178 2.42045,-3.63067 z"
     id="text55"
     style="font-size:172.889px;font-family:MelodBold;-inkscape-font-specification:'MelodBold, Normal';text-align:center;white-space:pre;fill:#34a5ff;stroke:#000000;stroke-width:1.47349;stroke-linecap:round;stroke-linejoin:round"
     inkscape:label="2x"
     transform="matrix(1.1311043,0,0,1.1311043,-422.85427,-158.63943)"
     aria-label="2" />
  <path
     d="m 442.64426,210.74735 h 19.70934 q 8.99023,0 12.79379,3.11201 3.80356,3.112 4.668,10.892 v 2.42045 75.5525 h 1.21022 q 6.74268,0 11.0649,4.49511 4.32223,4.49511 4.32223,11.0649 0,3.45778 -1.21023,6.56978 -3.80355,10.37334 -15.21423,10.37334 h -34.75069 q -6.91556,0 -11.58356,-4.668 -4.66801,-4.66801 -4.66801,-11.75646 0,-6.224 4.14934,-10.54623 4.14934,-4.49511 10.71912,-5.35956 l 1.38311,-0.17288 v -59.99249 h -1.90178 q -8.47156,0 -13.31245,-4.32223 -4.84089,-4.32222 -4.84089,-11.58356 0,-7.08845 4.84089,-11.58356 4.84089,-4.49512 12.6209,-4.49512 z"
     id="text56"
     style="font-size:172.889px;font-family:MelodBold;-inkscape-font-specification:'MelodBold, Normal';text-align:center;white-space:pre;fill:#34a5ff;stroke:#000000;stroke-width:1.47349;stroke-linecap:round;stroke-linejoin:round"
     inkscape:label="1x"
     transform="matrix(1.1311043,0,0,1.1311043,-419.95414,-158.63943)"
     aria-label="1" />
  <path
     d="m 505.74874,257.08161 v 33.19469 q 0,20.91957 -13.83112,34.5778 -13.83112,13.65823 -35.26936,13.65823 -1.72889,0 -2.59333,0 -1.03733,0 -2.42045,-0.17289 -1.38311,-0.17289 -3.45778,-0.34578 -2.07466,-0.17289 -5.35956,-1.03733 -3.112,-0.69156 -6.74267,-2.07467 -10.71912,-4.32222 -16.42445,-9.85467 -5.70534,-5.70534 -5.70534,-11.23779 0,-1.556 0,-2.24756 0,-6.56978 3.80356,-11.06489 3.80356,-4.49512 10.02756,-5.35956 0.69156,-0.17289 2.42045,-0.17289 3.80355,0 8.12578,2.42045 l 5.70534,4.32222 q 3.63067,2.59334 6.91556,3.80356 3.28489,1.03733 6.91556,1.03733 l 3.112,-0.51866 q 5.01378,-1.38312 7.08845,-3.45778 2.07467,-2.07467 2.59333,-6.56979 l 0.17289,-1.556 v -3.97644 l -1.03733,0.69155 -1.38311,0.86445 q -6.74267,4.14933 -16.25157,4.14933 -6.74267,0 -13.13956,-2.07467 -6.3969,-2.24755 -12.44801,-6.74267 -7.78001,-5.87822 -11.92934,-14.69556 -4.14934,-8.81734 -4.14934,-18.49913 0,-7.78 2.42045,-14.86845 2.59333,-7.26134 7.95289,-13.83112 13.83112,-17.2889 37.34403,-17.2889 19.01779,0 31.81157,11.75645 12.96668,11.75645 15.38713,30.77424 z m -50.13781,6.74267 q 1.72889,0.34578 2.76622,0.34578 1.03734,0 2.76623,-0.34578 4.49511,-0.86445 7.08845,-3.97645 2.76622,-3.28489 2.76622,-7.78 0,-1.38312 -0.69155,-4.14934 -1.38312,-4.49511 -5.70534,-6.91556 -2.93911,-1.72889 -6.39689,-1.72889 -3.97645,0 -7.43423,2.76622 -3.28489,2.59334 -3.97645,5.87823 -0.69155,3.112 -0.51867,4.49511 0,9.16312 9.33601,11.41068 z"
     id="text57"
     style="font-size:172.889px;font-family:MelodBold;-inkscape-font-specification:'MelodBold, Normal';text-align:center;white-space:pre;fill:#34a5ff;stroke:#000000;stroke-width:1.47349;stroke-linecap:round;stroke-linejoin:round"
     inkscape:label="x9"
     transform="matrix(1.1311043,0,0,1.1311043,-307.82959,-158.63943)"
     aria-label="9" />
  <path
     d="m 424.92318,266.07184 -0.86445,-0.86445 -0.51866,-0.86444 q -5.01378,-6.3969 -5.01378,-16.25157 0,-7.43423 2.93911,-15.04134 8.29867,-20.91957 30.94713,-24.72313 3.63067,-0.51867 6.91556,-0.51867 3.28489,0 6.74267,0.51867 22.82135,3.80356 31.12002,24.72313 2.93912,7.60711 2.93912,15.21423 0,9.68178 -5.01378,16.07868 l -0.69156,0.86444 -0.86444,0.86445 1.21022,0.86444 1.21022,0.86445 q 3.97645,3.28489 6.74267,7.95289 5.01378,7.78001 5.01378,17.98046 0,13.13956 -8.12578,24.55024 -8.64445,12.10223 -23.16713,17.11601 l -8.12578,2.07467 q -3.97645,0.69155 -8.99023,0.69155 -9.50889,0 -17.2889,-2.76622 -14.34979,-5.01378 -22.82135,-16.77024 -8.29867,-11.75645 -8.29867,-25.0689 0,-10.02756 5.01378,-17.80757 2.76623,-4.668 6.74267,-7.95289 l 1.03734,-0.86445 z m 26.27913,-18.15335 q 1.03733,4.84089 5.53245,6.224 2.07467,0.86445 3.97644,0.34578 5.35956,-0.86444 6.74268,-6.56978 0.34577,-1.72889 0.34577,-2.42045 0,-2.93911 -2.07466,-5.53244 -2.59334,-3.11201 -6.3969,-3.11201 -3.45778,0 -6.39689,3.11201 -2.07467,2.59333 -2.07467,5.87822 z m -3.80356,48.92759 q 1.72889,9.68178 11.92934,9.68178 5.35956,0 8.64445,-3.45778 3.28489,-3.45778 3.28489,-8.47156 0,-1.556 -0.34577,-3.28489 -0.34578,-1.72889 -1.55601,-3.63067 -3.80355,-5.35956 -10.02756,-5.35956 -4.49511,0 -7.78,2.76623 -3.11201,2.59333 -3.97645,7.26133 l -0.34578,2.24756 z"
     id="text58"
     style="font-size:172.889px;font-family:MelodBold;-inkscape-font-specification:'MelodBold, Normal';text-align:center;white-space:pre;fill:#34a5ff;stroke:#000000;stroke-width:1.47349;stroke-linecap:round;stroke-linejoin:round"
     inkscape:label="x8"
     transform="matrix(1.1311043,0,0,1.1311043,-309.31609,-158.63943)"
     aria-label="8" />
  <path
     d="m 409.96823,243.25049 v -16.25157 q 0,-7.60712 4.32223,-11.92934 4.32222,-4.32223 12.10223,-4.32223 h 54.9787 l 6.05112,0.17289 q 10.02756,0.86445 16.42445,7.9529 6.3969,7.08845 6.3969,17.11601 0,4.49511 -1.556,9.16312 l -2.42045,5.53244 -0.69156,1.03734 -1.72889,3.112 -42.18491,72.95916 q -6.74268,11.58356 -16.94313,11.58356 -4.49511,0 -8.99022,-2.42044 -4.49512,-2.42045 -6.91557,-6.22401 -2.24755,-3.80355 -2.24755,-8.64445 0,-5.18667 2.76622,-9.68178 l 35.78803,-61.20271 0.69155,-1.556 0.86445,-1.38311 q 0.51866,-1.03734 0.51866,-1.90178 0,-0.69156 -0.51866,-1.556 -1.03734,-1.72889 -3.28489,-1.72889 h -2.24756 -18.49912 v 1.21022 q 0,6.74267 -4.8409,11.41068 -4.668,4.49511 -11.41067,4.49511 -2.93911,0 -6.56978,-1.38311 -9.85468,-4.14934 -9.85468,-15.56001 z"
     id="text59"
     style="font-size:172.889px;font-family:MelodBold;-inkscape-font-specification:'MelodBold, Normal';text-align:center;white-space:pre;fill:#34a5ff;stroke:#000000;stroke-width:1.47349;stroke-linecap:round;stroke-linejoin:round"
     inkscape:label="x7"
     transform="matrix(1.0972258,0,0,1.1312987,-297.24141,-158.69291)"
     aria-label="7" />
  <path
     d="m 412.90735,289.23896 v -33.0218 q 0,-20.91957 13.83112,-34.5778 13.83112,-13.65823 35.44224,-13.65823 1.72889,0 3.28489,0 1.55601,0 6.22401,0.69156 4.84089,0.51866 11.0649,2.93911 10.892,4.32222 16.42445,10.54623 5.53245,6.224 5.53245,12.96667 0,3.28489 -1.21022,6.22401 -3.97645,10.20045 -14.34979,10.20045 -2.76623,0 -5.70534,-1.03733 l -2.93911,-1.38312 -0.51867,-0.34577 -5.18667,-4.14934 -3.112,-2.24756 q -2.76623,-1.556 -5.18667,-2.07467 -2.42045,-0.51866 -5.70534,-0.51866 l -3.112,0.69155 q -8.64445,2.24756 -9.68179,9.85468 v 1.72889 4.14933 l 1.03734,-0.69155 1.21022,-0.86445 q 6.74267,-4.14933 16.25157,-4.14933 6.74267,0 13.13956,2.24755 6.56979,2.07467 12.79379,6.74267 7.43423,5.53245 11.58356,14.34979 4.14934,8.64445 4.14934,18.8449 0,3.63067 -0.69156,7.9529 -0.69155,4.32222 -2.07466,7.95289 -5.18668,13.48534 -17.28891,21.61113 -11.92934,7.95289 -27.31646,7.95289 -6.224,0 -12.96667,-1.556 -15.90579,-3.80356 -25.41469,-16.59734 -9.50889,-12.79379 -9.50889,-30.77425 z m 44.43247,17.63468 q 1.03733,0.34578 3.112,0.34578 5.18667,0 8.64445,-3.63067 3.45778,-3.63067 3.45778,-9.33601 0,-3.97644 -2.59333,-7.08845 -2.59334,-3.112 -6.91556,-4.14933 -1.03734,-0.34578 -3.28489,-0.34578 -2.24756,0 -4.66801,1.03733 -7.26133,2.93912 -7.26133,11.58357 0,4.14933 2.59333,7.43423 2.76622,3.112 6.91556,4.14933 z"
     id="text60"
     style="font-size:172.889px;font-family:MelodBold;-inkscape-font-specification:'MelodBold, Normal';text-align:center;white-space:pre;fill:#34a5ff;stroke:#000000;stroke-width:1.47349;stroke-linecap:round;stroke-linejoin:round"
     inkscape:label="x6"
     transform="matrix(1.1311043,0,0,1.1311043,-310.51736,-158.63943)"
     aria-label="6" />
  <path
     d="m 458.98231,286.47274 h -25.76046 -2.07467 q -6.74267,-0.86445 -10.892,-5.18667 -3.97645,-4.49512 -3.97645,-10.89201 v -43.22225 q 0,-7.78001 4.32222,-12.10223 4.32223,-4.32223 12.27512,-4.32223 h 52.90404 l 2.07467,0.17289 q 7.26134,0 11.23778,3.80356 3.97645,3.80356 3.97645,10.37334 v 1.90178 11.41067 q 0,11.23779 -8.99023,15.21424 -3.63067,1.556 -7.60711,1.556 -6.22401,0 -11.0649,-3.45778 -4.84089,-3.45778 -4.84089,-7.78001 v -3.28489 h -19.36357 v 13.48534 h 10.89201 q 3.63067,0 5.35956,0.34578 17.98045,2.07467 28.35379,13.13957 10.54623,10.892 10.54623,27.14357 0,3.63067 -0.51866,7.26134 -2.42045,15.7329 -14.86846,25.93335 -12.27512,10.20045 -30.42846,10.20045 -17.11602,0 -30.60136,-7.78 -13.31245,-7.78001 -17.63468,-18.84491 -1.21022,-3.112 -1.21022,-6.74267 0,-6.224 3.80356,-10.54623 3.97644,-4.49511 10.37334,-5.35956 4.49511,-0.34577 7.95289,1.38312 3.45778,1.556 7.26134,6.224 3.80356,4.668 6.39689,6.56978 2.59334,1.72889 6.3969,2.59334 l 3.28489,0.51867 q 12.79378,0 12.79378,-9.68179 0,-0.69155 -0.51866,-3.28489 -0.51867,-2.59334 -3.112,-4.668 -2.59334,-2.07467 -6.74268,-2.07467 z"
     id="text61"
     style="font-size:172.889px;font-family:MelodBold;-inkscape-font-specification:'MelodBold, Normal';text-align:center;white-space:pre;fill:#34a5ff;stroke:#000000;stroke-width:1.47349;stroke-linecap:round;stroke-linejoin:round"
     inkscape:label="x5"
     transform="matrix(1.1311043,0,0,1.1311043,-310.51736,-158.63943)"
     aria-label="5" />
  <path
     d="m 411.52433,251.89494 16.77023,-33.88625 q 5.70534,-11.23778 16.25157,-11.23778 7.43423,0 12.10223,4.84089 4.668,4.84089 4.668,11.75645 0,3.28489 -1.556,6.74267 l -15.21423,31.81158 -0.34578,0.69156 -0.34578,1.21022 q 0,3.45778 3.11201,3.45778 h 0.86444 10.37334 v -13.65823 q 0,-6.22401 2.59334,-10.71912 2.59333,-4.668 6.74267,-6.56978 4.14933,-2.07467 8.47156,-2.07467 5.53245,0 10.02756,3.112 4.49512,3.112 5.87823,7.26134 1.38311,3.97645 1.38311,7.95289 v 14.69557 q 1.90178,-0.51867 3.45778,-0.51867 5.53245,0 9.68178,4.32223 4.14934,4.32222 4.14934,11.06489 0,14.69557 -17.11601,14.69557 l -0.17289,5.87823 h 1.21022 q 6.56978,0 10.89201,4.49511 4.32223,4.49511 4.32223,11.58356 0,7.43423 -4.66801,11.92934 -4.668,4.49512 -12.10223,4.49512 h -34.5778 q -7.26134,0 -11.92934,-4.49512 -4.668,-4.49511 -4.668,-11.75645 0,-6.74267 4.32222,-11.41067 4.49511,-4.84089 11.0649,-4.84089 l 1.21022,-0.17289 v -5.70534 h -17.63468 l -5.53245,-0.34578 q -12.62089,-1.72889 -20.05512,-9.85467 -7.43423,-8.12579 -7.43423,-19.36357 0,-7.78001 3.80356,-15.38712 z"
     id="text62"
     style="font-size:172.889px;font-family:MelodBold;-inkscape-font-specification:'MelodBold, Normal';text-align:center;white-space:pre;fill:#34a5ff;stroke:#000000;stroke-width:1.47349;stroke-linecap:round;stroke-linejoin:round"
     inkscape:label="x4"
     transform="matrix(1.1021499,0,0,1.1312705,-301.12527,-158.68447)"
     aria-label="4" />
  <path
     d="m 411.9565,243.42338 v -15.90579 q 0,-10.02757 8.29868,-14.86846 3.28489,-1.90178 8.29867,-1.90178 h 35.61513 l 7.26134,0.51867 q 23.34002,4.14934 29.04536,26.7978 1.21022,4.84089 1.21022,10.02756 0,12.44801 -8.12578,22.47557 l -1.90178,2.07467 2.24755,1.21022 q 13.31246,7.60712 13.31246,24.03157 0,5.18667 -1.556,10.02757 -1.38312,4.84089 -4.66801,10.20045 -5.87822,9.16311 -17.11601,14.69556 -11.0649,5.35956 -25.41468,5.35956 -3.80356,0 -7.9529,-0.51867 -8.47156,-1.03733 -15.21423,-3.63066 -6.56978,-2.76623 -11.23779,-6.91556 -2.24755,-1.90178 -4.49511,-4.66801 -2.24756,-2.76622 -3.28489,-4.49511 -2.93911,-4.84089 -2.93911,-10.37334 0,-6.05112 3.63067,-10.37334 3.80355,-4.49512 10.20045,-5.35956 0.86444,-0.17289 2.42044,-0.17289 5.01378,0 8.81734,2.76622 2.07467,1.556 3.45778,3.11201 0.51867,0.51866 2.93912,3.63066 3.97644,5.01379 12.27511,5.01379 2.07467,0 3.2849,-0.17289 10.20045,-1.21023 10.20045,-8.12579 0,-1.90178 -0.34578,-2.93911 -1.556,-4.32223 -6.74267,-5.35956 h -1.21022 -21.26535 q -2.76623,0 -4.84089,-0.69156 -6.3969,-1.90177 -9.33601,-7.43422 -1.72889,-3.28489 -1.72889,-6.56978 0,-4.49512 2.59333,-7.9529 2.59334,-3.45778 6.91556,-4.668 4.49512,-1.21023 9.5089,-1.21023 h 11.23778 q 7.43423,0 10.37335,-1.72889 3.112,-1.72889 3.97644,-5.87822 0.17289,-0.69156 0.17289,-2.07467 0,-8.12578 -10.54623,-8.12578 l -15.04134,-0.17289 v 1.38311 q 0,6.56978 -4.84089,10.89201 -4.8409,4.32222 -11.92935,4.32222 -6.56978,0 -11.06489,-4.668 -4.49512,-4.668 -4.49512,-11.58356 z"
     id="text63"
     style="font-size:172.889px;font-family:MelodBold;-inkscape-font-specification:'MelodBold, Normal';text-align:center;white-space:pre;fill:#34a5ff;stroke:#000000;stroke-width:1.47349;stroke-linecap:round;stroke-linejoin:round"
     inkscape:label="x3"
     transform="matrix(1.1021499,0,0,1.1312705,-298.12209,-158.68447)"
     aria-label="3" />
  <path
     d="m 415.06851,309.29409 45.98847,-52.55826 q 2.93912,-2.93911 2.93912,-6.91556 0,-4.32223 -2.59334,-7.08845 -2.42045,-2.93911 -6.74267,-2.93911 -0.69156,0 -2.42045,0.34577 -7.26134,1.55601 -7.26134,9.68179 0,2.93911 1.38312,8.47156 0.34577,0.86445 0.34577,2.76622 0,1.72889 -0.17288,2.76623 -1.21023,10.02756 -12.27512,12.44801 -2.07467,0.34578 -3.11201,0.34578 -7.95289,0 -13.65823,-7.26134 -6.224,-7.9529 -6.224,-20.74668 0,-2.76623 0.17289,-4.32223 1.21022,-13.31245 9.336,-22.47557 8.29868,-9.33601 22.1298,-12.6209 6.74267,-1.556 13.31245,-1.556 15.38712,0 27.14357,8.12578 11.75646,7.9529 15.21424,20.22802 1.556,5.53245 1.556,10.37334 0,11.0649 -8.99023,23.16713 l -1.72889,2.24755 -26.62491,32.33025 h 12.6209 l -0.17289,-2.93912 q 0,-5.18667 4.668,-9.16311 4.8409,-4.14934 11.41068,-4.14934 3.112,0 6.91556,1.38311 3.97645,1.21023 6.56978,5.01378 2.76623,3.63067 2.76623,8.29868 v 15.7329 l -0.17289,2.76622 q -2.07467,14.1769 -15.56001,14.1769 h -63.79605 l -4.84089,-0.51867 q -12.44801,-3.112 -12.44801,-14.1769 0,-3.45778 1.90178,-7.60711 0.69156,-1.90178 2.42045,-3.63067 z"
     id="text64"
     style="font-size:172.889px;font-family:MelodBold;-inkscape-font-specification:'MelodBold, Normal';text-align:center;white-space:pre;fill:#34a5ff;stroke:#000000;stroke-width:1.47349;stroke-linecap:round;stroke-linejoin:round"
     inkscape:label="x2"
     transform="matrix(1.1311043,0,0,1.1311043,-311.71864,-158.63943)"
     aria-label="2" />
  <path
     d="m 442.64426,210.74735 h 19.70934 q 8.99023,0 12.79379,3.11201 3.80356,3.112 4.668,10.892 v 2.42045 75.5525 h 1.21022 q 6.74268,0 11.0649,4.49511 4.32223,4.49511 4.32223,11.0649 0,3.45778 -1.21023,6.56978 -3.80355,10.37334 -15.21423,10.37334 h -34.75069 q -6.91556,0 -11.58356,-4.668 -4.66801,-4.66801 -4.66801,-11.75646 0,-6.224 4.14934,-10.54623 4.14934,-4.49511 10.71912,-5.35956 l 1.38311,-0.17288 v -59.99249 h -1.90178 q -8.47156,0 -13.31245,-4.32223 -4.84089,-4.32222 -4.84089,-11.58356 0,-7.08845 4.84089,-11.58356 4.84089,-4.49512 12.6209,-4.49512 z"
     id="text65"
     style="font-size:172.889px;font-family:MelodBold;-inkscape-font-specification:'MelodBold, Normal';text-align:center;white-space:pre;fill:#34a5ff;stroke:#000000;stroke-width:1.47349;stroke-linecap:round;stroke-linejoin:round"
     inkscape:label="x1"
     transform="matrix(1.1311043,0,0,1.1311043,-313.52055,-158.63943)"
     aria-label="1" />
  <path
     d="m 411.69712,292.35096 0.34578,-38.90002 q 0,-19.53646 13.31245,-32.67602 13.31246,-13.13957 34.23203,-13.13957 20.74668,0 34.05913,13.13957 13.31246,13.13956 13.31246,32.67602 v 38.90002 q 0,17.63468 -10.89201,30.25558 -10.89201,12.44801 -29.21824,15.21423 -3.63067,0.51867 -7.26134,0.51867 -3.45778,0 -7.08845,-0.51867 -10.37334,-1.38311 -18.49913,-6.05111 -7.95289,-4.84089 -13.48534,-12.6209 -8.81734,-12.27512 -8.81734,-26.7978 z m 49.61915,14.34979 q 5.35956,-0.86444 8.12578,-4.84089 2.93911,-4.14934 2.93911,-11.58356 v -34.75069 q 0,-14.34979 -11.06489,-16.25157 h -3.45778 q -5.70534,0.86444 -8.47156,4.668 -2.76623,3.80356 -2.76623,11.58357 v 34.75069 q 0,7.95289 3.28489,12.27512 3.45778,4.32222 9.16312,4.32222 1.556,0 2.24756,-0.17289 z"
     id="text66"
     style="font-size:172.889px;font-family:MelodBold;-inkscape-font-specification:'MelodBold, Normal';text-align:center;white-space:pre;fill:#34a5ff;stroke:#000000;stroke-width:1.47349;stroke-linecap:round;stroke-linejoin:round"
     inkscape:label="x0"
     transform="matrix(1.1311043,0,0,1.1311043,-309.31609,-158.63943)"
     aria-label="0" />
</svg>
