<?xml version="1.0" encoding="UTF-8" standalone="no"?>
<!-- Created with Inkscape (http://www.inkscape.org/) -->

<svg
   width="901.99994"
   height="901.99994"
   viewBox="0 0 300.66665 300.66665"
   version="1.1"
   id="svg1"
   xmlns="http://www.w3.org/2000/svg"
   xmlns:svg="http://www.w3.org/2000/svg">
  <defs
     id="defs1" />
  <g
     id="layer1"
     transform="translate(-189.94096,-31.673233)">
    <path
       d="m 392.75289,336.66722 0.4833,-54.37169 q 0,-27.30668 18.60721,-45.67223 18.6072,-18.36555 47.84709,-18.36555 28.99824,0 47.60544,18.36555 18.60721,18.36555 18.60721,45.67223 v 54.37169 q 0,24.64851 -15.22408,42.2891 -15.22407,17.39895 -40.83919,21.26538 -5.07469,0.72495 -10.14938,0.72495 -4.83304,0 -9.90773,-0.72495 -14.49912,-1.93322 -25.85676,-8.45782 -11.116,-6.76626 -18.84886,-17.6406 -12.32425,-17.15729 -12.32425,-37.45606 z m 69.35412,20.05712 q 7.49121,-1.20826 11.35764,-6.76626 4.10809,-5.79964 4.10809,-16.19068 v -48.57205 q 0,-20.05712 -15.46573,-22.71529 h -4.83304 q -7.97452,1.20826 -11.84095,6.52461 -3.86643,5.31634 -3.86643,16.19068 v 48.57205 q 0,11.11599 4.59139,17.15729 4.83304,6.0413 12.80755,6.0413 2.17487,0 3.14148,-0.24165 z"
       id="text76"
       style="font-size:241.652px;font-family:MelodBold;-inkscape-font-specification:'MelodBold, Normal';text-align:center;white-space:pre;fill:#34a5ff;stroke:#000000;stroke-width:2.65228;stroke-linecap:round;stroke-linejoin:round"
       transform="matrix(1.1311043,0,0,1.1311043,-179.27358,-168.18581)"
       aria-label="0" />
  </g>
</svg>
