<?xml version="1.0" encoding="UTF-8" standalone="no"?>
<!-- Created with Inkscape (http://www.inkscape.org/) -->

<svg
   width="901.99994"
   height="901.99994"
   viewBox="0 0 300.66665 300.66665"
   version="1.1"
   id="svg1"
   xmlns="http://www.w3.org/2000/svg"
   xmlns:svg="http://www.w3.org/2000/svg">
  <defs
     id="defs1" />
  <path
     d="m 436.57737,221.5909 h 26.87641 q 12.25942,0 17.44609,4.24364 5.18668,4.24364 6.36547,14.85275 v 3.30062 103.02624 h 1.6503 q 9.19457,0 15.08852,6.12971 5.89395,6.12971 5.89395,15.08851 0,4.71516 -1.65031,8.9588 -5.18668,14.14548 -20.7467,14.14548 h -47.38736 q -9.43032,0 -15.79579,-6.36546 -6.36546,-6.36547 -6.36546,-16.03155 0,-8.48728 5.65819,-14.38123 5.65819,-6.12971 14.61699,-7.3085 l 1.88607,-0.23576 v -81.80803 h -2.59334 q -11.55214,0 -18.15336,-5.89395 -6.60123,-5.89394 -6.60123,-15.79578 0,-9.66608 6.60123,-15.79579 6.60122,-6.1297 17.21033,-6.1297 z"
     id="text75"
     style="font-size:235.758px;font-family:MelodBold;-inkscape-font-specification:'MelodBold, Normal';text-align:center;white-space:pre;display:inline;fill:#34a5ff;stroke:#000000;stroke-width:2.35758;stroke-linecap:round;stroke-linejoin:round"
     transform="matrix(1.1311043,0,0,1.1311043,-368.98424,-196.99987)"
     aria-label="1" />
</svg>
