<?xml version="1.0" encoding="UTF-8" standalone="no"?>
<!-- Created with Inkscape (http://www.inkscape.org/) -->

<svg
   width="901.99994"
   height="901.99994"
   viewBox="0 0 300.66665 300.66665"
   version="1.1"
   id="svg1"
   xmlns="http://www.w3.org/2000/svg"
   xmlns:svg="http://www.w3.org/2000/svg">
  <defs
     id="defs1" />
  <path
     d="m 442.64426,210.74735 h 19.70934 q 8.99023,0 12.79379,3.11201 3.80356,3.112 4.668,10.892 v 2.42045 75.5525 h 1.21022 q 6.74268,0 11.0649,4.49511 4.32223,4.49511 4.32223,11.0649 0,3.45778 -1.21023,6.56978 -3.80355,10.37334 -15.21423,10.37334 h -34.75069 q -6.91556,0 -11.58356,-4.668 -4.66801,-4.66801 -4.66801,-11.75646 0,-6.224 4.14934,-10.54623 4.14934,-4.49511 10.71912,-5.35956 l 1.38311,-0.17288 v -59.99249 h -1.90178 q -8.47156,0 -13.31245,-4.32223 -4.84089,-4.32222 -4.84089,-11.58356 0,-7.08845 4.84089,-11.58356 4.84089,-4.49512 12.6209,-4.49512 z"
     id="text56"
     style="font-size:172.889px;font-family:MelodBold;-inkscape-font-specification:'MelodBold, Normal';text-align:center;white-space:pre;fill:#34a5ff;stroke:#000000;stroke-width:1.47349;stroke-linecap:round;stroke-linejoin:round"
     transform="matrix(1.1311043,0,0,1.1311043,-419.95414,-158.63943)"
     aria-label="1" />
  <path
     d="m 411.69712,292.35096 0.34578,-38.90002 q 0,-19.53646 13.31245,-32.67602 13.31246,-13.13957 34.23203,-13.13957 20.74668,0 34.05913,13.13957 13.31246,13.13956 13.31246,32.67602 v 38.90002 q 0,17.63468 -10.89201,30.25558 -10.89201,12.44801 -29.21824,15.21423 -3.63067,0.51867 -7.26134,0.51867 -3.45778,0 -7.08845,-0.51867 -10.37334,-1.38311 -18.49913,-6.05111 -7.95289,-4.84089 -13.48534,-12.6209 -8.81734,-12.27512 -8.81734,-26.7978 z m 49.61915,14.34979 q 5.35956,-0.86444 8.12578,-4.84089 2.93911,-4.14934 2.93911,-11.58356 v -34.75069 q 0,-14.34979 -11.06489,-16.25157 h -3.45778 q -5.70534,0.86444 -8.47156,4.668 -2.76623,3.80356 -2.76623,11.58357 v 34.75069 q 0,7.95289 3.28489,12.27512 3.45778,4.32222 9.16312,4.32222 1.556,0 2.24756,-0.17289 z"
     id="text66"
     style="font-size:172.889px;font-family:MelodBold;-inkscape-font-specification:'MelodBold, Normal';text-align:center;white-space:pre;fill:#34a5ff;stroke:#000000;stroke-width:1.47349;stroke-linecap:round;stroke-linejoin:round"
     transform="matrix(1.1311043,0,0,1.1311043,-309.31609,-158.63943)"
     aria-label="0" />
</svg>
