<?xml version="1.0" encoding="UTF-8" standalone="no"?>
<!-- Created with Inkscape (http://www.inkscape.org/) -->

<svg
   width="901.99994"
   height="901.99994"
   viewBox="0 0 300.66665 300.66665"
   version="1.1"
   id="svg1"
   xmlns="http://www.w3.org/2000/svg"
   xmlns:svg="http://www.w3.org/2000/svg">
  <defs
     id="defs1" />
  <path
     d="m 442.64426,210.74735 h 19.70934 q 8.99023,0 12.79379,3.11201 3.80356,3.112 4.668,10.892 v 2.42045 75.5525 h 1.21022 q 6.74268,0 11.0649,4.49511 4.32223,4.49511 4.32223,11.0649 0,3.45778 -1.21023,6.56978 -3.80355,10.37334 -15.21423,10.37334 h -34.75069 q -6.91556,0 -11.58356,-4.668 -4.66801,-4.66801 -4.66801,-11.75646 0,-6.224 4.14934,-10.54623 4.14934,-4.49511 10.71912,-5.35956 l 1.38311,-0.17288 v -59.99249 h -1.90178 q -8.47156,0 -13.31245,-4.32223 -4.84089,-4.32222 -4.84089,-11.58356 0,-7.08845 4.84089,-11.58356 4.84089,-4.49512 12.6209,-4.49512 z"
     id="text56"
     style="font-size:172.889px;font-family:MelodBold;-inkscape-font-specification:'MelodBold, Normal';text-align:center;white-space:pre;fill:#34a5ff;stroke:#000000;stroke-width:1.47349;stroke-linecap:round;stroke-linejoin:round"
     transform="matrix(1.1311043,0,0,1.1311043,-419.95414,-158.63943)"
     aria-label="1" />
  <path
     d="m 442.64426,210.74735 h 19.70934 q 8.99023,0 12.79379,3.11201 3.80356,3.112 4.668,10.892 v 2.42045 75.5525 h 1.21022 q 6.74268,0 11.0649,4.49511 4.32223,4.49511 4.32223,11.0649 0,3.45778 -1.21023,6.56978 -3.80355,10.37334 -15.21423,10.37334 h -34.75069 q -6.91556,0 -11.58356,-4.668 -4.66801,-4.66801 -4.66801,-11.75646 0,-6.224 4.14934,-10.54623 4.14934,-4.49511 10.71912,-5.35956 l 1.38311,-0.17288 v -59.99249 h -1.90178 q -8.47156,0 -13.31245,-4.32223 -4.84089,-4.32222 -4.84089,-11.58356 0,-7.08845 4.84089,-11.58356 4.84089,-4.49512 12.6209,-4.49512 z"
     id="text65"
     style="font-size:172.889px;font-family:MelodBold;-inkscape-font-specification:'MelodBold, Normal';text-align:center;white-space:pre;fill:#34a5ff;stroke:#000000;stroke-width:1.47349;stroke-linecap:round;stroke-linejoin:round"
     transform="matrix(1.1311043,0,0,1.1311043,-313.52055,-158.63943)"
     aria-label="1" />
</svg>
