<?xml version="1.0" encoding="UTF-8" standalone="no"?>
<svg
   width="901.99994"
   height="901.99994"
   viewBox="0 0 300.66665 300.66665"
   version="1.1"
   xmlns="http://www.w3.org/2000/svg"
   xmlns:svg="http://www.w3.org/2000/svg">
  <path
     d="m 442.64426,210.74735 h 19.70934 q 8.99023,0 12.79379,3.11201 3.80356,3.112 4.668,10.892 v 2.42045 75.5525 h 1.21022 q 6.74268,0 11.0649,4.49511 4.32223,4.49511 4.32223,11.0649 0,3.45778 -1.21023,6.56978 -3.80355,10.37334 -15.21423,10.37334 h -34.75069 q -6.91556,0 -11.58356,-4.668 -4.66801,-4.66801 -4.66801,-11.75646 0,-6.224 4.14934,-10.54623 4.14934,-4.49511 10.71912,-5.35956 l 1.38311,-0.17288 v -59.99249 h -1.90178 q -8.47156,0 -13.31245,-4.32223 -4.84089,-4.32222 -4.84089,-11.58356 0,-7.08845 4.84089,-11.58356 4.84089,-4.49512 12.6209,-4.49512 z"
     style="fill:#34a5ff;stroke:#000000;stroke-width:1.47349;stroke-linecap:round;stroke-linejoin:round"
     transform="matrix(1.1311043,0,0,1.1311043,-419.95414,-158.63943)" />
  <path
     d="m 411.9565,243.42338 v -15.90579 q 0,-10.02757 8.29868,-14.86846 3.28489,-1.90178 8.29867,-1.90178 h 35.61513 l 7.26134,0.51867 q 23.34002,4.14934 29.04536,26.7978 1.21022,4.84089 1.21022,10.02756 0,12.44801 -8.12578,22.47557 l -1.90178,2.07467 2.24755,1.21022 q 13.31246,7.60712 13.31246,24.03157 0,5.18667 -1.556,10.02757 -1.38312,4.84089 -4.66801,10.20045 -5.87822,9.16311 -17.11601,14.69556 -11.0649,5.35956 -25.41468,5.35956 -3.80356,0 -7.9529,-0.51867 -8.47156,-1.03733 -15.21423,-3.63066 -6.56978,-2.76623 -11.23779,-6.91556 -2.24755,-1.90178 -4.49511,-4.66801 -2.24756,-2.76622 -3.28489,-4.49511 -2.93911,-4.84089 -2.93911,-10.37334 0,-6.05112 3.63067,-10.37334 3.80355,-4.49512 10.20045,-5.35956 0.86444,-0.17289 2.42044,-0.17289 5.01378,0 8.81734,2.76622 2.07467,1.556 3.45778,3.11201 0.51867,0.51866 2.93912,3.63066 3.97644,5.01379 12.27511,5.01379 2.07467,0 3.2849,-0.17289 10.20045,-1.21023 10.20045,-8.12579 0,-1.90178 -0.34578,-2.93911 -1.556,-4.32223 -6.74267,-5.35956 h -1.21022 -21.26535 q -2.76623,0 -4.84089,-0.69156 -6.3969,-1.90177 -9.33601,-7.43422 -1.72889,-3.28489 -1.72889,-6.56978 0,-4.49512 2.59333,-7.9529 2.59334,-3.45778 6.91556,-4.668 4.49512,-1.21023 9.5089,-1.21023 h 11.23778 q 7.43423,0 10.37335,-1.72889 3.112,-1.72889 3.97644,-5.87822 0.17289,-0.69156 0.17289,-2.07467 0,-8.12578 -10.54623,-8.12578 l -15.04134,-0.17289 v 1.38311 q 0,6.56978 -4.84089,10.89201 -4.8409,4.32222 -11.92935,4.32222 -6.56978,0 -11.06489,-4.668 -4.49512,-4.668 -4.49512,-11.58356 z"
     style="fill:#34a5ff;stroke:#000000;stroke-width:1.47349;stroke-linecap:round;stroke-linejoin:round"
     transform="matrix(1.1021499,0,0,1.1312705,-298.12209,-158.68447)" />
</svg>
