<?xml version="1.0" encoding="UTF-8" standalone="no"?>
<!-- Created with Inkscape (http://www.inkscape.org/) -->

<svg
   width="901.99994"
   height="901.99994"
   viewBox="0 0 300.66665 300.66665"
   version="1.1"
   id="svg1"
   xmlns="http://www.w3.org/2000/svg"
   xmlns:svg="http://www.w3.org/2000/svg">
  <defs
     id="defs1" />
  <path
     d="m 442.64426,210.74735 h 19.70934 q 8.99023,0 12.79379,3.11201 3.80356,3.112 4.668,10.892 v 2.42045 75.5525 h 1.21022 q 6.74268,0 11.0649,4.49511 4.32223,4.49511 4.32223,11.0649 0,3.45778 -1.21023,6.56978 -3.80355,10.37334 -15.21423,10.37334 h -34.75069 q -6.91556,0 -11.58356,-4.668 -4.66801,-4.66801 -4.66801,-11.75646 0,-6.224 4.14934,-10.54623 4.14934,-4.49511 10.71912,-5.35956 l 1.38311,-0.17288 v -59.99249 h -1.90178 q -8.47156,0 -13.31245,-4.32223 -4.84089,-4.32222 -4.84089,-11.58356 0,-7.08845 4.84089,-11.58356 4.84089,-4.49512 12.6209,-4.49512 z"
     id="text56"
     style="font-size:172.889px;font-family:MelodBold;-inkscape-font-specification:'MelodBold, Normal';text-align:center;white-space:pre;fill:#34a5ff;stroke:#000000;stroke-width:1.47349;stroke-linecap:round;stroke-linejoin:round"
     transform="matrix(1.1311043,0,0,1.1311043,-419.95414,-158.63943)"
     aria-label="1" />
  <path
     d="m 411.52433,251.89494 16.77023,-33.88625 q 5.70534,-11.23778 16.25157,-11.23778 7.43423,0 12.10223,4.84089 4.668,4.84089 4.668,11.75645 0,3.28489 -1.556,6.74267 l -15.21423,31.81158 -0.34578,0.69156 -0.34578,1.21022 q 0,3.45778 3.11201,3.45778 h 0.86444 10.37334 v -13.65823 q 0,-6.22401 2.59334,-10.71912 2.59333,-4.668 6.74267,-6.56978 4.14933,-2.07467 8.47156,-2.07467 5.53245,0 10.02756,3.112 4.49512,3.112 5.87823,7.26134 1.38311,3.97645 1.38311,7.95289 v 14.69557 q 1.90178,-0.51867 3.45778,-0.51867 5.53245,0 9.68178,4.32223 4.14934,4.32222 4.14934,11.06489 0,14.69557 -17.11601,14.69557 l -0.17289,5.87823 h 1.21022 q 6.56978,0 10.89201,4.49511 4.32223,4.49511 4.32223,11.58356 0,7.43423 -4.66801,11.92934 -4.668,4.49512 -12.10223,4.49512 h -34.5778 q -7.26134,0 -11.92934,-4.49512 -4.668,-4.49511 -4.668,-11.75645 0,-6.74267 4.32222,-11.41067 4.49511,-4.84089 11.0649,-4.84089 l 1.21022,-0.17289 v -5.70534 h -17.63468 l -5.53245,-0.34578 q -12.62089,-1.72889 -20.05512,-9.85467 -7.43423,-8.12579 -7.43423,-19.36357 0,-7.78001 3.80356,-15.38712 z"
     id="text62"
     style="font-size:172.889px;font-family:MelodBold;-inkscape-font-specification:'MelodBold, Normal';text-align:center;white-space:pre;fill:#34a5ff;stroke:#000000;stroke-width:1.47349;stroke-linecap:round;stroke-linejoin:round"
     transform="matrix(1.1021499,0,0,1.1312705,-301.12527,-158.68447)"
     aria-label="4" />
</svg>
