<?xml version="1.0" encoding="UTF-8" standalone="no"?>
<!-- Created with Inkscape (http://www.inkscape.org/) -->

<svg
   width="901.99994"
   height="901.99994"
   viewBox="0 0 300.66665 300.66665"
   version="1.1"
   id="svg1"
   xmlns="http://www.w3.org/2000/svg"
   xmlns:svg="http://www.w3.org/2000/svg">
  <defs
     id="defs1" />
  <path
     d="m 442.64426,210.74735 h 19.70934 q 8.99023,0 12.79379,3.11201 3.80356,3.112 4.668,10.892 v 2.42045 75.5525 h 1.21022 q 6.74268,0 11.0649,4.49511 4.32223,4.49511 4.32223,11.0649 0,3.45778 -1.21023,6.56978 -3.80355,10.37334 -15.21423,10.37334 h -34.75069 q -6.91556,0 -11.58356,-4.668 -4.66801,-4.66801 -4.66801,-11.75646 0,-6.224 4.14934,-10.54623 4.14934,-4.49511 10.71912,-5.35956 l 1.38311,-0.17288 v -59.99249 h -1.90178 q -8.47156,0 -13.31245,-4.32223 -4.84089,-4.32222 -4.84089,-11.58356 0,-7.08845 4.84089,-11.58356 4.84089,-4.49512 12.6209,-4.49512 z"
     id="text56"
     style="font-size:172.889px;font-family:MelodBold;-inkscape-font-specification:'MelodBold, Normal';text-align:center;white-space:pre;fill:#34a5ff;stroke:#000000;stroke-width:1.47349;stroke-linecap:round;stroke-linejoin:round"
     transform="matrix(1.1311043,0,0,1.1311043,-419.95414,-158.63943)"
     aria-label="1" />
  <path
     d="m 412.90735,289.23896 v -33.0218 q 0,-20.91957 13.83112,-34.5778 13.83112,-13.65823 35.44224,-13.65823 1.72889,0 3.28489,0 1.55601,0 6.22401,0.69156 4.84089,0.51866 11.0649,2.93911 10.892,4.32222 16.42445,10.54623 5.53245,6.224 5.53245,12.96667 0,3.28489 -1.21022,6.22401 -3.97645,10.20045 -14.34979,10.20045 -2.76623,0 -5.70534,-1.03733 l -2.93911,-1.38312 -0.51867,-0.34577 -5.18667,-4.14934 -3.112,-2.24756 q -2.76623,-1.556 -5.18667,-2.07467 -2.42045,-0.51866 -5.70534,-0.51866 l -3.112,0.69155 q -8.64445,2.24756 -9.68179,9.85468 v 1.72889 4.14933 l 1.03734,-0.69155 1.21022,-0.86445 q 6.74267,-4.14933 16.25157,-4.14933 6.74267,0 13.13956,2.24755 6.56979,2.07467 12.79379,6.74267 7.43423,5.53245 11.58356,14.34979 4.14934,8.64445 4.14934,18.8449 0,3.63067 -0.69156,7.9529 -0.69155,4.32222 -2.07466,7.95289 -5.18668,13.48534 -17.28891,21.61113 -11.92934,7.95289 -27.31646,7.95289 -6.224,0 -12.96667,-1.556 -15.90579,-3.80356 -25.41469,-16.59734 -9.50889,-12.79379 -9.50889,-30.77425 z m 44.43247,17.63468 q 1.03733,0.34578 3.112,0.34578 5.18667,0 8.64445,-3.63067 3.45778,-3.63067 3.45778,-9.33601 0,-3.97644 -2.59333,-7.08845 -2.59334,-3.112 -6.91556,-4.14933 -1.03734,-0.34578 -3.28489,-0.34578 -2.24756,0 -4.66801,1.03733 -7.26133,2.93912 -7.26133,11.58357 0,4.14933 2.59333,7.43423 2.76622,3.112 6.91556,4.14933 z"
     id="text60"
     style="font-size:172.889px;font-family:MelodBold;-inkscape-font-specification:'MelodBold, Normal';text-align:center;white-space:pre;fill:#34a5ff;stroke:#000000;stroke-width:1.47349;stroke-linecap:round;stroke-linejoin:round"
     transform="matrix(1.1311043,0,0,1.1311043,-310.51736,-158.63943)"
     aria-label="6" />
</svg>
