<?xml version="1.0" encoding="UTF-8" standalone="no"?>
<!-- Created with Inkscape (http://www.inkscape.org/) -->

<svg
   width="901.99994"
   height="901.99994"
   viewBox="0 0 300.66665 300.66665"
   version="1.1"
   id="svg1"
   xmlns="http://www.w3.org/2000/svg"
   xmlns:svg="http://www.w3.org/2000/svg">
  <defs
     id="defs1" />
  <path
     d="m 442.64426,210.74735 h 19.70934 q 8.99023,0 12.79379,3.11201 3.80356,3.112 4.668,10.892 v 2.42045 75.5525 h 1.21022 q 6.74268,0 11.0649,4.49511 4.32223,4.49511 4.32223,11.0649 0,3.45778 -1.21023,6.56978 -3.80355,10.37334 -15.21423,10.37334 h -34.75069 q -6.91556,0 -11.58356,-4.668 -4.66801,-4.66801 -4.66801,-11.75646 0,-6.224 4.14934,-10.54623 4.14934,-4.49511 10.71912,-5.35956 l 1.38311,-0.17288 v -59.99249 h -1.90178 q -8.47156,0 -13.31245,-4.32223 -4.84089,-4.32222 -4.84089,-11.58356 0,-7.08845 4.84089,-11.58356 4.84089,-4.49512 12.6209,-4.49512 z"
     id="text56"
     style="font-size:172.889px;font-family:MelodBold;-inkscape-font-specification:'MelodBold, Normal';text-align:center;white-space:pre;fill:#34a5ff;stroke:#000000;stroke-width:1.47349;stroke-linecap:round;stroke-linejoin:round"
     transform="matrix(1.1311043,0,0,1.1311043,-419.95414,-158.63943)"
     aria-label="1" />
  <path
     d="m 409.96823,243.25049 v -16.25157 q 0,-7.60712 4.32223,-11.92934 4.32222,-4.32223 12.10223,-4.32223 h 54.9787 l 6.05112,0.17289 q 10.02756,0.86445 16.42445,7.9529 6.3969,7.08845 6.3969,17.11601 0,4.49511 -1.556,9.16312 l -2.42045,5.53244 -0.69156,1.03734 -1.72889,3.112 -42.18491,72.95916 q -6.74268,11.58356 -16.94313,11.58356 -4.49511,0 -8.99022,-2.42044 -4.49512,-2.42045 -6.91557,-6.22401 -2.24755,-3.80355 -2.24755,-8.64445 0,-5.18667 2.76622,-9.68178 l 35.78803,-61.20271 0.69155,-1.556 0.86445,-1.38311 q 0.51866,-1.03734 0.51866,-1.90178 0,-0.69156 -0.51866,-1.556 -1.03734,-1.72889 -3.28489,-1.72889 h -2.24756 -18.49912 v 1.21022 q 0,6.74267 -4.8409,11.41068 -4.668,4.49511 -11.41067,4.49511 -2.93911,0 -6.56978,-1.38311 -9.85468,-4.14934 -9.85468,-15.56001 z"
     id="text59"
     style="font-size:172.889px;font-family:MelodBold;-inkscape-font-specification:'MelodBold, Normal';text-align:center;white-space:pre;fill:#34a5ff;stroke:#000000;stroke-width:1.47349;stroke-linecap:round;stroke-linejoin:round"
     transform="matrix(1.0972258,0,0,1.1312987,-297.24141,-158.69291)"
     aria-label="7" />
</svg>
