<?xml version="1.0" encoding="UTF-8" standalone="no"?>
<!-- Created with Inkscape (http://www.inkscape.org/) -->

<svg
   width="901.99994"
   height="901.99994"
   viewBox="0 0 300.66665 300.66665"
   version="1.1"
   id="svg1"
   xmlns="http://www.w3.org/2000/svg"
   xmlns:svg="http://www.w3.org/2000/svg">
  <defs
     id="defs1" />
  <path
     d="m 442.64426,210.74735 h 19.70934 q 8.99023,0 12.79379,3.11201 3.80356,3.112 4.668,10.892 v 2.42045 75.5525 h 1.21022 q 6.74268,0 11.0649,4.49511 4.32223,4.49511 4.32223,11.0649 0,3.45778 -1.21023,6.56978 -3.80355,10.37334 -15.21423,10.37334 h -34.75069 q -6.91556,0 -11.58356,-4.668 -4.66801,-4.66801 -4.66801,-11.75646 0,-6.224 4.14934,-10.54623 4.14934,-4.49511 10.71912,-5.35956 l 1.38311,-0.17288 v -59.99249 h -1.90178 q -8.47156,0 -13.31245,-4.32223 -4.84089,-4.32222 -4.84089,-11.58356 0,-7.08845 4.84089,-11.58356 4.84089,-4.49512 12.6209,-4.49512 z"
     id="text56"
     style="font-size:172.889px;font-family:MelodBold;-inkscape-font-specification:'MelodBold, Normal';text-align:center;white-space:pre;fill:#34a5ff;stroke:#000000;stroke-width:1.47349;stroke-linecap:round;stroke-linejoin:round"
     transform="matrix(1.1311043,0,0,1.1311043,-419.95414,-158.63943)"
     aria-label="1" />
  <path
     d="m 424.92318,266.07184 -0.86445,-0.86445 -0.51866,-0.86444 q -5.01378,-6.3969 -5.01378,-16.25157 0,-7.43423 2.93911,-15.04134 8.29867,-20.91957 30.94713,-24.72313 3.63067,-0.51867 6.91556,-0.51867 3.28489,0 6.74267,0.51867 22.82135,3.80356 31.12002,24.72313 2.93912,7.60711 2.93912,15.21423 0,9.68178 -5.01378,16.07868 l -0.69156,0.86444 -0.86444,0.86445 1.21022,0.86444 1.21022,0.86445 q 3.97645,3.28489 6.74267,7.95289 5.01378,7.78001 5.01378,17.98046 0,13.13956 -8.12578,24.55024 -8.64445,12.10223 -23.16713,17.11601 l -8.12578,2.07467 q -3.97645,0.69155 -8.99023,0.69155 -9.50889,0 -17.2889,-2.76622 -14.34979,-5.01378 -22.82135,-16.77024 -8.29867,-11.75645 -8.29867,-25.0689 0,-10.02756 5.01378,-17.80757 2.76623,-4.668 6.74267,-7.95289 l 1.03734,-0.86445 z m 26.27913,-18.15335 q 1.03733,4.84089 5.53245,6.224 2.07467,0.86445 3.97644,0.34578 5.35956,-0.86444 6.74268,-6.56978 0.34577,-1.72889 0.34577,-2.42045 0,-2.93911 -2.07466,-5.53244 -2.59334,-3.11201 -6.3969,-3.11201 -3.45778,0 -6.39689,3.11201 -2.07467,2.59333 -2.07467,5.87822 z m -3.80356,48.92759 q 1.72889,9.68178 11.92934,9.68178 5.35956,0 8.64445,-3.45778 3.28489,-3.45778 3.28489,-8.47156 0,-1.556 -0.34577,-3.28489 -0.34578,-1.72889 -1.55601,-3.63067 -3.80355,-5.35956 -10.02756,-5.35956 -4.49511,0 -7.78,2.76623 -3.11201,2.59333 -3.97645,7.26133 l -0.34578,2.24756 z"
     id="text58"
     style="font-size:172.889px;font-family:MelodBold;-inkscape-font-specification:'MelodBold, Normal';text-align:center;white-space:pre;fill:#34a5ff;stroke:#000000;stroke-width:1.47349;stroke-linecap:round;stroke-linejoin:round"
     transform="matrix(1.1311043,0,0,1.1311043,-309.31609,-158.63943)"
     aria-label="8" />
</svg>
