<?xml version="1.0" encoding="UTF-8" standalone="no"?>
<!-- Created with Inkscape (http://www.inkscape.org/) -->

<svg
   width="901.99994"
   height="901.99994"
   viewBox="0 0 300.66665 300.66665"
   version="1.1"
   id="svg1"
   xmlns="http://www.w3.org/2000/svg"
   xmlns:svg="http://www.w3.org/2000/svg">
  <defs
     id="defs1" />
  <path
     d="m 442.64426,210.74735 h 19.70934 q 8.99023,0 12.79379,3.11201 3.80356,3.112 4.668,10.892 v 2.42045 75.5525 h 1.21022 q 6.74268,0 11.0649,4.49511 4.32223,4.49511 4.32223,11.0649 0,3.45778 -1.21023,6.56978 -3.80355,10.37334 -15.21423,10.37334 h -34.75069 q -6.91556,0 -11.58356,-4.668 -4.66801,-4.66801 -4.66801,-11.75646 0,-6.224 4.14934,-10.54623 4.14934,-4.49511 10.71912,-5.35956 l 1.38311,-0.17288 v -59.99249 h -1.90178 q -8.47156,0 -13.31245,-4.32223 -4.84089,-4.32222 -4.84089,-11.58356 0,-7.08845 4.84089,-11.58356 4.84089,-4.49512 12.6209,-4.49512 z"
     id="text56"
     style="font-size:172.889px;font-family:MelodBold;-inkscape-font-specification:'MelodBold, Normal';text-align:center;white-space:pre;fill:#34a5ff;stroke:#000000;stroke-width:1.47349;stroke-linecap:round;stroke-linejoin:round"
     transform="matrix(1.1311043,0,0,1.1311043,-419.95414,-158.63943)"
     aria-label="1" />
  <path
     d="m 505.74874,257.08161 v 33.19469 q 0,20.91957 -13.83112,34.5778 -13.83112,13.65823 -35.26936,13.65823 -1.72889,0 -2.59333,0 -1.03733,0 -2.42045,-0.17289 -1.38311,-0.17289 -3.45778,-0.34578 -2.07466,-0.17289 -5.35956,-1.03733 -3.112,-0.69156 -6.74267,-2.07467 -10.71912,-4.32222 -16.42445,-9.85467 -5.70534,-5.70534 -5.70534,-11.23779 0,-1.556 0,-2.24756 0,-6.56978 3.80356,-11.06489 3.80356,-4.49512 10.02756,-5.35956 0.69156,-0.17289 2.42045,-0.17289 3.80355,0 8.12578,2.42045 l 5.70534,4.32222 q 3.63067,2.59334 6.91556,3.80356 3.28489,1.03733 6.91556,1.03733 l 3.112,-0.51866 q 5.01378,-1.38312 7.08845,-3.45778 2.07467,-2.07467 2.59333,-6.56979 l 0.17289,-1.556 v -3.97644 l -1.03733,0.69155 -1.38311,0.86445 q -6.74267,4.14933 -16.25157,4.14933 -6.74267,0 -13.13956,-2.07467 -6.3969,-2.24755 -12.44801,-6.74267 -7.78001,-5.87822 -11.92934,-14.69556 -4.14934,-8.81734 -4.14934,-18.49913 0,-7.78 2.42045,-14.86845 2.59333,-7.26134 7.95289,-13.83112 13.83112,-17.2889 37.34403,-17.2889 19.01779,0 31.81157,11.75645 12.96668,11.75645 15.38713,30.77424 z m -50.13781,6.74267 q 1.72889,0.34578 2.76622,0.34578 1.03734,0 2.76623,-0.34578 4.49511,-0.86445 7.08845,-3.97645 2.76622,-3.28489 2.76622,-7.78 0,-1.38312 -0.69155,-4.14934 -1.38312,-4.49511 -5.70534,-6.91556 -2.93911,-1.72889 -6.39689,-1.72889 -3.97645,0 -7.43423,2.76622 -3.28489,2.59334 -3.97645,5.87823 -0.69155,3.112 -0.51867,4.49511 0,9.16312 9.33601,11.41068 z"
     id="text57"
     style="font-size:172.889px;font-family:MelodBold;-inkscape-font-specification:'MelodBold, Normal';text-align:center;white-space:pre;fill:#34a5ff;stroke:#000000;stroke-width:1.47349;stroke-linecap:round;stroke-linejoin:round"
     transform="matrix(1.1311043,0,0,1.1311043,-307.82959,-158.63943)"
     aria-label="9" />
</svg>
