<?xml version="1.0" encoding="UTF-8" standalone="no"?>
<!-- Created with Inkscape (http://www.inkscape.org/) -->

<svg
   width="901.99994"
   height="901.99994"
   viewBox="0 0 300.66665 300.66665"
   version="1.1"
   id="svg1"
   xmlns="http://www.w3.org/2000/svg"
   xmlns:svg="http://www.w3.org/2000/svg">
  <defs
     id="defs1" />
  <path
     d="m 402.99759,344.30342 58.5309,-66.89246 q 3.7407,-3.7407 3.7407,-8.80164 0,-5.50103 -3.30061,-9.02168 -3.08058,-3.7407 -8.5816,-3.7407 -0.88017,0 -3.08058,0.44008 -9.24172,1.98037 -9.24172,12.3223 0,3.7407 1.76033,10.78201 0.44008,1.1002 0.44008,3.52065 0,2.20041 -0.22004,3.52066 -1.54029,12.76238 -15.62291,15.84295 -2.64049,0.44008 -3.96074,0.44008 -10.12189,0 -17.38324,-9.24172 -7.92148,-10.12188 -7.92148,-26.40492 0,-3.52065 0.22005,-5.50102 1.54028,-16.94316 11.88221,-28.60533 10.56197,-11.88222 28.16525,-16.063 8.5816,-1.98036 16.94316,-1.98036 19.58364,0 34.54643,10.34192 14.96279,10.12189 19.36361,25.7448 1.98037,7.04131 1.98037,13.20246 0,14.08262 -11.44213,29.48549 l -2.20041,2.86054 -33.88632,41.14766 h 16.063 l -0.22004,-3.74069 q 0,-6.60123 5.9411,-11.66218 6.16115,-5.28098 14.52271,-5.28098 3.96074,0 8.80164,1.76033 5.06094,1.54028 8.36156,6.38119 3.52065,4.62086 3.52065,10.56196 v 20.02374 l -0.22004,3.52065 q -2.64049,18.04336 -19.80369,18.04336 h -81.19513 l -6.16115,-0.66012 q -15.84295,-3.96074 -15.84295,-18.04336 0,-4.40082 2.42045,-9.68181 0.88017,-2.42045 3.08058,-4.62086 z"
     id="text74"
     style="font-size:220.041px;font-family:MelodBold;-inkscape-font-specification:'MelodBold, Normal';text-align:center;white-space:pre;display:inline;fill:#34a5ff;stroke:#000000;stroke-width:2.15129;stroke-linecap:round;stroke-linejoin:round"
     transform="matrix(1.1311043,0,0,1.1311043,-368.96574,-190.00871)"
     aria-label="2" />
</svg>
