<?xml version="1.0" encoding="UTF-8" standalone="no"?>
<!-- Created with Inkscape (http://www.inkscape.org/) -->

<svg
   width="901.99994"
   height="901.99994"
   viewBox="0 0 300.66665 300.66665"
   version="1.1"
   id="svg1"
   xmlns="http://www.w3.org/2000/svg"
   xmlns:svg="http://www.w3.org/2000/svg">
  <defs
     id="defs1" />
  <path
     d="m 415.06851,309.29409 45.98847,-52.55826 q 2.93912,-2.93911 2.93912,-6.91556 0,-4.32223 -2.59334,-7.08845 -2.42045,-2.93911 -6.74267,-2.93911 -0.69156,0 -2.42045,0.34577 -7.26134,1.55601 -7.26134,9.68179 0,2.93911 1.38312,8.47156 0.34577,0.86445 0.34577,2.76622 0,1.72889 -0.17288,2.76623 -1.21023,10.02756 -12.27512,12.44801 -2.07467,0.34578 -3.11201,0.34578 -7.95289,0 -13.65823,-7.26134 -6.224,-7.9529 -6.224,-20.74668 0,-2.76623 0.17289,-4.32223 1.21022,-13.31245 9.336,-22.47557 8.29868,-9.33601 22.1298,-12.6209 6.74267,-1.556 13.31245,-1.556 15.38712,0 27.14357,8.12578 11.75646,7.9529 15.21424,20.22802 1.556,5.53245 1.556,10.37334 0,11.0649 -8.99023,23.16713 l -1.72889,2.24755 -26.62491,32.33025 h 12.6209 l -0.17289,-2.93912 q 0,-5.18667 4.668,-9.16311 4.8409,-4.14934 11.41068,-4.14934 3.112,0 6.91556,1.38311 3.97645,1.21023 6.56978,5.01378 2.76623,3.63067 2.76623,8.29868 v 15.7329 l -0.17289,2.76622 q -2.07467,14.1769 -15.56001,14.1769 h -63.79605 l -4.84089,-0.51867 q -12.44801,-3.112 -12.44801,-14.1769 0,-3.45778 1.90178,-7.60711 0.69156,-1.90178 2.42045,-3.63067 z"
     id="text55"
     style="font-size:172.889px;font-family:MelodBold;-inkscape-font-specification:'MelodBold, Normal';text-align:center;white-space:pre;fill:#34a5ff;stroke:#000000;stroke-width:1.47349;stroke-linecap:round;stroke-linejoin:round"
     transform="matrix(1.1311043,0,0,1.1311043,-422.85427,-158.63943)"
     aria-label="2" />
  <path
     d="m 411.69712,292.35096 0.34578,-38.90002 q 0,-19.53646 13.31245,-32.67602 13.31246,-13.13957 34.23203,-13.13957 20.74668,0 34.05913,13.13957 13.31246,13.13956 13.31246,32.67602 v 38.90002 q 0,17.63468 -10.89201,30.25558 -10.89201,12.44801 -29.21824,15.21423 -3.63067,0.51867 -7.26134,0.51867 -3.45778,0 -7.08845,-0.51867 -10.37334,-1.38311 -18.49913,-6.05111 -7.95289,-4.84089 -13.48534,-12.6209 -8.81734,-12.27512 -8.81734,-26.7978 z m 49.61915,14.34979 q 5.35956,-0.86444 8.12578,-4.84089 2.93911,-4.14934 2.93911,-11.58356 v -34.75069 q 0,-14.34979 -11.06489,-16.25157 h -3.45778 q -5.70534,0.86444 -8.47156,4.668 -2.76623,3.80356 -2.76623,11.58357 v 34.75069 q 0,7.95289 3.28489,12.27512 3.45778,4.32222 9.16312,4.32222 1.556,0 2.24756,-0.17289 z"
     id="text66"
     style="font-size:172.889px;font-family:MelodBold;-inkscape-font-specification:'MelodBold, Normal';text-align:center;white-space:pre;fill:#34a5ff;stroke:#000000;stroke-width:1.47349;stroke-linecap:round;stroke-linejoin:round"
     transform="matrix(1.1311043,0,0,1.1311043,-309.31609,-158.63943)"
     aria-label="0" />
</svg>
