<?xml version="1.0" encoding="UTF-8" standalone="no"?>
<!-- Created with Inkscape (http://www.inkscape.org/) -->

<svg
   width="901.99994"
   height="901.99994"
   viewBox="0 0 300.66665 300.66665"
   version="1.1"
   id="svg1"
   xmlns="http://www.w3.org/2000/svg"
   xmlns:svg="http://www.w3.org/2000/svg">
  <defs
     id="defs1" />
  <path
     d="m 400.65181,258.33725 v -19.70152 q 0,-12.42053 10.27905,-18.41665 4.06879,-2.35561 10.27906,-2.35561 h 44.11428 l 8.99417,0.64244 q 28.90985,5.13953 35.9767,33.19278 1.49903,5.99612 1.49903,12.42053 0,15.41858 -10.06491,27.83911 l -2.35562,2.56976 2.78391,1.49903 q 16.48932,9.42247 16.48932,29.76644 0,6.42441 -1.92732,12.42052 -1.71318,5.99612 -5.78197,12.63468 -7.281,11.34979 -21.20055,18.20249 -13.70541,6.63856 -31.47961,6.63856 -4.71123,0 -9.85076,-0.64244 -10.49321,-1.28489 -18.84494,-4.49709 -8.13759,-3.42635 -13.91955,-8.56588 -2.78392,-2.35562 -5.56783,-5.78197 -2.78391,-3.42635 -4.06879,-5.56782 -3.6405,-5.99612 -3.6405,-12.84882 0,-7.49515 4.49709,-12.84882 4.71123,-5.56782 12.63467,-6.63856 1.07074,-0.21415 2.99806,-0.21415 6.21026,0 10.9215,3.42636 2.56976,1.92732 4.28294,3.85464 0.64244,0.64244 3.6405,4.49709 4.92538,6.21026 15.20443,6.21026 2.56977,0 4.0688,-0.21414 12.63467,-1.49903 12.63467,-10.06491 0,-2.35562 -0.42829,-3.6405 -1.92733,-5.35368 -8.35174,-6.63856 h -1.49903 -26.34008 q -3.42635,0 -5.99611,-0.85659 -7.92344,-2.35562 -11.56394,-9.20832 -2.14147,-4.06879 -2.14147,-8.13759 0,-5.56782 3.2122,-9.85076 3.21221,-4.28294 8.56588,-5.78197 5.56782,-1.49903 11.77809,-1.49903 h 13.91955 q 9.20832,0 12.84882,-2.14147 3.85465,-2.14147 4.92538,-7.28099 0.21415,-0.85659 0.21415,-2.56977 0,-10.06491 -13.06297,-10.06491 l -18.63079,-0.21414 v 1.71317 q 0,8.13759 -5.99611,13.49126 -5.99612,5.35368 -14.77614,5.35368 -8.13759,0 -13.70541,-5.78197 -5.56782,-5.78197 -5.56782,-14.34785 z"
     id="text73"
     style="font-size:214.147px;font-family:MelodBold;-inkscape-font-specification:'MelodBold, Normal';text-align:center;white-space:pre;display:inline;fill:#34a5ff;stroke:#000000;stroke-width:2.06288;stroke-linecap:round;stroke-linejoin:round"
     transform="matrix(1.1311043,0,0,1.1311043,-367.77604,-185.35199)"
     aria-label="3" />
</svg>
