<?xml version="1.0" encoding="UTF-8" standalone="no"?>
<!-- Created with Inkscape (http://www.inkscape.org/) -->

<svg
   width="901.99994"
   height="901.99994"
   viewBox="0 0 300.66665 300.66665"
   version="1.1"
   id="svg1"
   xmlns="http://www.w3.org/2000/svg"
   xmlns:svg="http://www.w3.org/2000/svg">
  <defs
     id="defs1" />
  <path
     d="m 401.74619,266.41109 20.20054,-40.81758 q 6.87235,-13.53645 19.57578,-13.53645 8.95488,0 14.57771,5.83108 5.62283,5.83109 5.62283,14.16121 0,3.95681 -1.87428,8.12187 l -18.32626,38.31855 -0.41651,0.83301 -0.4165,1.45777 q 0,4.16506 3.74855,4.16506 h 1.04127 12.49518 v -16.45199 q 0,-7.4971 3.12379,-12.91168 3.1238,-5.62283 8.12187,-7.91362 4.99807,-2.49903 10.2044,-2.49903 6.66409,0 12.07867,3.74855 5.41458,3.74856 7.0806,8.74663 1.66603,4.78982 1.66603,9.57964 v 17.7015 q 2.29078,-0.62476 4.16506,-0.62476 6.66409,0 11.66217,5.20633 4.99807,5.20632 4.99807,13.32819 0,17.70151 -20.61705,17.70151 l -0.20825,7.0806 h 1.45777 q 7.91361,0 13.11994,5.41458 5.20632,5.41457 5.20632,13.95295 0,8.95488 -5.62283,14.36946 -5.62283,5.41457 -14.57771,5.41457 h -41.6506 q -8.74663,0 -14.36946,-5.41457 -5.62283,-5.41458 -5.62283,-14.16121 0,-8.12187 5.20633,-13.7447 5.41458,-5.83108 13.32819,-5.83108 l 1.45777,-0.20825 v -6.87235 h -21.24181 l -6.66409,-0.41651 q -15.20247,-2.08253 -24.15735,-11.87042 -8.95488,-9.78789 -8.95488,-23.32434 0,-9.37138 4.58157,-18.53452 z"
     id="text72"
     style="font-size:208.253px;font-family:MelodBold;-inkscape-font-specification:'MelodBold, Normal';text-align:center;white-space:pre;display:inline;fill:#34a5ff;stroke:#000000;stroke-width:1.91553;stroke-linecap:round;stroke-linejoin:round"
     transform="matrix(1.1311043,0,0,1.1311043,-371.9823,-180.0375)"
     aria-label="4" />
</svg>
