<?xml version="1.0" encoding="UTF-8" standalone="no"?>
<!-- Created with Inkscape (http://www.inkscape.org/) -->

<svg
   width="901.99994"
   height="901.99994"
   viewBox="0 0 300.66665 300.66665"
   version="1.1"
   id="svg1"
   xmlns="http://www.w3.org/2000/svg"
   xmlns:svg="http://www.w3.org/2000/svg">
  <defs
     id="defs1" />
  <path
     d="m 458.92337,304.46353 h -30.15149 -2.42831 q -7.892,-1.0118 -12.74862,-6.07077 -4.65425,-5.26134 -4.65425,-12.74862 v -50.58975 q 0,-9.10615 5.05897,-14.16513 5.05898,-5.05897 14.36749,-5.05897 h 61.92185 l 2.42831,0.20236 q 8.49908,0 13.15333,4.4519 4.65426,4.45189 4.65426,12.14154 v 2.22594 13.3557 q 0,13.15333 -10.52267,17.80759 -4.24953,1.82123 -8.90379,1.82123 -7.28493,0 -12.95098,-4.04718 -5.66605,-4.04718 -5.66605,-9.10615 v -3.84482 h -22.66421 v 15.784 h 12.74862 q 4.24954,0 6.27313,0.40471 21.04533,2.42831 33.18687,15.37929 12.3439,12.74861 12.3439,31.77036 0,4.24954 -0.60707,8.49908 -2.83303,18.41467 -17.40288,30.35385 -14.36749,11.93918 -35.61518,11.93918 -20.03354,0 -35.81754,-9.10616 -15.58164,-9.10615 -20.64062,-22.05713 -1.41651,-3.64246 -1.41651,-7.892 0,-7.28492 4.4519,-12.3439 4.65425,-5.26133 12.14153,-6.27313 5.26134,-0.40471 9.30852,1.61888 4.04718,1.82123 8.49908,7.28492 4.45189,5.46369 7.48728,7.68964 3.03538,2.02359 7.48728,3.03539 l 3.84482,0.60707 q 14.97457,0 14.97457,-11.3321 0,-0.80944 -0.60708,-3.84482 -0.60708,-3.03539 -3.64246,-5.46369 -3.03539,-2.42831 -7.892,-2.42831 z"
     id="text71"
     style="font-size:202.359px;font-family:MelodBold;-inkscape-font-specification:'MelodBold, Normal';text-align:center;white-space:pre;display:inline;fill:#34a5ff;stroke:#000000;stroke-width:1.91553;stroke-linecap:round;stroke-linejoin:round"
     transform="matrix(1.1311043,0,0,1.1311043,-368.4135,-178.13887)"
     aria-label="5" />
</svg>
