<?xml version="1.0" encoding="UTF-8" standalone="no"?>
<!-- Created with Inkscape (http://www.inkscape.org/) -->

<svg
   width="901.99994"
   height="901.99994"
   viewBox="0 0 300.66665 300.66665"
   version="1.1"
   id="svg1"
   xmlns="http://www.w3.org/2000/svg"
   xmlns:svg="http://www.w3.org/2000/svg">
  <defs
     id="defs1" />
  <path
     d="M 406.57718,304.00881 V 266.484 q 0,-23.77227 15.7172,-39.293 15.7172,-15.52074 40.27533,-15.52074 1.96465,0 3.73283,0 1.76819,0 7.07274,0.78586 5.50102,0.5894 12.57376,3.33991 12.3773,4.91162 18.66418,11.98436 6.28688,7.07274 6.28688,14.73488 0,3.73283 -1.37526,7.07274 -4.51869,11.59143 -16.30659,11.59143 -3.14344,0 -6.48335,-1.17879 l -3.3399,-1.57172 -0.5894,-0.39293 -5.89395,-4.71516 -3.53637,-2.55404 q -3.14344,-1.76819 -5.89395,-2.35758 -2.75051,-0.5894 -6.48334,-0.5894 l -3.53637,0.78586 q -9.82325,2.55405 -11.00204,11.19851 v 1.96465 4.71516 l 1.17879,-0.78586 1.37525,-0.98233 q 7.66214,-4.71516 18.46771,-4.71516 7.66214,0 14.93134,2.55405 7.46567,2.35758 14.53841,7.66213 8.448,6.28688 13.16316,16.3066 4.71516,9.82325 4.71516,21.41468 0,4.12577 -0.78586,9.03739 -0.78586,4.91163 -2.35758,9.03739 -5.89395,15.32427 -19.6465,24.55812 -13.55609,9.03739 -31.04147,9.03739 -7.07274,0 -14.73488,-1.76818 -18.07478,-4.32223 -28.88035,-18.86064 -10.80558,-14.53841 -10.80558,-34.97077 z m 50.49151,20.03943 q 1.17879,0.39293 3.53637,0.39293 5.89395,0 9.82325,-4.12576 3.9293,-4.12577 3.9293,-10.60911 0,-4.5187 -2.94698,-8.05507 -2.94697,-3.53637 -7.8586,-4.71516 -1.17879,-0.39293 -3.73283,-0.39293 -2.55405,0 -5.30456,1.17879 -8.25153,3.33991 -8.25153,13.16316 0,4.71516 2.94698,8.44799 3.14344,3.53637 7.8586,4.71516 z"
     id="text70"
     style="font-size:196.465px;font-family:MelodBold;-inkscape-font-specification:'MelodBold, Normal';text-align:center;white-space:pre;display:inline;fill:#34a5ff;stroke:#000000;stroke-width:1.76818;stroke-linecap:round;stroke-linejoin:round"
     transform="matrix(1.1311043,0,0,1.1311043,-367.659,-173.08787)"
     aria-label="6" />
</svg>
