<?xml version="1.0" encoding="UTF-8" standalone="no"?>
<!-- Created with Inkscape (http://www.inkscape.org/) -->

<svg
   width="901.99994"
   height="901.99994"
   viewBox="0 0 300.66665 300.66665"
   version="1.1"
   id="svg1"
   xmlns="http://www.w3.org/2000/svg"
   xmlns:svg="http://www.w3.org/2000/svg">
  <defs
     id="defs1" />
  <path
     d="m 403.23728,251.74912 v -18.46771 q 0,-8.64446 4.91162,-13.55608 4.91163,-4.91163 13.75255,-4.91163 h 62.47587 l 6.87628,0.19647 q 11.39497,0.98232 18.66417,9.03739 7.2692,8.05506 7.2692,19.45003 0,5.10809 -1.76818,10.41265 l -2.75051,6.28688 -0.78586,1.17879 -1.96465,3.53637 -47.93746,82.90822 q -7.66213,13.16316 -19.25357,13.16316 -5.10809,0 -10.21618,-2.75051 -5.10809,-2.75051 -7.8586,-7.07274 -2.55404,-4.32223 -2.55404,-9.82325 0,-5.89395 3.14344,-11.00204 l 40.66825,-69.54861 0.78586,-1.76818 0.98233,-1.57172 q 0.58939,-1.17879 0.58939,-2.16112 0,-0.78586 -0.58939,-1.76818 -1.17879,-1.96465 -3.73284,-1.96465 h -2.55404 -21.02176 v 1.37525 q 0,7.66214 -5.50102,12.96669 -5.30455,5.10809 -12.96669,5.10809 -3.3399,0 -7.46567,-1.57172 -11.1985,-4.71516 -11.1985,-17.68185 z"
     id="text69"
     style="font-size:196.465px;font-family:MelodBold;-inkscape-font-specification:'MelodBold, Normal';text-align:center;white-space:pre;display:inline;fill:#34a5ff;stroke:#000000;stroke-width:1.76818;stroke-linecap:round;stroke-linejoin:round"
     transform="matrix(1.1311043,0,0,1.1311043,-367.659,-173.08787)"
     aria-label="7" />
</svg>
