<?xml version="1.0" encoding="UTF-8" standalone="no"?>
<svg
   width="901.99994"
   height="901.99994"
   viewBox="0 0 300.66665 300.66665"
   version="1.1"
   xmlns="http://www.w3.org/2000/svg"
   xmlns:svg="http://www.w3.org/2000/svg">
  <path
     d="m 420.23155,277.6825 -0.98232,-0.98232 -0.5894,-0.98233 q -5.69748,-7.2692 -5.69748,-18.46771 0,-8.44799 3.3399,-17.09245 9.43032,-23.77227 35.16724,-28.0945 4.12576,-0.58939 7.8586,-0.58939 3.73283,0 7.66213,0.58939 25.93338,4.32223 35.3637,28.0945 3.33991,8.64446 3.33991,17.28892 0,11.00204 -5.69749,18.27124 l -0.78586,0.98233 -0.98232,0.98232 1.37525,0.98233 1.37526,0.98232 q 4.51869,3.73284 7.66213,9.03739 5.69749,8.84093 5.69749,20.43236 0,14.93134 -9.23386,27.89803 -9.82325,13.75255 -26.32631,19.45003 l -9.23385,2.35758 q -4.5187,0.78586 -10.21618,0.78586 -10.80558,0 -19.6465,-3.14344 -16.3066,-5.69748 -25.93338,-19.0571 -9.43032,-13.35962 -9.43032,-28.48742 0,-11.39497 5.69748,-20.2359 3.14344,-5.30455 7.66214,-9.03739 l 1.17879,-0.98232 z m 29.86268,-20.62882 q 1.17879,5.50102 6.28688,7.07274 2.35758,0.98232 4.5187,0.39293 6.09041,-0.98233 7.66213,-7.46567 0.39293,-1.96465 0.39293,-2.75051 0,-3.33991 -2.35758,-6.28688 -2.94697,-3.53637 -7.2692,-3.53637 -3.9293,0 -7.26921,3.53637 -2.35758,2.94697 -2.35758,6.67981 z m -4.32223,55.59959 q 1.96465,11.00204 13.55609,11.00204 6.09041,0 9.82325,-3.9293 3.73283,-3.9293 3.73283,-9.62678 0,-1.76819 -0.39293,-3.73284 -0.39293,-1.96465 -1.76818,-4.12576 -4.32223,-6.09042 -11.39497,-6.09042 -5.10809,0 -8.84093,3.14344 -3.53637,2.94698 -4.51869,8.25153 l -0.39293,2.55405 z"
     style="fill:#34a5ff;stroke:#000000;stroke-width:1.76818;stroke-linecap:round;stroke-linejoin:round"
     transform="matrix(1.1311043,0,0,1.1311043,-367.659,-173.08787)" />
</svg>
