<?xml version="1.0" encoding="UTF-8" standalone="no"?>
<!-- Created with Inkscape (http://www.inkscape.org/) -->

<svg
   width="901.99994"
   height="901.99994"
   viewBox="0 0 300.66665 300.66665"
   version="1.1"
   id="svg1"
   xmlns="http://www.w3.org/2000/svg"
   xmlns:svg="http://www.w3.org/2000/svg">
  <defs
     id="defs1" />
  <g
     id="layer1"
     transform="translate(-189.94096,-31.673233)">
    <path
       d="m 512.07889,267.46632 v 37.72128 q 0,23.77226 -15.7172,39.293 -15.7172,15.52073 -40.07886,15.52073 -1.96465,0 -2.94698,0 -1.17879,0 -2.75051,-0.19646 -1.57172,-0.19647 -3.9293,-0.39293 -2.35758,-0.19647 -6.09041,-1.17879 -3.53637,-0.78586 -7.66214,-2.35758 -12.18083,-4.91163 -18.66417,-11.19851 -6.48335,-6.48334 -6.48335,-12.77022 0,-1.76819 0,-2.55405 0,-7.46566 4.32223,-12.57375 4.32223,-5.10809 11.39497,-6.09042 0.78586,-0.19646 2.75051,-0.19646 4.32223,0 9.23386,2.75051 l 6.48334,4.91162 q 4.12577,2.94698 7.8586,4.32223 3.73284,1.17879 7.8586,1.17879 l 3.53637,-0.58939 q 5.69749,-1.57172 8.05507,-3.9293 2.35758,-2.35758 2.94697,-7.46567 l 0.19647,-1.76819 v -4.51869 l -1.17879,0.78586 -1.57172,0.98232 q -7.66214,4.71516 -18.46771,4.71516 -7.66214,0 -14.93134,-2.35758 -7.26921,-2.55404 -14.14548,-7.66213 -8.84093,-6.67981 -13.55609,-16.69953 -4.71516,-10.01971 -4.71516,-21.02175 0,-8.84093 2.75051,-16.89599 2.94698,-8.25153 9.03739,-15.7172 15.7172,-19.6465 42.43644,-19.6465 21.61115,0 36.14956,13.35962 14.73488,13.35962 17.48539,34.97077 z m -56.97485,7.66214 q 1.96465,0.39293 3.14344,0.39293 1.17879,0 3.14344,-0.39293 5.10809,-0.98233 8.05506,-4.5187 3.14344,-3.73283 3.14344,-8.84092 0,-1.57172 -0.78586,-4.71516 -1.57172,-5.10809 -6.48334,-7.8586 -3.33991,-1.96465 -7.26921,-1.96465 -4.51869,0 -8.44799,3.14344 -3.73284,2.94697 -4.5187,6.67981 -0.78586,3.53637 -0.58939,5.10809 0,10.41264 10.60911,12.96669 z"
       id="text67"
       style="font-size:196.465px;font-family:MelodBold;-inkscape-font-specification:'MelodBold, Normal';text-align:center;white-space:pre;display:inline;fill:#34a5ff;stroke:#000000;stroke-width:1.76818;stroke-linecap:round;stroke-linejoin:round"
       transform="matrix(1.1311043,0,0,1.1311043,-177.71805,-141.41464)"
       aria-label="9" />
  </g>
</svg>
