<?xml version="1.0" encoding="UTF-8" standalone="no"?>
<!-- Created with Inkscape (http://www.inkscape.org/) -->

<svg
   width="98.332718mm"
   height="12.842928mm"
   viewBox="0 0 98.332717 12.842928"
   version="1.1"
   id="svg5"
   inkscape:version="1.3.2 (091e20e, 2023-11-25, custom)"
   sodipodi:docname="logo2_bright.svg"
   inkscape:export-filename="logo2_bright.png"
   inkscape:export-xdpi="258.3067"
   inkscape:export-ydpi="258.3067"
   xmlns:inkscape="http://www.inkscape.org/namespaces/inkscape"
   xmlns:sodipodi="http://sodipodi.sourceforge.net/DTD/sodipodi-0.dtd"
   xmlns="http://www.w3.org/2000/svg"
   xmlns:svg="http://www.w3.org/2000/svg">
  <sodipodi:namedview
     id="namedview7"
     pagecolor="#505050"
     bordercolor="#ffffff"
     borderopacity="1"
     inkscape:pageshadow="0"
     inkscape:pageopacity="0"
     inkscape:pagecheckerboard="1"
     inkscape:document-units="mm"
     showgrid="false"
     inkscape:zoom="1.4984147"
     inkscape:cx="129.13648"
     inkscape:cy="-57.060305"
     inkscape:window-width="1920"
     inkscape:window-height="1027"
     inkscape:window-x="-8"
     inkscape:window-y="1072"
     inkscape:window-maximized="1"
     inkscape:current-layer="layer1"
     inkscape:showpageshadow="0"
     inkscape:deskcolor="#505050" />
  <defs
     id="defs2">
    <rect
       x="1.334744"
       y="232.24545"
       width="791.50317"
       height="344.36395"
       id="rect3052" />
    <rect
       x="1.334744"
       y="232.24545"
       width="791.50317"
       height="344.36395"
       id="rect5629" />
  </defs>
  <g
     inkscape:label="Layer 1"
     inkscape:groupmode="layer"
     id="layer1"
     transform="translate(-96.635745,-64.260855)">
    <text
       xml:space="preserve"
       transform="matrix(0.26458333,0,0,0.26458333,7.0630202,0.35315101)"
       id="text3050"
       style="font-style:normal;font-weight:normal;font-size:40px;line-height:1.25;font-family:sans-serif;white-space:pre;shape-inside:url(#rect3052);display:none;fill:#000000;fill-opacity:1;stroke:none"
       inkscape:label="text_orig" />
    <path
       d="m 194.66846,70.589183 c 0,1.783644 -0.69992,3.268133 -2.09974,4.453466 -1.38854,1.174045 -3.14396,1.761067 -5.26626,1.761067 h -1.55788 c -2.1336,0 -3.90031,-0.587022 -5.30013,-1.761067 -1.38853,-1.185333 -2.0828,-2.669822 -2.0828,-4.453466 0,-1.783645 0.68862,-3.228623 2.06587,-4.334934 1.38853,-1.106311 3.16089,-1.659466 5.31706,-1.659466 h 1.55788 c 2.15617,0 3.92288,0.553155 5.30013,1.659466 1.37724,1.106311 2.06587,2.551289 2.06587,4.334934 z m -7.366,-2.827867 h -1.55788 c -1.04987,0 -1.91347,0.282222 -2.5908,0.846667 -0.67733,0.553155 -1.016,1.264355 -1.016,2.1336 0,0.869244 0.33867,1.574799 1.016,2.116666 0.67733,0.530578 1.54093,0.795867 2.5908,0.795867 h 1.55788 c 1.04986,0 1.91346,-0.265289 2.5908,-0.795867 0.67733,-0.541867 1.016,-1.247422 1.016,-2.116666 0,-0.869245 -0.34432,-1.580445 -1.03294,-2.1336 -0.67734,-0.564445 -1.53529,-0.846667 -2.57386,-0.846667 z"
       style="font-size:64px;line-height:1.25;font-family:Ethnocentric;-inkscape-font-specification:'Ethnocentric, Normal';white-space:pre;mix-blend-mode:normal;fill:#ce00ff;fill-opacity:1;stroke:#ffffff;stroke-width:0.600001;stroke-miterlimit:4;stroke-dasharray:none;stroke-opacity:1"
       id="path7737"
       inkscape:label="2o"
       sodipodi:nodetypes="scsscscsssssscscsscscs" />
    <path
       d="m 176.58791,70.758516 c 0.72248,0.654755 1.08373,1.388533 1.08373,2.201333 0,0.598311 -0.19756,1.162756 -0.59267,1.693334 -0.53058,0.722489 -1.3208,1.27 -2.37066,1.642533 -0.9257,0.327378 -1.95299,0.491067 -3.08187,0.491067 h -7.00194 v -7.603067 h 7.37447 c 0.31609,0 0.6096,-0.04516 0.88054,-0.135467 0.37253,-0.135467 0.5588,-0.333022 0.5588,-0.592666 0,-0.259645 -0.18627,-0.451556 -0.5588,-0.575734 -0.27094,-0.09031 -0.56445,-0.135466 -0.88054,-0.135466 h -7.37447 l 2.55693,-3.166534 h 4.44501 c 1.14018,0 2.17311,0.169333 3.0988,0.508 1.03858,0.383823 1.82315,0.942623 2.35373,1.6764 0.39511,0.541867 0.59267,1.1176 0.59267,1.7272 0,0.835378 -0.36125,1.591734 -1.08373,2.269067 z m -4.58894,1.591733 h -3.58141 v 1.286934 h 3.58141 c 0.39511,0 0.76764,-0.03951 1.1176,-0.118534 0.51929,-0.112889 0.77894,-0.287866 0.77894,-0.524933 0,-0.237067 -0.25965,-0.412044 -0.77894,-0.524933 -0.34996,-0.07902 -0.72249,-0.118534 -1.1176,-0.118534 z"
       style="font-size:64px;line-height:1.25;font-family:Ethnocentric;-inkscape-font-specification:'Ethnocentric, Normal';white-space:pre;mix-blend-mode:normal;fill:#ce00ff;fill-opacity:1;stroke:#ffffff;stroke-width:0.600001;stroke-miterlimit:4;stroke-dasharray:none;stroke-opacity:1"
       id="path7735"
       inkscape:label="2b"
       sodipodi:nodetypes="csccsccscsssccsccscsccscscs" />
    <path
       d="m 163.31642,73.654116 -2.4384,3.1496 h -9.2329 V 64.594783 h 11.6713 l -2.4384,3.166533 h -5.43984 v 1.286933 h 7.28557 l -2.4384,3.1496 h -4.84717 v 1.456267 z"
       style="font-size:64px;line-height:1.25;font-family:Ethnocentric;-inkscape-font-specification:'Ethnocentric, Normal';white-space:pre;mix-blend-mode:normal;fill:#ce00ff;fill-opacity:1;stroke:#ffffff;stroke-width:0.600001;stroke-miterlimit:4;stroke-dasharray:none;stroke-opacity:1"
       id="path7733"
       inkscape:label="2e"
       sodipodi:nodetypes="ccccccccccccc" />
    <path
       d="m 150.31586,73.654116 -2.4384,3.1496 h -4.01321 c -2.12231,0 -3.88337,-0.587022 -5.2832,-1.761067 -1.38853,-1.185333 -2.0828,-2.669822 -2.0828,-4.453466 0,-1.783645 0.68862,-3.228623 2.06587,-4.334934 1.37725,-1.106311 3.14396,-1.659466 5.30013,-1.659466 h 6.45161 l -2.4384,3.166533 h -4.01321 c -1.03857,0 -1.89653,0.282222 -2.57386,0.846667 -0.67733,0.553155 -1.016,1.264355 -1.016,2.1336 0,0.857955 0.33867,1.557866 1.016,2.099733 0.67733,0.541867 1.53529,0.8128 2.57386,0.8128 z"
       style="font-size:64px;line-height:1.25;font-family:Ethnocentric;-inkscape-font-specification:'Ethnocentric, Normal';white-space:pre;mix-blend-mode:normal;fill:#ce00ff;fill-opacity:1;stroke:#ffffff;stroke-width:0.600001;stroke-miterlimit:4;stroke-dasharray:none;stroke-opacity:1"
       id="path7731"
       inkscape:label="2c"
       sodipodi:nodetypes="ccscsssccscsssc" />
    <path
       d="m 127.78235,76.803655 1.6159,-3.166806 2.59203,2.73e-4 -1.57903,-4.385734 -3.91583,7.552267 h -4.69054 l 6.2357,-10.854267 c 0.24836,-0.361244 0.59267,-0.677333 1.03294,-0.948266 0.48542,-0.293511 0.95391,-0.440267 1.40546,-0.440267 0.46285,0 0.93134,0.146756 1.40547,0.440267 0.41769,0.259644 0.75635,0.575733 1.016,0.948266 l 4.9911,10.854267 z"
       style="font-size:64px;line-height:1.25;font-family:Ethnocentric;-inkscape-font-specification:'Ethnocentric, Normal';white-space:pre;mix-blend-mode:normal;fill:#ce00ff;fill-opacity:1;stroke:#ffffff;stroke-width:0.600001;stroke-miterlimit:4;stroke-dasharray:none;stroke-opacity:1"
       id="path7729"
       inkscape:label="2a"
       sodipodi:nodetypes="ccccccccscccc" />
    <path
       d="m 122.39825,73.653849 -1.93842,3.149933 h -8.14071 V 64.594849 h 3.77614 v 9.059333 z"
       style="font-size:64px;line-height:1.25;font-family:Ethnocentric;-inkscape-font-specification:'Ethnocentric, Normal';white-space:pre;mix-blend-mode:normal;fill:#ce00ff;fill-opacity:1;stroke:#ffffff;stroke-width:0.600001;stroke-miterlimit:4;stroke-dasharray:none;stroke-opacity:1"
       id="path7727"
       inkscape:label="2l"
       sodipodi:nodetypes="ccccccc" />
    <path
       d="m 111.31048,69.166722 c 0,1.377244 -0.59267,2.494844 -1.778,3.3528 -1.14018,0.8128 -2.5513,1.2192 -4.23335,1.2192 h -4.26723 v 3.064933 h -3.776132 v -6.231467 h 8.415892 c 0.51929,0 0.95392,-0.129822 1.30388,-0.389466 0.36125,-0.259645 0.54187,-0.603956 0.54187,-1.032934 0,-0.428977 -0.18062,-0.767644 -0.54187,-1.016 -0.34996,-0.248355 -0.78459,-0.372533 -1.30388,-0.372533 h -8.415892 l 2.506133,-3.166533 h 5.554159 c 1.67077,0 3.07624,0.4064 4.21642,1.2192 1.18533,0.857955 1.778,1.975555 1.778,3.3528 z"
       style="font-size:64px;line-height:1.25;font-family:Ethnocentric;-inkscape-font-specification:'Ethnocentric, Normal';white-space:pre;mix-blend-mode:normal;fill:#ce00ff;fill-opacity:1;stroke:#ffffff;stroke-width:0.600001;stroke-miterlimit:4;stroke-dasharray:none;stroke-opacity:1"
       id="path7725"
       inkscape:label="2p"
       sodipodi:nodetypes="scsccccscscsccscs" />
  </g>
</svg>
