<?xml version="1.0" encoding="UTF-8" standalone="no"?>
<!-- Created with Inkscape (http://www.inkscape.org/) -->

<svg
   width="86.132927mm"
   height="12.893601mm"
   viewBox="0 0 86.132926 12.893601"
   version="1.1"
   id="svg5"
   inkscape:version="1.3.2 (091e20e, 2023-11-25, custom)"
   sodipodi:docname="logo_html_animation_1.svg"
   inkscape:export-filename="logo_2024Q2.png"
   inkscape:export-xdpi="258.3067"
   inkscape:export-ydpi="258.3067"
   xmlns:inkscape="http://www.inkscape.org/namespaces/inkscape"
   xmlns:sodipodi="http://sodipodi.sourceforge.net/DTD/sodipodi-0.dtd"
   xmlns="http://www.w3.org/2000/svg"
   xmlns:svg="http://www.w3.org/2000/svg">
  <sodipodi:namedview
     id="namedview7"
     pagecolor="#505050"
     bordercolor="#ffffff"
     borderopacity="1"
     inkscape:pageshadow="0"
     inkscape:pageopacity="0"
     inkscape:pagecheckerboard="1"
     inkscape:document-units="mm"
     showgrid="false"
     inkscape:zoom="1.4984147"
     inkscape:cx="105.11109"
     inkscape:cy="9.6768939"
     inkscape:window-width="1858"
     inkscape:window-height="1057"
     inkscape:window-x="-8"
     inkscape:window-y="-8"
     inkscape:window-maximized="1"
     inkscape:current-layer="layer1"
     inkscape:showpageshadow="0"
     inkscape:deskcolor="#505050" />
  <defs
     id="defs2">
    <rect
       x="1.334744"
       y="232.24545"
       width="791.50317"
       height="344.36395"
       id="rect3052" />
    <rect
       x="1.334744"
       y="232.24545"
       width="791.50317"
       height="344.36395"
       id="rect5629" />
  </defs>
  <g
     inkscape:label="Layer 1"
     inkscape:groupmode="layer"
     id="layer1"
     transform="translate(-102.95565,-46.662849)">
    <text
       xml:space="preserve"
       transform="matrix(0.26458333,0,0,0.26458333,7.0630202,0.35315101)"
       id="text3050"
       style="font-style:normal;font-weight:normal;font-size:40px;line-height:1.25;font-family:sans-serif;white-space:pre;shape-inside:url(#rect3052);display:none;fill:#000000;fill-opacity:1;stroke:none"
       inkscape:label="text_orig" />
    <path
       d="m 188.47692,56.022182 -2.4384,3.1496 h -6.12986 q -3.18347,0 -5.2832,-1.761067 -2.0828,-1.778 -2.0828,-4.453466 0,-2.675467 2.06586,-4.334933 2.06587,-1.659467 5.30014,-1.659467 h 8.56826 l -2.4384,3.166533 h -6.12986 q -1.55787,0 -2.57387,0.846667 -1.016,0.829733 -1.016,2.1336 0,1.286933 1.016,2.099733 1.016,0.8128 2.57387,0.8128 z"
       style="font-size:64px;line-height:1.25;font-family:Ethnocentric;-inkscape-font-specification:'Ethnocentric, Normal';white-space:pre;shape-inside:url(#rect5629);mix-blend-mode:normal;fill:#ce00ff;fill-opacity:1;stroke:#ffffff;stroke-width:0.600001;stroke-miterlimit:4;stroke-dasharray:none;stroke-opacity:1"
       id="path7723-1"
       inkscape:label="1cc" />
    <path
       id="path939"
       style="font-size:64px;line-height:1.25;font-family:Ethnocentric;-inkscape-font-specification:'Ethnocentric, Normal';white-space:pre;shape-inside:url(#rect5629);display:inline;mix-blend-mode:normal;fill:#ce00ff;fill-opacity:1;stroke:#ffffff;stroke-width:0.632601;stroke-miterlimit:4;stroke-dasharray:none;stroke-opacity:1"
       inkscape:label="1i_serif"
       d="m 155.64665,46.979173 2.71973,3.15588 h 2.5461 c -0.045,3.21827 0,3.20871 0,5.87355 h -5.26583 l 2.71973,3.13882 h 2.56264 4.21369 2.56315 l 2.71973,-3.13882 h -5.26582 c 0,-2.66484 0.045,-2.65528 0,-5.87355 h 2.54609 l 2.71973,-3.15588 h -5.28288 -4.21369 z"
       sodipodi:nodetypes="ccccccccccccccccc" />
    <path
       d="m 152.62474,57.596982 q 0,1.659467 -1.50706,1.659467 -1.08374,0 -2.06587,-0.8128 l -7.14584,-5.977467 v 6.7056 H 138.1129 V 48.537649 q 0,-0.677333 0.42334,-1.1176 0.44026,-0.440267 1.23613,-0.440267 1.03293,0 1.91347,0.728134 l 7.14584,5.977466 v -6.722533 h 3.79306 z"
       style="font-size:64px;line-height:1.25;font-family:Ethnocentric;-inkscape-font-specification:'Ethnocentric, Normal';white-space:pre;shape-inside:url(#rect5629);mix-blend-mode:normal;fill:#ce00ff;fill-opacity:1;stroke:#ffffff;stroke-width:0.600001;stroke-miterlimit:4;stroke-dasharray:none;stroke-opacity:1"
       id="path7719-8"
       inkscape:label="1n" />
    <path
       d="m 137.14797,46.962855 -6.18913,8.161866 v 4.047067 h -3.79307 v -4.064 l -6.40927,-8.144933 h 4.84293 l 3.51367,4.961466 3.20887,-4.961466 z"
       style="font-size:64px;line-height:1.25;font-family:Ethnocentric;-inkscape-font-specification:'Ethnocentric, Normal';white-space:pre;mix-blend-mode:normal;fill:#ce00ff;fill-opacity:1;stroke:#ffffff;stroke-width:0.600001;stroke-miterlimit:4;stroke-dasharray:none;stroke-opacity:1"
       id="path7717"
       inkscape:label="1y"
       sodipodi:nodetypes="cccccccccc" />
    <path
       d="m 119.18992,56.022182 -2.4384,3.1496 h -6.12987 q -3.18346,0 -5.2832,-1.761067 -2.0828,-1.778 -2.0828,-4.453466 0,-2.675467 2.06587,-4.334933 2.06587,-1.659467 5.30013,-1.659467 h 8.56827 l -2.4384,3.166533 h -6.12987 q -1.55786,0 -2.57386,0.846667 -1.016,0.829733 -1.016,2.1336 0,1.286933 1.016,2.099733 1.016,0.8128 2.57386,0.8128 z"
       style="font-size:64px;line-height:1.25;font-family:Ethnocentric;-inkscape-font-specification:'Ethnocentric, Normal';white-space:pre;shape-inside:url(#rect5629);mix-blend-mode:normal;fill:#ce00ff;fill-opacity:1;stroke:#ffffff;stroke-width:0.600001;stroke-miterlimit:4;stroke-dasharray:none;stroke-opacity:1"
       id="path7715-3"
       inkscape:label="1c" />
  </g>
</svg>
